%TF.GenerationSoftware,KiCad,Pcbnew,8.0.1*%
%TF.CreationDate,2024-04-17T10:04:04-05:00*%
%TF.ProjectId,Kristerj,4b726973-7465-4726-9a2e-6b696361645f,rev?*%
%TF.SameCoordinates,Original*%
%TF.FileFunction,Other,Comment*%
%FSLAX46Y46*%
G04 Gerber Fmt 4.6, Leading zero omitted, Abs format (unit mm)*
G04 Created by KiCad (PCBNEW 8.0.1) date 2024-04-17 10:04:04*
%MOMM*%
%LPD*%
G01*
G04 APERTURE LIST*
%ADD10C,0.150000*%
G04 APERTURE END LIST*
D10*
%TO.C,H1*%
X148000000Y-309700000D02*
G75*
G02*
X137000000Y-309700000I-5500000J0D01*
G01*
X137000000Y-309700000D02*
G75*
G02*
X148000000Y-309700000I5500000J0D01*
G01*
%TO.C,H11*%
X454900000Y-309700000D02*
G75*
G02*
X443900000Y-309700000I-5500000J0D01*
G01*
X443900000Y-309700000D02*
G75*
G02*
X454900000Y-309700000I5500000J0D01*
G01*
%TO.C,H5*%
X148000000Y-89700000D02*
G75*
G02*
X137000000Y-89700000I-5500000J0D01*
G01*
X137000000Y-89700000D02*
G75*
G02*
X148000000Y-89700000I5500000J0D01*
G01*
%TO.C,H2*%
X176620000Y-250255000D02*
G75*
G02*
X169620000Y-250255000I-3500000J0D01*
G01*
X169620000Y-250255000D02*
G75*
G02*
X176620000Y-250255000I3500000J0D01*
G01*
%TO.C,H6*%
X339760000Y-199720000D02*
G75*
G02*
X332760000Y-199720000I-3500000J0D01*
G01*
X332760000Y-199720000D02*
G75*
G02*
X339760000Y-199720000I3500000J0D01*
G01*
%TO.C,H7*%
X424350000Y-144035000D02*
G75*
G02*
X417350000Y-144035000I-3500000J0D01*
G01*
X417350000Y-144035000D02*
G75*
G02*
X424350000Y-144035000I3500000J0D01*
G01*
%TO.C,H8*%
X329150000Y-143835000D02*
G75*
G02*
X318150000Y-143835000I-5500000J0D01*
G01*
X318150000Y-143835000D02*
G75*
G02*
X329150000Y-143835000I5500000J0D01*
G01*
%TO.C,H9*%
X175439260Y-144302740D02*
G75*
G02*
X168439260Y-144302740I-3500000J0D01*
G01*
X168439260Y-144302740D02*
G75*
G02*
X175439260Y-144302740I3500000J0D01*
G01*
%TO.C,H10*%
X259760000Y-199720000D02*
G75*
G02*
X252760000Y-199720000I-3500000J0D01*
G01*
X252760000Y-199720000D02*
G75*
G02*
X259760000Y-199720000I3500000J0D01*
G01*
%TO.C,H4*%
X412410000Y-251155000D02*
G75*
G02*
X401410000Y-251155000I-5500000J0D01*
G01*
X401410000Y-251155000D02*
G75*
G02*
X412410000Y-251155000I5500000J0D01*
G01*
%TO.C,H12*%
X268030000Y-250555000D02*
G75*
G02*
X261030000Y-250555000I-3500000J0D01*
G01*
X261030000Y-250555000D02*
G75*
G02*
X268030000Y-250555000I3500000J0D01*
G01*
%TO.C,H13*%
X389330000Y-200075000D02*
G75*
G02*
X382330000Y-200075000I-3500000J0D01*
G01*
X382330000Y-200075000D02*
G75*
G02*
X389330000Y-200075000I3500000J0D01*
G01*
%TO.C,H3*%
X454900000Y-89700000D02*
G75*
G02*
X443900000Y-89700000I-5500000J0D01*
G01*
X443900000Y-89700000D02*
G75*
G02*
X454900000Y-89700000I5500000J0D01*
G01*
%TD*%
M02*
