%TF.GenerationSoftware,KiCad,Pcbnew,8.0.1*%
%TF.CreationDate,2024-04-17T10:04:04-05:00*%
%TF.ProjectId,Kristerj,4b726973-7465-4726-9a2e-6b696361645f,rev?*%
%TF.SameCoordinates,Original*%
%TF.FileFunction,Legend,Bot*%
%TF.FilePolarity,Positive*%
%FSLAX46Y46*%
G04 Gerber Fmt 4.6, Leading zero omitted, Abs format (unit mm)*
G04 Created by KiCad (PCBNEW 8.0.1) date 2024-04-17 10:04:04*
%MOMM*%
%LPD*%
G01*
G04 APERTURE LIST*
%ADD10C,0.150000*%
%ADD11C,0.400000*%
%ADD12C,0.300000*%
G04 APERTURE END LIST*
D10*
X157917438Y-98052619D02*
X155917438Y-98052619D01*
X155917438Y-98052619D02*
X155917438Y-98528809D01*
X155917438Y-98528809D02*
X156012676Y-98814524D01*
X156012676Y-98814524D02*
X156203152Y-99005000D01*
X156203152Y-99005000D02*
X156393628Y-99100238D01*
X156393628Y-99100238D02*
X156774580Y-99195476D01*
X156774580Y-99195476D02*
X157060295Y-99195476D01*
X157060295Y-99195476D02*
X157441247Y-99100238D01*
X157441247Y-99100238D02*
X157631723Y-99005000D01*
X157631723Y-99005000D02*
X157822200Y-98814524D01*
X157822200Y-98814524D02*
X157917438Y-98528809D01*
X157917438Y-98528809D02*
X157917438Y-98052619D01*
X157917438Y-100052619D02*
X155917438Y-100052619D01*
X157917438Y-102052619D02*
X157917438Y-100909762D01*
X157917438Y-101481190D02*
X155917438Y-101481190D01*
X155917438Y-101481190D02*
X156203152Y-101290714D01*
X156203152Y-101290714D02*
X156393628Y-101100238D01*
X156393628Y-101100238D02*
X156488866Y-100909762D01*
X167917438Y-98047619D02*
X165917438Y-98047619D01*
X165917438Y-98047619D02*
X165917438Y-98523809D01*
X165917438Y-98523809D02*
X166012676Y-98809524D01*
X166012676Y-98809524D02*
X166203152Y-99000000D01*
X166203152Y-99000000D02*
X166393628Y-99095238D01*
X166393628Y-99095238D02*
X166774580Y-99190476D01*
X166774580Y-99190476D02*
X167060295Y-99190476D01*
X167060295Y-99190476D02*
X167441247Y-99095238D01*
X167441247Y-99095238D02*
X167631723Y-99000000D01*
X167631723Y-99000000D02*
X167822200Y-98809524D01*
X167822200Y-98809524D02*
X167917438Y-98523809D01*
X167917438Y-98523809D02*
X167917438Y-98047619D01*
X167917438Y-100047619D02*
X165917438Y-100047619D01*
X165917438Y-100809524D02*
X165917438Y-102047619D01*
X165917438Y-102047619D02*
X166679342Y-101380952D01*
X166679342Y-101380952D02*
X166679342Y-101666667D01*
X166679342Y-101666667D02*
X166774580Y-101857143D01*
X166774580Y-101857143D02*
X166869819Y-101952381D01*
X166869819Y-101952381D02*
X167060295Y-102047619D01*
X167060295Y-102047619D02*
X167536485Y-102047619D01*
X167536485Y-102047619D02*
X167726961Y-101952381D01*
X167726961Y-101952381D02*
X167822200Y-101857143D01*
X167822200Y-101857143D02*
X167917438Y-101666667D01*
X167917438Y-101666667D02*
X167917438Y-101095238D01*
X167917438Y-101095238D02*
X167822200Y-100904762D01*
X167822200Y-100904762D02*
X167726961Y-100809524D01*
X228962380Y-90584104D02*
X228962380Y-91917438D01*
X229438571Y-89822200D02*
X229914761Y-91250771D01*
X229914761Y-91250771D02*
X228676666Y-91250771D01*
X227914761Y-91155533D02*
X226390952Y-91155533D01*
X225533809Y-90107914D02*
X225438571Y-90012676D01*
X225438571Y-90012676D02*
X225248095Y-89917438D01*
X225248095Y-89917438D02*
X224771904Y-89917438D01*
X224771904Y-89917438D02*
X224581428Y-90012676D01*
X224581428Y-90012676D02*
X224486190Y-90107914D01*
X224486190Y-90107914D02*
X224390952Y-90298390D01*
X224390952Y-90298390D02*
X224390952Y-90488866D01*
X224390952Y-90488866D02*
X224486190Y-90774580D01*
X224486190Y-90774580D02*
X225629047Y-91917438D01*
X225629047Y-91917438D02*
X224390952Y-91917438D01*
X223152857Y-89917438D02*
X222962380Y-89917438D01*
X222962380Y-89917438D02*
X222771904Y-90012676D01*
X222771904Y-90012676D02*
X222676666Y-90107914D01*
X222676666Y-90107914D02*
X222581428Y-90298390D01*
X222581428Y-90298390D02*
X222486190Y-90679342D01*
X222486190Y-90679342D02*
X222486190Y-91155533D01*
X222486190Y-91155533D02*
X222581428Y-91536485D01*
X222581428Y-91536485D02*
X222676666Y-91726961D01*
X222676666Y-91726961D02*
X222771904Y-91822200D01*
X222771904Y-91822200D02*
X222962380Y-91917438D01*
X222962380Y-91917438D02*
X223152857Y-91917438D01*
X223152857Y-91917438D02*
X223343333Y-91822200D01*
X223343333Y-91822200D02*
X223438571Y-91726961D01*
X223438571Y-91726961D02*
X223533809Y-91536485D01*
X223533809Y-91536485D02*
X223629047Y-91155533D01*
X223629047Y-91155533D02*
X223629047Y-90679342D01*
X223629047Y-90679342D02*
X223533809Y-90298390D01*
X223533809Y-90298390D02*
X223438571Y-90107914D01*
X223438571Y-90107914D02*
X223343333Y-90012676D01*
X223343333Y-90012676D02*
X223152857Y-89917438D01*
X221629047Y-91917438D02*
X221629047Y-90584104D01*
X221629047Y-90774580D02*
X221533809Y-90679342D01*
X221533809Y-90679342D02*
X221343333Y-90584104D01*
X221343333Y-90584104D02*
X221057618Y-90584104D01*
X221057618Y-90584104D02*
X220867142Y-90679342D01*
X220867142Y-90679342D02*
X220771904Y-90869819D01*
X220771904Y-90869819D02*
X220771904Y-91917438D01*
X220771904Y-90869819D02*
X220676666Y-90679342D01*
X220676666Y-90679342D02*
X220486190Y-90584104D01*
X220486190Y-90584104D02*
X220200476Y-90584104D01*
X220200476Y-90584104D02*
X220009999Y-90679342D01*
X220009999Y-90679342D02*
X219914761Y-90869819D01*
X219914761Y-90869819D02*
X219914761Y-91917438D01*
X219057618Y-91346009D02*
X218105237Y-91346009D01*
X219248094Y-91917438D02*
X218581428Y-89917438D01*
X218581428Y-89917438D02*
X217914761Y-91917438D01*
X228107914Y-97619047D02*
X228012676Y-97714285D01*
X228012676Y-97714285D02*
X227917438Y-97904761D01*
X227917438Y-97904761D02*
X227917438Y-98380952D01*
X227917438Y-98380952D02*
X228012676Y-98571428D01*
X228012676Y-98571428D02*
X228107914Y-98666666D01*
X228107914Y-98666666D02*
X228298390Y-98761904D01*
X228298390Y-98761904D02*
X228488866Y-98761904D01*
X228488866Y-98761904D02*
X228774580Y-98666666D01*
X228774580Y-98666666D02*
X229917438Y-97523809D01*
X229917438Y-97523809D02*
X229917438Y-98761904D01*
X228584104Y-100476190D02*
X229917438Y-100476190D01*
X227822200Y-99999999D02*
X229250771Y-99523809D01*
X229250771Y-99523809D02*
X229250771Y-100761904D01*
X227917438Y-101238095D02*
X229917438Y-101904761D01*
X229917438Y-101904761D02*
X227917438Y-102571428D01*
X210557438Y-98000000D02*
X208557438Y-98000000D01*
X210557438Y-98952381D02*
X208557438Y-98952381D01*
X208557438Y-98952381D02*
X210557438Y-100095238D01*
X210557438Y-100095238D02*
X208557438Y-100095238D01*
X210557438Y-102095238D02*
X210557438Y-100952381D01*
X210557438Y-101523809D02*
X208557438Y-101523809D01*
X208557438Y-101523809D02*
X208843152Y-101333333D01*
X208843152Y-101333333D02*
X209033628Y-101142857D01*
X209033628Y-101142857D02*
X209128866Y-100952381D01*
X237917438Y-98047618D02*
X237917438Y-98428571D01*
X237917438Y-98428571D02*
X238012676Y-98619047D01*
X238012676Y-98619047D02*
X238203152Y-98809523D01*
X238203152Y-98809523D02*
X238584104Y-98904761D01*
X238584104Y-98904761D02*
X239250771Y-98904761D01*
X239250771Y-98904761D02*
X239631723Y-98809523D01*
X239631723Y-98809523D02*
X239822200Y-98619047D01*
X239822200Y-98619047D02*
X239917438Y-98428571D01*
X239917438Y-98428571D02*
X239917438Y-98047618D01*
X239917438Y-98047618D02*
X239822200Y-97857142D01*
X239822200Y-97857142D02*
X239631723Y-97666666D01*
X239631723Y-97666666D02*
X239250771Y-97571428D01*
X239250771Y-97571428D02*
X238584104Y-97571428D01*
X238584104Y-97571428D02*
X238203152Y-97666666D01*
X238203152Y-97666666D02*
X238012676Y-97857142D01*
X238012676Y-97857142D02*
X237917438Y-98047618D01*
X237917438Y-99761904D02*
X239536485Y-99761904D01*
X239536485Y-99761904D02*
X239726961Y-99857142D01*
X239726961Y-99857142D02*
X239822200Y-99952380D01*
X239822200Y-99952380D02*
X239917438Y-100142856D01*
X239917438Y-100142856D02*
X239917438Y-100523809D01*
X239917438Y-100523809D02*
X239822200Y-100714285D01*
X239822200Y-100714285D02*
X239726961Y-100809523D01*
X239726961Y-100809523D02*
X239536485Y-100904761D01*
X239536485Y-100904761D02*
X237917438Y-100904761D01*
X237917438Y-101571428D02*
X237917438Y-102714285D01*
X239917438Y-102142856D02*
X237917438Y-102142856D01*
X239917438Y-104428571D02*
X239917438Y-103285714D01*
X239917438Y-103857142D02*
X237917438Y-103857142D01*
X237917438Y-103857142D02*
X238203152Y-103666666D01*
X238203152Y-103666666D02*
X238393628Y-103476190D01*
X238393628Y-103476190D02*
X238488866Y-103285714D01*
D11*
X430540561Y-202142380D02*
X432540561Y-202142380D01*
X432350085Y-201285237D02*
X432445323Y-201189999D01*
X432445323Y-201189999D02*
X432540561Y-200999523D01*
X432540561Y-200999523D02*
X432540561Y-200523332D01*
X432540561Y-200523332D02*
X432445323Y-200332856D01*
X432445323Y-200332856D02*
X432350085Y-200237618D01*
X432350085Y-200237618D02*
X432159609Y-200142380D01*
X432159609Y-200142380D02*
X431969133Y-200142380D01*
X431969133Y-200142380D02*
X431683419Y-200237618D01*
X431683419Y-200237618D02*
X430540561Y-201380475D01*
X430540561Y-201380475D02*
X430540561Y-200142380D01*
X430731038Y-198142380D02*
X430635800Y-198237618D01*
X430635800Y-198237618D02*
X430540561Y-198523332D01*
X430540561Y-198523332D02*
X430540561Y-198713808D01*
X430540561Y-198713808D02*
X430635800Y-198999523D01*
X430635800Y-198999523D02*
X430826276Y-199189999D01*
X430826276Y-199189999D02*
X431016752Y-199285237D01*
X431016752Y-199285237D02*
X431397704Y-199380475D01*
X431397704Y-199380475D02*
X431683419Y-199380475D01*
X431683419Y-199380475D02*
X432064371Y-199285237D01*
X432064371Y-199285237D02*
X432254847Y-199189999D01*
X432254847Y-199189999D02*
X432445323Y-198999523D01*
X432445323Y-198999523D02*
X432540561Y-198713808D01*
X432540561Y-198713808D02*
X432540561Y-198523332D01*
X432540561Y-198523332D02*
X432445323Y-198237618D01*
X432445323Y-198237618D02*
X432350085Y-198142380D01*
D10*
X191917438Y-97476190D02*
X189917438Y-97476190D01*
X189917438Y-97476190D02*
X189917438Y-97952380D01*
X189917438Y-97952380D02*
X190012676Y-98238095D01*
X190012676Y-98238095D02*
X190203152Y-98428571D01*
X190203152Y-98428571D02*
X190393628Y-98523809D01*
X190393628Y-98523809D02*
X190774580Y-98619047D01*
X190774580Y-98619047D02*
X191060295Y-98619047D01*
X191060295Y-98619047D02*
X191441247Y-98523809D01*
X191441247Y-98523809D02*
X191631723Y-98428571D01*
X191631723Y-98428571D02*
X191822200Y-98238095D01*
X191822200Y-98238095D02*
X191917438Y-97952380D01*
X191917438Y-97952380D02*
X191917438Y-97476190D01*
X189917438Y-99857142D02*
X189917438Y-100238095D01*
X189917438Y-100238095D02*
X190012676Y-100428571D01*
X190012676Y-100428571D02*
X190203152Y-100619047D01*
X190203152Y-100619047D02*
X190584104Y-100714285D01*
X190584104Y-100714285D02*
X191250771Y-100714285D01*
X191250771Y-100714285D02*
X191631723Y-100619047D01*
X191631723Y-100619047D02*
X191822200Y-100428571D01*
X191822200Y-100428571D02*
X191917438Y-100238095D01*
X191917438Y-100238095D02*
X191917438Y-99857142D01*
X191917438Y-99857142D02*
X191822200Y-99666666D01*
X191822200Y-99666666D02*
X191631723Y-99476190D01*
X191631723Y-99476190D02*
X191250771Y-99380952D01*
X191250771Y-99380952D02*
X190584104Y-99380952D01*
X190584104Y-99380952D02*
X190203152Y-99476190D01*
X190203152Y-99476190D02*
X190012676Y-99666666D01*
X190012676Y-99666666D02*
X189917438Y-99857142D01*
X190107914Y-101476190D02*
X190012676Y-101571428D01*
X190012676Y-101571428D02*
X189917438Y-101761904D01*
X189917438Y-101761904D02*
X189917438Y-102238095D01*
X189917438Y-102238095D02*
X190012676Y-102428571D01*
X190012676Y-102428571D02*
X190107914Y-102523809D01*
X190107914Y-102523809D02*
X190298390Y-102619047D01*
X190298390Y-102619047D02*
X190488866Y-102619047D01*
X190488866Y-102619047D02*
X190774580Y-102523809D01*
X190774580Y-102523809D02*
X191917438Y-101380952D01*
X191917438Y-101380952D02*
X191917438Y-102619047D01*
X182285714Y-91917438D02*
X182285714Y-89917438D01*
X182285714Y-89917438D02*
X181809524Y-89917438D01*
X181809524Y-89917438D02*
X181523809Y-90012676D01*
X181523809Y-90012676D02*
X181333333Y-90203152D01*
X181333333Y-90203152D02*
X181238095Y-90393628D01*
X181238095Y-90393628D02*
X181142857Y-90774580D01*
X181142857Y-90774580D02*
X181142857Y-91060295D01*
X181142857Y-91060295D02*
X181238095Y-91441247D01*
X181238095Y-91441247D02*
X181333333Y-91631723D01*
X181333333Y-91631723D02*
X181523809Y-91822200D01*
X181523809Y-91822200D02*
X181809524Y-91917438D01*
X181809524Y-91917438D02*
X182285714Y-91917438D01*
X180285714Y-91917438D02*
X180285714Y-89917438D01*
X179428571Y-91822200D02*
X179142857Y-91917438D01*
X179142857Y-91917438D02*
X178666666Y-91917438D01*
X178666666Y-91917438D02*
X178476190Y-91822200D01*
X178476190Y-91822200D02*
X178380952Y-91726961D01*
X178380952Y-91726961D02*
X178285714Y-91536485D01*
X178285714Y-91536485D02*
X178285714Y-91346009D01*
X178285714Y-91346009D02*
X178380952Y-91155533D01*
X178380952Y-91155533D02*
X178476190Y-91060295D01*
X178476190Y-91060295D02*
X178666666Y-90965057D01*
X178666666Y-90965057D02*
X179047619Y-90869819D01*
X179047619Y-90869819D02*
X179238095Y-90774580D01*
X179238095Y-90774580D02*
X179333333Y-90679342D01*
X179333333Y-90679342D02*
X179428571Y-90488866D01*
X179428571Y-90488866D02*
X179428571Y-90298390D01*
X179428571Y-90298390D02*
X179333333Y-90107914D01*
X179333333Y-90107914D02*
X179238095Y-90012676D01*
X179238095Y-90012676D02*
X179047619Y-89917438D01*
X179047619Y-89917438D02*
X178571428Y-89917438D01*
X178571428Y-89917438D02*
X178285714Y-90012676D01*
X176285714Y-91726961D02*
X176380952Y-91822200D01*
X176380952Y-91822200D02*
X176666666Y-91917438D01*
X176666666Y-91917438D02*
X176857142Y-91917438D01*
X176857142Y-91917438D02*
X177142857Y-91822200D01*
X177142857Y-91822200D02*
X177333333Y-91631723D01*
X177333333Y-91631723D02*
X177428571Y-91441247D01*
X177428571Y-91441247D02*
X177523809Y-91060295D01*
X177523809Y-91060295D02*
X177523809Y-90774580D01*
X177523809Y-90774580D02*
X177428571Y-90393628D01*
X177428571Y-90393628D02*
X177333333Y-90203152D01*
X177333333Y-90203152D02*
X177142857Y-90012676D01*
X177142857Y-90012676D02*
X176857142Y-89917438D01*
X176857142Y-89917438D02*
X176666666Y-89917438D01*
X176666666Y-89917438D02*
X176380952Y-90012676D01*
X176380952Y-90012676D02*
X176285714Y-90107914D01*
X174285714Y-91917438D02*
X174952381Y-90965057D01*
X175428571Y-91917438D02*
X175428571Y-89917438D01*
X175428571Y-89917438D02*
X174666666Y-89917438D01*
X174666666Y-89917438D02*
X174476190Y-90012676D01*
X174476190Y-90012676D02*
X174380952Y-90107914D01*
X174380952Y-90107914D02*
X174285714Y-90298390D01*
X174285714Y-90298390D02*
X174285714Y-90584104D01*
X174285714Y-90584104D02*
X174380952Y-90774580D01*
X174380952Y-90774580D02*
X174476190Y-90869819D01*
X174476190Y-90869819D02*
X174666666Y-90965057D01*
X174666666Y-90965057D02*
X175428571Y-90965057D01*
X173428571Y-90869819D02*
X172761904Y-90869819D01*
X172476190Y-91917438D02*
X173428571Y-91917438D01*
X173428571Y-91917438D02*
X173428571Y-89917438D01*
X173428571Y-89917438D02*
X172476190Y-89917438D01*
X171904761Y-89917438D02*
X170761904Y-89917438D01*
X171333333Y-91917438D02*
X171333333Y-89917438D01*
X170095237Y-90869819D02*
X169428570Y-90869819D01*
X169142856Y-91917438D02*
X170095237Y-91917438D01*
X170095237Y-91917438D02*
X170095237Y-89917438D01*
X170095237Y-89917438D02*
X169142856Y-89917438D01*
X181922438Y-97481190D02*
X179922438Y-97481190D01*
X179922438Y-97481190D02*
X179922438Y-97957380D01*
X179922438Y-97957380D02*
X180017676Y-98243095D01*
X180017676Y-98243095D02*
X180208152Y-98433571D01*
X180208152Y-98433571D02*
X180398628Y-98528809D01*
X180398628Y-98528809D02*
X180779580Y-98624047D01*
X180779580Y-98624047D02*
X181065295Y-98624047D01*
X181065295Y-98624047D02*
X181446247Y-98528809D01*
X181446247Y-98528809D02*
X181636723Y-98433571D01*
X181636723Y-98433571D02*
X181827200Y-98243095D01*
X181827200Y-98243095D02*
X181922438Y-97957380D01*
X181922438Y-97957380D02*
X181922438Y-97481190D01*
X179922438Y-99862142D02*
X179922438Y-100243095D01*
X179922438Y-100243095D02*
X180017676Y-100433571D01*
X180017676Y-100433571D02*
X180208152Y-100624047D01*
X180208152Y-100624047D02*
X180589104Y-100719285D01*
X180589104Y-100719285D02*
X181255771Y-100719285D01*
X181255771Y-100719285D02*
X181636723Y-100624047D01*
X181636723Y-100624047D02*
X181827200Y-100433571D01*
X181827200Y-100433571D02*
X181922438Y-100243095D01*
X181922438Y-100243095D02*
X181922438Y-99862142D01*
X181922438Y-99862142D02*
X181827200Y-99671666D01*
X181827200Y-99671666D02*
X181636723Y-99481190D01*
X181636723Y-99481190D02*
X181255771Y-99385952D01*
X181255771Y-99385952D02*
X180589104Y-99385952D01*
X180589104Y-99385952D02*
X180208152Y-99481190D01*
X180208152Y-99481190D02*
X180017676Y-99671666D01*
X180017676Y-99671666D02*
X179922438Y-99862142D01*
X181922438Y-102624047D02*
X181922438Y-101481190D01*
X181922438Y-102052618D02*
X179922438Y-102052618D01*
X179922438Y-102052618D02*
X180208152Y-101862142D01*
X180208152Y-101862142D02*
X180398628Y-101671666D01*
X180398628Y-101671666D02*
X180493866Y-101481190D01*
X172917438Y-98047619D02*
X170917438Y-98047619D01*
X170917438Y-98047619D02*
X170917438Y-98523809D01*
X170917438Y-98523809D02*
X171012676Y-98809524D01*
X171012676Y-98809524D02*
X171203152Y-99000000D01*
X171203152Y-99000000D02*
X171393628Y-99095238D01*
X171393628Y-99095238D02*
X171774580Y-99190476D01*
X171774580Y-99190476D02*
X172060295Y-99190476D01*
X172060295Y-99190476D02*
X172441247Y-99095238D01*
X172441247Y-99095238D02*
X172631723Y-99000000D01*
X172631723Y-99000000D02*
X172822200Y-98809524D01*
X172822200Y-98809524D02*
X172917438Y-98523809D01*
X172917438Y-98523809D02*
X172917438Y-98047619D01*
X172917438Y-100047619D02*
X170917438Y-100047619D01*
X171584104Y-101857143D02*
X172917438Y-101857143D01*
X170822200Y-101380952D02*
X172250771Y-100904762D01*
X172250771Y-100904762D02*
X172250771Y-102142857D01*
X286082561Y-301914999D02*
X288082561Y-301914999D01*
X286082561Y-300962618D02*
X288082561Y-300962618D01*
X288082561Y-300962618D02*
X286082561Y-299819761D01*
X286082561Y-299819761D02*
X288082561Y-299819761D01*
X286082561Y-297819761D02*
X286082561Y-298962618D01*
X286082561Y-298391190D02*
X288082561Y-298391190D01*
X288082561Y-298391190D02*
X287796847Y-298581666D01*
X287796847Y-298581666D02*
X287606371Y-298772142D01*
X287606371Y-298772142D02*
X287511133Y-298962618D01*
X435107914Y-97619047D02*
X435012676Y-97714285D01*
X435012676Y-97714285D02*
X434917438Y-97904761D01*
X434917438Y-97904761D02*
X434917438Y-98380952D01*
X434917438Y-98380952D02*
X435012676Y-98571428D01*
X435012676Y-98571428D02*
X435107914Y-98666666D01*
X435107914Y-98666666D02*
X435298390Y-98761904D01*
X435298390Y-98761904D02*
X435488866Y-98761904D01*
X435488866Y-98761904D02*
X435774580Y-98666666D01*
X435774580Y-98666666D02*
X436917438Y-97523809D01*
X436917438Y-97523809D02*
X436917438Y-98761904D01*
X435584104Y-100476190D02*
X436917438Y-100476190D01*
X434822200Y-99999999D02*
X436250771Y-99523809D01*
X436250771Y-99523809D02*
X436250771Y-100761904D01*
X434917438Y-101238095D02*
X436917438Y-101904761D01*
X436917438Y-101904761D02*
X434917438Y-102571428D01*
X182052380Y-308584104D02*
X182052380Y-309917438D01*
X182528571Y-307822200D02*
X183004761Y-309250771D01*
X183004761Y-309250771D02*
X181766666Y-309250771D01*
X181004761Y-309155533D02*
X179480952Y-309155533D01*
X178623809Y-308107914D02*
X178528571Y-308012676D01*
X178528571Y-308012676D02*
X178338095Y-307917438D01*
X178338095Y-307917438D02*
X177861904Y-307917438D01*
X177861904Y-307917438D02*
X177671428Y-308012676D01*
X177671428Y-308012676D02*
X177576190Y-308107914D01*
X177576190Y-308107914D02*
X177480952Y-308298390D01*
X177480952Y-308298390D02*
X177480952Y-308488866D01*
X177480952Y-308488866D02*
X177576190Y-308774580D01*
X177576190Y-308774580D02*
X178719047Y-309917438D01*
X178719047Y-309917438D02*
X177480952Y-309917438D01*
X176242857Y-307917438D02*
X176052380Y-307917438D01*
X176052380Y-307917438D02*
X175861904Y-308012676D01*
X175861904Y-308012676D02*
X175766666Y-308107914D01*
X175766666Y-308107914D02*
X175671428Y-308298390D01*
X175671428Y-308298390D02*
X175576190Y-308679342D01*
X175576190Y-308679342D02*
X175576190Y-309155533D01*
X175576190Y-309155533D02*
X175671428Y-309536485D01*
X175671428Y-309536485D02*
X175766666Y-309726961D01*
X175766666Y-309726961D02*
X175861904Y-309822200D01*
X175861904Y-309822200D02*
X176052380Y-309917438D01*
X176052380Y-309917438D02*
X176242857Y-309917438D01*
X176242857Y-309917438D02*
X176433333Y-309822200D01*
X176433333Y-309822200D02*
X176528571Y-309726961D01*
X176528571Y-309726961D02*
X176623809Y-309536485D01*
X176623809Y-309536485D02*
X176719047Y-309155533D01*
X176719047Y-309155533D02*
X176719047Y-308679342D01*
X176719047Y-308679342D02*
X176623809Y-308298390D01*
X176623809Y-308298390D02*
X176528571Y-308107914D01*
X176528571Y-308107914D02*
X176433333Y-308012676D01*
X176433333Y-308012676D02*
X176242857Y-307917438D01*
X174719047Y-309917438D02*
X174719047Y-308584104D01*
X174719047Y-308774580D02*
X174623809Y-308679342D01*
X174623809Y-308679342D02*
X174433333Y-308584104D01*
X174433333Y-308584104D02*
X174147618Y-308584104D01*
X174147618Y-308584104D02*
X173957142Y-308679342D01*
X173957142Y-308679342D02*
X173861904Y-308869819D01*
X173861904Y-308869819D02*
X173861904Y-309917438D01*
X173861904Y-308869819D02*
X173766666Y-308679342D01*
X173766666Y-308679342D02*
X173576190Y-308584104D01*
X173576190Y-308584104D02*
X173290476Y-308584104D01*
X173290476Y-308584104D02*
X173099999Y-308679342D01*
X173099999Y-308679342D02*
X173004761Y-308869819D01*
X173004761Y-308869819D02*
X173004761Y-309917438D01*
X172147618Y-309346009D02*
X171195237Y-309346009D01*
X172338094Y-309917438D02*
X171671428Y-307917438D01*
X171671428Y-307917438D02*
X171004761Y-309917438D01*
X305082561Y-301923809D02*
X307082561Y-301923809D01*
X307082561Y-301923809D02*
X307082561Y-301447619D01*
X307082561Y-301447619D02*
X306987323Y-301161904D01*
X306987323Y-301161904D02*
X306796847Y-300971428D01*
X306796847Y-300971428D02*
X306606371Y-300876190D01*
X306606371Y-300876190D02*
X306225419Y-300780952D01*
X306225419Y-300780952D02*
X305939704Y-300780952D01*
X305939704Y-300780952D02*
X305558752Y-300876190D01*
X305558752Y-300876190D02*
X305368276Y-300971428D01*
X305368276Y-300971428D02*
X305177800Y-301161904D01*
X305177800Y-301161904D02*
X305082561Y-301447619D01*
X305082561Y-301447619D02*
X305082561Y-301923809D01*
X307082561Y-299542857D02*
X307082561Y-299161904D01*
X307082561Y-299161904D02*
X306987323Y-298971428D01*
X306987323Y-298971428D02*
X306796847Y-298780952D01*
X306796847Y-298780952D02*
X306415895Y-298685714D01*
X306415895Y-298685714D02*
X305749228Y-298685714D01*
X305749228Y-298685714D02*
X305368276Y-298780952D01*
X305368276Y-298780952D02*
X305177800Y-298971428D01*
X305177800Y-298971428D02*
X305082561Y-299161904D01*
X305082561Y-299161904D02*
X305082561Y-299542857D01*
X305082561Y-299542857D02*
X305177800Y-299733333D01*
X305177800Y-299733333D02*
X305368276Y-299923809D01*
X305368276Y-299923809D02*
X305749228Y-300019047D01*
X305749228Y-300019047D02*
X306415895Y-300019047D01*
X306415895Y-300019047D02*
X306796847Y-299923809D01*
X306796847Y-299923809D02*
X306987323Y-299733333D01*
X306987323Y-299733333D02*
X307082561Y-299542857D01*
X306892085Y-297923809D02*
X306987323Y-297828571D01*
X306987323Y-297828571D02*
X307082561Y-297638095D01*
X307082561Y-297638095D02*
X307082561Y-297161904D01*
X307082561Y-297161904D02*
X306987323Y-296971428D01*
X306987323Y-296971428D02*
X306892085Y-296876190D01*
X306892085Y-296876190D02*
X306701609Y-296780952D01*
X306701609Y-296780952D02*
X306511133Y-296780952D01*
X306511133Y-296780952D02*
X306225419Y-296876190D01*
X306225419Y-296876190D02*
X305082561Y-298019047D01*
X305082561Y-298019047D02*
X305082561Y-296780952D01*
X412932438Y-98010000D02*
X410932438Y-98010000D01*
X412932438Y-98962381D02*
X410932438Y-98962381D01*
X410932438Y-98962381D02*
X412932438Y-100105238D01*
X412932438Y-100105238D02*
X410932438Y-100105238D01*
X411122914Y-100962381D02*
X411027676Y-101057619D01*
X411027676Y-101057619D02*
X410932438Y-101248095D01*
X410932438Y-101248095D02*
X410932438Y-101724286D01*
X410932438Y-101724286D02*
X411027676Y-101914762D01*
X411027676Y-101914762D02*
X411122914Y-102010000D01*
X411122914Y-102010000D02*
X411313390Y-102105238D01*
X411313390Y-102105238D02*
X411503866Y-102105238D01*
X411503866Y-102105238D02*
X411789580Y-102010000D01*
X411789580Y-102010000D02*
X412932438Y-100867143D01*
X412932438Y-100867143D02*
X412932438Y-102105238D01*
X329082561Y-301927380D02*
X331082561Y-301927380D01*
X331082561Y-301927380D02*
X331082561Y-301451190D01*
X331082561Y-301451190D02*
X330987323Y-301165475D01*
X330987323Y-301165475D02*
X330796847Y-300974999D01*
X330796847Y-300974999D02*
X330606371Y-300879761D01*
X330606371Y-300879761D02*
X330225419Y-300784523D01*
X330225419Y-300784523D02*
X329939704Y-300784523D01*
X329939704Y-300784523D02*
X329558752Y-300879761D01*
X329558752Y-300879761D02*
X329368276Y-300974999D01*
X329368276Y-300974999D02*
X329177800Y-301165475D01*
X329177800Y-301165475D02*
X329082561Y-301451190D01*
X329082561Y-301451190D02*
X329082561Y-301927380D01*
X329082561Y-299927380D02*
X331082561Y-299927380D01*
X331082561Y-299165475D02*
X331082561Y-297927380D01*
X331082561Y-297927380D02*
X330320657Y-298594047D01*
X330320657Y-298594047D02*
X330320657Y-298308332D01*
X330320657Y-298308332D02*
X330225419Y-298117856D01*
X330225419Y-298117856D02*
X330130180Y-298022618D01*
X330130180Y-298022618D02*
X329939704Y-297927380D01*
X329939704Y-297927380D02*
X329463514Y-297927380D01*
X329463514Y-297927380D02*
X329273038Y-298022618D01*
X329273038Y-298022618D02*
X329177800Y-298117856D01*
X329177800Y-298117856D02*
X329082561Y-298308332D01*
X329082561Y-298308332D02*
X329082561Y-298879761D01*
X329082561Y-298879761D02*
X329177800Y-299070237D01*
X329177800Y-299070237D02*
X329273038Y-299165475D01*
X196892085Y-302370952D02*
X196987323Y-302275714D01*
X196987323Y-302275714D02*
X197082561Y-302085238D01*
X197082561Y-302085238D02*
X197082561Y-301609047D01*
X197082561Y-301609047D02*
X196987323Y-301418571D01*
X196987323Y-301418571D02*
X196892085Y-301323333D01*
X196892085Y-301323333D02*
X196701609Y-301228095D01*
X196701609Y-301228095D02*
X196511133Y-301228095D01*
X196511133Y-301228095D02*
X196225419Y-301323333D01*
X196225419Y-301323333D02*
X195082561Y-302466190D01*
X195082561Y-302466190D02*
X195082561Y-301228095D01*
X196415895Y-299513809D02*
X195082561Y-299513809D01*
X197177800Y-299990000D02*
X195749228Y-300466190D01*
X195749228Y-300466190D02*
X195749228Y-299228095D01*
X197082561Y-298751904D02*
X195082561Y-298085238D01*
X195082561Y-298085238D02*
X197082561Y-297418571D01*
X402917438Y-98000000D02*
X400917438Y-98000000D01*
X402917438Y-98952381D02*
X400917438Y-98952381D01*
X400917438Y-98952381D02*
X402917438Y-100095238D01*
X402917438Y-100095238D02*
X400917438Y-100095238D01*
X402917438Y-102095238D02*
X402917438Y-100952381D01*
X402917438Y-101523809D02*
X400917438Y-101523809D01*
X400917438Y-101523809D02*
X401203152Y-101333333D01*
X401203152Y-101333333D02*
X401393628Y-101142857D01*
X401393628Y-101142857D02*
X401488866Y-100952381D01*
X253917438Y-98052619D02*
X251917438Y-98052619D01*
X251917438Y-98052619D02*
X251917438Y-98528809D01*
X251917438Y-98528809D02*
X252012676Y-98814524D01*
X252012676Y-98814524D02*
X252203152Y-99005000D01*
X252203152Y-99005000D02*
X252393628Y-99100238D01*
X252393628Y-99100238D02*
X252774580Y-99195476D01*
X252774580Y-99195476D02*
X253060295Y-99195476D01*
X253060295Y-99195476D02*
X253441247Y-99100238D01*
X253441247Y-99100238D02*
X253631723Y-99005000D01*
X253631723Y-99005000D02*
X253822200Y-98814524D01*
X253822200Y-98814524D02*
X253917438Y-98528809D01*
X253917438Y-98528809D02*
X253917438Y-98052619D01*
X253917438Y-100052619D02*
X251917438Y-100052619D01*
X253917438Y-102052619D02*
X253917438Y-100909762D01*
X253917438Y-101481190D02*
X251917438Y-101481190D01*
X251917438Y-101481190D02*
X252203152Y-101290714D01*
X252203152Y-101290714D02*
X252393628Y-101100238D01*
X252393628Y-101100238D02*
X252488866Y-100909762D01*
X364892085Y-301700952D02*
X364987323Y-301605714D01*
X364987323Y-301605714D02*
X365082561Y-301415238D01*
X365082561Y-301415238D02*
X365082561Y-300939047D01*
X365082561Y-300939047D02*
X364987323Y-300748571D01*
X364987323Y-300748571D02*
X364892085Y-300653333D01*
X364892085Y-300653333D02*
X364701609Y-300558095D01*
X364701609Y-300558095D02*
X364511133Y-300558095D01*
X364511133Y-300558095D02*
X364225419Y-300653333D01*
X364225419Y-300653333D02*
X363082561Y-301796190D01*
X363082561Y-301796190D02*
X363082561Y-300558095D01*
X364415895Y-298843809D02*
X363082561Y-298843809D01*
X365177800Y-299320000D02*
X363749228Y-299796190D01*
X363749228Y-299796190D02*
X363749228Y-298558095D01*
X365082561Y-298081904D02*
X363082561Y-297415238D01*
X363082561Y-297415238D02*
X365082561Y-296748571D01*
X228072561Y-301942380D02*
X230072561Y-301942380D01*
X230072561Y-301942380D02*
X230072561Y-301466190D01*
X230072561Y-301466190D02*
X229977323Y-301180475D01*
X229977323Y-301180475D02*
X229786847Y-300989999D01*
X229786847Y-300989999D02*
X229596371Y-300894761D01*
X229596371Y-300894761D02*
X229215419Y-300799523D01*
X229215419Y-300799523D02*
X228929704Y-300799523D01*
X228929704Y-300799523D02*
X228548752Y-300894761D01*
X228548752Y-300894761D02*
X228358276Y-300989999D01*
X228358276Y-300989999D02*
X228167800Y-301180475D01*
X228167800Y-301180475D02*
X228072561Y-301466190D01*
X228072561Y-301466190D02*
X228072561Y-301942380D01*
X228072561Y-299942380D02*
X230072561Y-299942380D01*
X229405895Y-298132856D02*
X228072561Y-298132856D01*
X230167800Y-298609047D02*
X228739228Y-299085237D01*
X228739228Y-299085237D02*
X228739228Y-297847142D01*
X401082561Y-301918809D02*
X403082561Y-301918809D01*
X403082561Y-301918809D02*
X403082561Y-301442619D01*
X403082561Y-301442619D02*
X402987323Y-301156904D01*
X402987323Y-301156904D02*
X402796847Y-300966428D01*
X402796847Y-300966428D02*
X402606371Y-300871190D01*
X402606371Y-300871190D02*
X402225419Y-300775952D01*
X402225419Y-300775952D02*
X401939704Y-300775952D01*
X401939704Y-300775952D02*
X401558752Y-300871190D01*
X401558752Y-300871190D02*
X401368276Y-300966428D01*
X401368276Y-300966428D02*
X401177800Y-301156904D01*
X401177800Y-301156904D02*
X401082561Y-301442619D01*
X401082561Y-301442619D02*
X401082561Y-301918809D01*
X403082561Y-299537857D02*
X403082561Y-299156904D01*
X403082561Y-299156904D02*
X402987323Y-298966428D01*
X402987323Y-298966428D02*
X402796847Y-298775952D01*
X402796847Y-298775952D02*
X402415895Y-298680714D01*
X402415895Y-298680714D02*
X401749228Y-298680714D01*
X401749228Y-298680714D02*
X401368276Y-298775952D01*
X401368276Y-298775952D02*
X401177800Y-298966428D01*
X401177800Y-298966428D02*
X401082561Y-299156904D01*
X401082561Y-299156904D02*
X401082561Y-299537857D01*
X401082561Y-299537857D02*
X401177800Y-299728333D01*
X401177800Y-299728333D02*
X401368276Y-299918809D01*
X401368276Y-299918809D02*
X401749228Y-300014047D01*
X401749228Y-300014047D02*
X402415895Y-300014047D01*
X402415895Y-300014047D02*
X402796847Y-299918809D01*
X402796847Y-299918809D02*
X402987323Y-299728333D01*
X402987323Y-299728333D02*
X403082561Y-299537857D01*
X402892085Y-297918809D02*
X402987323Y-297823571D01*
X402987323Y-297823571D02*
X403082561Y-297633095D01*
X403082561Y-297633095D02*
X403082561Y-297156904D01*
X403082561Y-297156904D02*
X402987323Y-296966428D01*
X402987323Y-296966428D02*
X402892085Y-296871190D01*
X402892085Y-296871190D02*
X402701609Y-296775952D01*
X402701609Y-296775952D02*
X402511133Y-296775952D01*
X402511133Y-296775952D02*
X402225419Y-296871190D01*
X402225419Y-296871190D02*
X401082561Y-298014047D01*
X401082561Y-298014047D02*
X401082561Y-296775952D01*
X330917438Y-98000000D02*
X328917438Y-98000000D01*
X330917438Y-98952381D02*
X328917438Y-98952381D01*
X328917438Y-98952381D02*
X330917438Y-100095238D01*
X330917438Y-100095238D02*
X328917438Y-100095238D01*
X328917438Y-100857143D02*
X328917438Y-102095238D01*
X328917438Y-102095238D02*
X329679342Y-101428571D01*
X329679342Y-101428571D02*
X329679342Y-101714286D01*
X329679342Y-101714286D02*
X329774580Y-101904762D01*
X329774580Y-101904762D02*
X329869819Y-102000000D01*
X329869819Y-102000000D02*
X330060295Y-102095238D01*
X330060295Y-102095238D02*
X330536485Y-102095238D01*
X330536485Y-102095238D02*
X330726961Y-102000000D01*
X330726961Y-102000000D02*
X330822200Y-101904762D01*
X330822200Y-101904762D02*
X330917438Y-101714286D01*
X330917438Y-101714286D02*
X330917438Y-101142857D01*
X330917438Y-101142857D02*
X330822200Y-100952381D01*
X330822200Y-100952381D02*
X330726961Y-100857143D01*
X397987323Y-300843809D02*
X398082561Y-301034285D01*
X398082561Y-301034285D02*
X398082561Y-301319999D01*
X398082561Y-301319999D02*
X397987323Y-301605714D01*
X397987323Y-301605714D02*
X397796847Y-301796190D01*
X397796847Y-301796190D02*
X397606371Y-301891428D01*
X397606371Y-301891428D02*
X397225419Y-301986666D01*
X397225419Y-301986666D02*
X396939704Y-301986666D01*
X396939704Y-301986666D02*
X396558752Y-301891428D01*
X396558752Y-301891428D02*
X396368276Y-301796190D01*
X396368276Y-301796190D02*
X396177800Y-301605714D01*
X396177800Y-301605714D02*
X396082561Y-301319999D01*
X396082561Y-301319999D02*
X396082561Y-301129523D01*
X396082561Y-301129523D02*
X396177800Y-300843809D01*
X396177800Y-300843809D02*
X396273038Y-300748571D01*
X396273038Y-300748571D02*
X396939704Y-300748571D01*
X396939704Y-300748571D02*
X396939704Y-301129523D01*
X396082561Y-299891428D02*
X398082561Y-299891428D01*
X398082561Y-299891428D02*
X396082561Y-298748571D01*
X396082561Y-298748571D02*
X398082561Y-298748571D01*
X396082561Y-297796190D02*
X398082561Y-297796190D01*
X398082561Y-297796190D02*
X398082561Y-297320000D01*
X398082561Y-297320000D02*
X397987323Y-297034285D01*
X397987323Y-297034285D02*
X397796847Y-296843809D01*
X397796847Y-296843809D02*
X397606371Y-296748571D01*
X397606371Y-296748571D02*
X397225419Y-296653333D01*
X397225419Y-296653333D02*
X396939704Y-296653333D01*
X396939704Y-296653333D02*
X396558752Y-296748571D01*
X396558752Y-296748571D02*
X396368276Y-296843809D01*
X396368276Y-296843809D02*
X396177800Y-297034285D01*
X396177800Y-297034285D02*
X396082561Y-297320000D01*
X396082561Y-297320000D02*
X396082561Y-297796190D01*
X238082561Y-301952380D02*
X240082561Y-301952380D01*
X240082561Y-301952380D02*
X240082561Y-301476190D01*
X240082561Y-301476190D02*
X239987323Y-301190475D01*
X239987323Y-301190475D02*
X239796847Y-300999999D01*
X239796847Y-300999999D02*
X239606371Y-300904761D01*
X239606371Y-300904761D02*
X239225419Y-300809523D01*
X239225419Y-300809523D02*
X238939704Y-300809523D01*
X238939704Y-300809523D02*
X238558752Y-300904761D01*
X238558752Y-300904761D02*
X238368276Y-300999999D01*
X238368276Y-300999999D02*
X238177800Y-301190475D01*
X238177800Y-301190475D02*
X238082561Y-301476190D01*
X238082561Y-301476190D02*
X238082561Y-301952380D01*
X238082561Y-299952380D02*
X240082561Y-299952380D01*
X239892085Y-299095237D02*
X239987323Y-298999999D01*
X239987323Y-298999999D02*
X240082561Y-298809523D01*
X240082561Y-298809523D02*
X240082561Y-298333332D01*
X240082561Y-298333332D02*
X239987323Y-298142856D01*
X239987323Y-298142856D02*
X239892085Y-298047618D01*
X239892085Y-298047618D02*
X239701609Y-297952380D01*
X239701609Y-297952380D02*
X239511133Y-297952380D01*
X239511133Y-297952380D02*
X239225419Y-298047618D01*
X239225419Y-298047618D02*
X238082561Y-299190475D01*
X238082561Y-299190475D02*
X238082561Y-297952380D01*
X349892085Y-301840952D02*
X349987323Y-301745714D01*
X349987323Y-301745714D02*
X350082561Y-301555238D01*
X350082561Y-301555238D02*
X350082561Y-301079047D01*
X350082561Y-301079047D02*
X349987323Y-300888571D01*
X349987323Y-300888571D02*
X349892085Y-300793333D01*
X349892085Y-300793333D02*
X349701609Y-300698095D01*
X349701609Y-300698095D02*
X349511133Y-300698095D01*
X349511133Y-300698095D02*
X349225419Y-300793333D01*
X349225419Y-300793333D02*
X348082561Y-301936190D01*
X348082561Y-301936190D02*
X348082561Y-300698095D01*
X349415895Y-298983809D02*
X348082561Y-298983809D01*
X350177800Y-299460000D02*
X348749228Y-299936190D01*
X348749228Y-299936190D02*
X348749228Y-298698095D01*
X350082561Y-298221904D02*
X348082561Y-297555238D01*
X348082561Y-297555238D02*
X350082561Y-296888571D01*
X429922438Y-97962618D02*
X429922438Y-98343571D01*
X429922438Y-98343571D02*
X430017676Y-98534047D01*
X430017676Y-98534047D02*
X430208152Y-98724523D01*
X430208152Y-98724523D02*
X430589104Y-98819761D01*
X430589104Y-98819761D02*
X431255771Y-98819761D01*
X431255771Y-98819761D02*
X431636723Y-98724523D01*
X431636723Y-98724523D02*
X431827200Y-98534047D01*
X431827200Y-98534047D02*
X431922438Y-98343571D01*
X431922438Y-98343571D02*
X431922438Y-97962618D01*
X431922438Y-97962618D02*
X431827200Y-97772142D01*
X431827200Y-97772142D02*
X431636723Y-97581666D01*
X431636723Y-97581666D02*
X431255771Y-97486428D01*
X431255771Y-97486428D02*
X430589104Y-97486428D01*
X430589104Y-97486428D02*
X430208152Y-97581666D01*
X430208152Y-97581666D02*
X430017676Y-97772142D01*
X430017676Y-97772142D02*
X429922438Y-97962618D01*
X429922438Y-99676904D02*
X431541485Y-99676904D01*
X431541485Y-99676904D02*
X431731961Y-99772142D01*
X431731961Y-99772142D02*
X431827200Y-99867380D01*
X431827200Y-99867380D02*
X431922438Y-100057856D01*
X431922438Y-100057856D02*
X431922438Y-100438809D01*
X431922438Y-100438809D02*
X431827200Y-100629285D01*
X431827200Y-100629285D02*
X431731961Y-100724523D01*
X431731961Y-100724523D02*
X431541485Y-100819761D01*
X431541485Y-100819761D02*
X429922438Y-100819761D01*
X429922438Y-101486428D02*
X429922438Y-102629285D01*
X431922438Y-102057856D02*
X429922438Y-102057856D01*
X431922438Y-104343571D02*
X431922438Y-103200714D01*
X431922438Y-103772142D02*
X429922438Y-103772142D01*
X429922438Y-103772142D02*
X430208152Y-103581666D01*
X430208152Y-103581666D02*
X430398628Y-103391190D01*
X430398628Y-103391190D02*
X430493866Y-103200714D01*
X420082561Y-301952380D02*
X422082561Y-301952380D01*
X422082561Y-301952380D02*
X422082561Y-301476190D01*
X422082561Y-301476190D02*
X421987323Y-301190475D01*
X421987323Y-301190475D02*
X421796847Y-300999999D01*
X421796847Y-300999999D02*
X421606371Y-300904761D01*
X421606371Y-300904761D02*
X421225419Y-300809523D01*
X421225419Y-300809523D02*
X420939704Y-300809523D01*
X420939704Y-300809523D02*
X420558752Y-300904761D01*
X420558752Y-300904761D02*
X420368276Y-300999999D01*
X420368276Y-300999999D02*
X420177800Y-301190475D01*
X420177800Y-301190475D02*
X420082561Y-301476190D01*
X420082561Y-301476190D02*
X420082561Y-301952380D01*
X420082561Y-299952380D02*
X422082561Y-299952380D01*
X421415895Y-298142856D02*
X420082561Y-298142856D01*
X422177800Y-298619047D02*
X420749228Y-299095237D01*
X420749228Y-299095237D02*
X420749228Y-297857142D01*
X190082561Y-301904999D02*
X192082561Y-301904999D01*
X190082561Y-300952618D02*
X192082561Y-300952618D01*
X192082561Y-300952618D02*
X190082561Y-299809761D01*
X190082561Y-299809761D02*
X192082561Y-299809761D01*
X190082561Y-297809761D02*
X190082561Y-298952618D01*
X190082561Y-298381190D02*
X192082561Y-298381190D01*
X192082561Y-298381190D02*
X191796847Y-298571666D01*
X191796847Y-298571666D02*
X191606371Y-298762142D01*
X191606371Y-298762142D02*
X191511133Y-298952618D01*
X381787561Y-301909999D02*
X383787561Y-301909999D01*
X381787561Y-300957618D02*
X383787561Y-300957618D01*
X383787561Y-300957618D02*
X381787561Y-299814761D01*
X381787561Y-299814761D02*
X383787561Y-299814761D01*
X381787561Y-297814761D02*
X381787561Y-298957618D01*
X381787561Y-298386190D02*
X383787561Y-298386190D01*
X383787561Y-298386190D02*
X383501847Y-298576666D01*
X383501847Y-298576666D02*
X383311371Y-298767142D01*
X383311371Y-298767142D02*
X383216133Y-298957618D01*
X208722561Y-301913809D02*
X210722561Y-301913809D01*
X210722561Y-301913809D02*
X210722561Y-301437619D01*
X210722561Y-301437619D02*
X210627323Y-301151904D01*
X210627323Y-301151904D02*
X210436847Y-300961428D01*
X210436847Y-300961428D02*
X210246371Y-300866190D01*
X210246371Y-300866190D02*
X209865419Y-300770952D01*
X209865419Y-300770952D02*
X209579704Y-300770952D01*
X209579704Y-300770952D02*
X209198752Y-300866190D01*
X209198752Y-300866190D02*
X209008276Y-300961428D01*
X209008276Y-300961428D02*
X208817800Y-301151904D01*
X208817800Y-301151904D02*
X208722561Y-301437619D01*
X208722561Y-301437619D02*
X208722561Y-301913809D01*
X210722561Y-299532857D02*
X210722561Y-299151904D01*
X210722561Y-299151904D02*
X210627323Y-298961428D01*
X210627323Y-298961428D02*
X210436847Y-298770952D01*
X210436847Y-298770952D02*
X210055895Y-298675714D01*
X210055895Y-298675714D02*
X209389228Y-298675714D01*
X209389228Y-298675714D02*
X209008276Y-298770952D01*
X209008276Y-298770952D02*
X208817800Y-298961428D01*
X208817800Y-298961428D02*
X208722561Y-299151904D01*
X208722561Y-299151904D02*
X208722561Y-299532857D01*
X208722561Y-299532857D02*
X208817800Y-299723333D01*
X208817800Y-299723333D02*
X209008276Y-299913809D01*
X209008276Y-299913809D02*
X209389228Y-300009047D01*
X209389228Y-300009047D02*
X210055895Y-300009047D01*
X210055895Y-300009047D02*
X210436847Y-299913809D01*
X210436847Y-299913809D02*
X210627323Y-299723333D01*
X210627323Y-299723333D02*
X210722561Y-299532857D01*
X210532085Y-297913809D02*
X210627323Y-297818571D01*
X210627323Y-297818571D02*
X210722561Y-297628095D01*
X210722561Y-297628095D02*
X210722561Y-297151904D01*
X210722561Y-297151904D02*
X210627323Y-296961428D01*
X210627323Y-296961428D02*
X210532085Y-296866190D01*
X210532085Y-296866190D02*
X210341609Y-296770952D01*
X210341609Y-296770952D02*
X210151133Y-296770952D01*
X210151133Y-296770952D02*
X209865419Y-296866190D01*
X209865419Y-296866190D02*
X208722561Y-298009047D01*
X208722561Y-298009047D02*
X208722561Y-296770952D01*
D11*
X171754438Y-189747142D02*
X173754438Y-190413808D01*
X173754438Y-190413808D02*
X171754438Y-191080475D01*
X171754438Y-192128094D02*
X171754438Y-192509047D01*
X171754438Y-192509047D02*
X171849676Y-192699523D01*
X171849676Y-192699523D02*
X172040152Y-192889999D01*
X172040152Y-192889999D02*
X172421104Y-192985237D01*
X172421104Y-192985237D02*
X173087771Y-192985237D01*
X173087771Y-192985237D02*
X173468723Y-192889999D01*
X173468723Y-192889999D02*
X173659200Y-192699523D01*
X173659200Y-192699523D02*
X173754438Y-192509047D01*
X173754438Y-192509047D02*
X173754438Y-192128094D01*
X173754438Y-192128094D02*
X173659200Y-191937618D01*
X173659200Y-191937618D02*
X173468723Y-191747142D01*
X173468723Y-191747142D02*
X173087771Y-191651904D01*
X173087771Y-191651904D02*
X172421104Y-191651904D01*
X172421104Y-191651904D02*
X172040152Y-191747142D01*
X172040152Y-191747142D02*
X171849676Y-191937618D01*
X171849676Y-191937618D02*
X171754438Y-192128094D01*
X173754438Y-194794761D02*
X173754438Y-193842380D01*
X173754438Y-193842380D02*
X171754438Y-193842380D01*
X171754438Y-195175714D02*
X171754438Y-196318571D01*
X173754438Y-195747142D02*
X171754438Y-195747142D01*
X173183009Y-196890000D02*
X173183009Y-197842381D01*
X173754438Y-196699524D02*
X171754438Y-197366190D01*
X171754438Y-197366190D02*
X173754438Y-198032857D01*
X171849676Y-199747143D02*
X171754438Y-199556667D01*
X171754438Y-199556667D02*
X171754438Y-199270953D01*
X171754438Y-199270953D02*
X171849676Y-198985238D01*
X171849676Y-198985238D02*
X172040152Y-198794762D01*
X172040152Y-198794762D02*
X172230628Y-198699524D01*
X172230628Y-198699524D02*
X172611580Y-198604286D01*
X172611580Y-198604286D02*
X172897295Y-198604286D01*
X172897295Y-198604286D02*
X173278247Y-198699524D01*
X173278247Y-198699524D02*
X173468723Y-198794762D01*
X173468723Y-198794762D02*
X173659200Y-198985238D01*
X173659200Y-198985238D02*
X173754438Y-199270953D01*
X173754438Y-199270953D02*
X173754438Y-199461429D01*
X173754438Y-199461429D02*
X173659200Y-199747143D01*
X173659200Y-199747143D02*
X173563961Y-199842381D01*
X173563961Y-199842381D02*
X172897295Y-199842381D01*
X172897295Y-199842381D02*
X172897295Y-199461429D01*
X172706819Y-200699524D02*
X172706819Y-201366191D01*
X173754438Y-201651905D02*
X173754438Y-200699524D01*
X173754438Y-200699524D02*
X171754438Y-200699524D01*
X171754438Y-200699524D02*
X171754438Y-201651905D01*
X173754438Y-204032858D02*
X171754438Y-204032858D01*
X173754438Y-204985239D02*
X171754438Y-204985239D01*
X171754438Y-204985239D02*
X173754438Y-206128096D01*
X173754438Y-206128096D02*
X171754438Y-206128096D01*
X173754438Y-207080477D02*
X171754438Y-207080477D01*
X171754438Y-207080477D02*
X171754438Y-207842382D01*
X171754438Y-207842382D02*
X171849676Y-208032858D01*
X171849676Y-208032858D02*
X171944914Y-208128096D01*
X171944914Y-208128096D02*
X172135390Y-208223334D01*
X172135390Y-208223334D02*
X172421104Y-208223334D01*
X172421104Y-208223334D02*
X172611580Y-208128096D01*
X172611580Y-208128096D02*
X172706819Y-208032858D01*
X172706819Y-208032858D02*
X172802057Y-207842382D01*
X172802057Y-207842382D02*
X172802057Y-207080477D01*
X171754438Y-209080477D02*
X173373485Y-209080477D01*
X173373485Y-209080477D02*
X173563961Y-209175715D01*
X173563961Y-209175715D02*
X173659200Y-209270953D01*
X173659200Y-209270953D02*
X173754438Y-209461429D01*
X173754438Y-209461429D02*
X173754438Y-209842382D01*
X173754438Y-209842382D02*
X173659200Y-210032858D01*
X173659200Y-210032858D02*
X173563961Y-210128096D01*
X173563961Y-210128096D02*
X173373485Y-210223334D01*
X173373485Y-210223334D02*
X171754438Y-210223334D01*
X171754438Y-210890001D02*
X171754438Y-212032858D01*
X173754438Y-211461429D02*
X171754438Y-211461429D01*
D10*
X219082561Y-301913809D02*
X221082561Y-301913809D01*
X221082561Y-301913809D02*
X221082561Y-301437619D01*
X221082561Y-301437619D02*
X220987323Y-301151904D01*
X220987323Y-301151904D02*
X220796847Y-300961428D01*
X220796847Y-300961428D02*
X220606371Y-300866190D01*
X220606371Y-300866190D02*
X220225419Y-300770952D01*
X220225419Y-300770952D02*
X219939704Y-300770952D01*
X219939704Y-300770952D02*
X219558752Y-300866190D01*
X219558752Y-300866190D02*
X219368276Y-300961428D01*
X219368276Y-300961428D02*
X219177800Y-301151904D01*
X219177800Y-301151904D02*
X219082561Y-301437619D01*
X219082561Y-301437619D02*
X219082561Y-301913809D01*
X221082561Y-299532857D02*
X221082561Y-299151904D01*
X221082561Y-299151904D02*
X220987323Y-298961428D01*
X220987323Y-298961428D02*
X220796847Y-298770952D01*
X220796847Y-298770952D02*
X220415895Y-298675714D01*
X220415895Y-298675714D02*
X219749228Y-298675714D01*
X219749228Y-298675714D02*
X219368276Y-298770952D01*
X219368276Y-298770952D02*
X219177800Y-298961428D01*
X219177800Y-298961428D02*
X219082561Y-299151904D01*
X219082561Y-299151904D02*
X219082561Y-299532857D01*
X219082561Y-299532857D02*
X219177800Y-299723333D01*
X219177800Y-299723333D02*
X219368276Y-299913809D01*
X219368276Y-299913809D02*
X219749228Y-300009047D01*
X219749228Y-300009047D02*
X220415895Y-300009047D01*
X220415895Y-300009047D02*
X220796847Y-299913809D01*
X220796847Y-299913809D02*
X220987323Y-299723333D01*
X220987323Y-299723333D02*
X221082561Y-299532857D01*
X219082561Y-296770952D02*
X219082561Y-297913809D01*
X219082561Y-297342381D02*
X221082561Y-297342381D01*
X221082561Y-297342381D02*
X220796847Y-297532857D01*
X220796847Y-297532857D02*
X220606371Y-297723333D01*
X220606371Y-297723333D02*
X220511133Y-297913809D01*
X263917438Y-98047619D02*
X261917438Y-98047619D01*
X261917438Y-98047619D02*
X261917438Y-98523809D01*
X261917438Y-98523809D02*
X262012676Y-98809524D01*
X262012676Y-98809524D02*
X262203152Y-99000000D01*
X262203152Y-99000000D02*
X262393628Y-99095238D01*
X262393628Y-99095238D02*
X262774580Y-99190476D01*
X262774580Y-99190476D02*
X263060295Y-99190476D01*
X263060295Y-99190476D02*
X263441247Y-99095238D01*
X263441247Y-99095238D02*
X263631723Y-99000000D01*
X263631723Y-99000000D02*
X263822200Y-98809524D01*
X263822200Y-98809524D02*
X263917438Y-98523809D01*
X263917438Y-98523809D02*
X263917438Y-98047619D01*
X263917438Y-100047619D02*
X261917438Y-100047619D01*
X261917438Y-100809524D02*
X261917438Y-102047619D01*
X261917438Y-102047619D02*
X262679342Y-101380952D01*
X262679342Y-101380952D02*
X262679342Y-101666667D01*
X262679342Y-101666667D02*
X262774580Y-101857143D01*
X262774580Y-101857143D02*
X262869819Y-101952381D01*
X262869819Y-101952381D02*
X263060295Y-102047619D01*
X263060295Y-102047619D02*
X263536485Y-102047619D01*
X263536485Y-102047619D02*
X263726961Y-101952381D01*
X263726961Y-101952381D02*
X263822200Y-101857143D01*
X263822200Y-101857143D02*
X263917438Y-101666667D01*
X263917438Y-101666667D02*
X263917438Y-101095238D01*
X263917438Y-101095238D02*
X263822200Y-100904762D01*
X263822200Y-100904762D02*
X263726961Y-100809524D01*
X157887085Y-301835952D02*
X157982323Y-301740714D01*
X157982323Y-301740714D02*
X158077561Y-301550238D01*
X158077561Y-301550238D02*
X158077561Y-301074047D01*
X158077561Y-301074047D02*
X157982323Y-300883571D01*
X157982323Y-300883571D02*
X157887085Y-300788333D01*
X157887085Y-300788333D02*
X157696609Y-300693095D01*
X157696609Y-300693095D02*
X157506133Y-300693095D01*
X157506133Y-300693095D02*
X157220419Y-300788333D01*
X157220419Y-300788333D02*
X156077561Y-301931190D01*
X156077561Y-301931190D02*
X156077561Y-300693095D01*
X157410895Y-298978809D02*
X156077561Y-298978809D01*
X158172800Y-299455000D02*
X156744228Y-299931190D01*
X156744228Y-299931190D02*
X156744228Y-298693095D01*
X158077561Y-298216904D02*
X156077561Y-297550238D01*
X156077561Y-297550238D02*
X158077561Y-296883571D01*
X373917438Y-97501190D02*
X371917438Y-97501190D01*
X371917438Y-97501190D02*
X371917438Y-97977380D01*
X371917438Y-97977380D02*
X372012676Y-98263095D01*
X372012676Y-98263095D02*
X372203152Y-98453571D01*
X372203152Y-98453571D02*
X372393628Y-98548809D01*
X372393628Y-98548809D02*
X372774580Y-98644047D01*
X372774580Y-98644047D02*
X373060295Y-98644047D01*
X373060295Y-98644047D02*
X373441247Y-98548809D01*
X373441247Y-98548809D02*
X373631723Y-98453571D01*
X373631723Y-98453571D02*
X373822200Y-98263095D01*
X373822200Y-98263095D02*
X373917438Y-97977380D01*
X373917438Y-97977380D02*
X373917438Y-97501190D01*
X371917438Y-99882142D02*
X371917438Y-100263095D01*
X371917438Y-100263095D02*
X372012676Y-100453571D01*
X372012676Y-100453571D02*
X372203152Y-100644047D01*
X372203152Y-100644047D02*
X372584104Y-100739285D01*
X372584104Y-100739285D02*
X373250771Y-100739285D01*
X373250771Y-100739285D02*
X373631723Y-100644047D01*
X373631723Y-100644047D02*
X373822200Y-100453571D01*
X373822200Y-100453571D02*
X373917438Y-100263095D01*
X373917438Y-100263095D02*
X373917438Y-99882142D01*
X373917438Y-99882142D02*
X373822200Y-99691666D01*
X373822200Y-99691666D02*
X373631723Y-99501190D01*
X373631723Y-99501190D02*
X373250771Y-99405952D01*
X373250771Y-99405952D02*
X372584104Y-99405952D01*
X372584104Y-99405952D02*
X372203152Y-99501190D01*
X372203152Y-99501190D02*
X372012676Y-99691666D01*
X372012676Y-99691666D02*
X371917438Y-99882142D01*
X373917438Y-102644047D02*
X373917438Y-101501190D01*
X373917438Y-102072618D02*
X371917438Y-102072618D01*
X371917438Y-102072618D02*
X372203152Y-101882142D01*
X372203152Y-101882142D02*
X372393628Y-101691666D01*
X372393628Y-101691666D02*
X372488866Y-101501190D01*
X162927438Y-98047619D02*
X160927438Y-98047619D01*
X160927438Y-98047619D02*
X160927438Y-98523809D01*
X160927438Y-98523809D02*
X161022676Y-98809524D01*
X161022676Y-98809524D02*
X161213152Y-99000000D01*
X161213152Y-99000000D02*
X161403628Y-99095238D01*
X161403628Y-99095238D02*
X161784580Y-99190476D01*
X161784580Y-99190476D02*
X162070295Y-99190476D01*
X162070295Y-99190476D02*
X162451247Y-99095238D01*
X162451247Y-99095238D02*
X162641723Y-99000000D01*
X162641723Y-99000000D02*
X162832200Y-98809524D01*
X162832200Y-98809524D02*
X162927438Y-98523809D01*
X162927438Y-98523809D02*
X162927438Y-98047619D01*
X162927438Y-100047619D02*
X160927438Y-100047619D01*
X161117914Y-100904762D02*
X161022676Y-101000000D01*
X161022676Y-101000000D02*
X160927438Y-101190476D01*
X160927438Y-101190476D02*
X160927438Y-101666667D01*
X160927438Y-101666667D02*
X161022676Y-101857143D01*
X161022676Y-101857143D02*
X161117914Y-101952381D01*
X161117914Y-101952381D02*
X161308390Y-102047619D01*
X161308390Y-102047619D02*
X161498866Y-102047619D01*
X161498866Y-102047619D02*
X161784580Y-101952381D01*
X161784580Y-101952381D02*
X162927438Y-100809524D01*
X162927438Y-100809524D02*
X162927438Y-102047619D01*
X430072561Y-301952380D02*
X432072561Y-301952380D01*
X432072561Y-301952380D02*
X432072561Y-301476190D01*
X432072561Y-301476190D02*
X431977323Y-301190475D01*
X431977323Y-301190475D02*
X431786847Y-300999999D01*
X431786847Y-300999999D02*
X431596371Y-300904761D01*
X431596371Y-300904761D02*
X431215419Y-300809523D01*
X431215419Y-300809523D02*
X430929704Y-300809523D01*
X430929704Y-300809523D02*
X430548752Y-300904761D01*
X430548752Y-300904761D02*
X430358276Y-300999999D01*
X430358276Y-300999999D02*
X430167800Y-301190475D01*
X430167800Y-301190475D02*
X430072561Y-301476190D01*
X430072561Y-301476190D02*
X430072561Y-301952380D01*
X430072561Y-299952380D02*
X432072561Y-299952380D01*
X431882085Y-299095237D02*
X431977323Y-298999999D01*
X431977323Y-298999999D02*
X432072561Y-298809523D01*
X432072561Y-298809523D02*
X432072561Y-298333332D01*
X432072561Y-298333332D02*
X431977323Y-298142856D01*
X431977323Y-298142856D02*
X431882085Y-298047618D01*
X431882085Y-298047618D02*
X431691609Y-297952380D01*
X431691609Y-297952380D02*
X431501133Y-297952380D01*
X431501133Y-297952380D02*
X431215419Y-298047618D01*
X431215419Y-298047618D02*
X430072561Y-299190475D01*
X430072561Y-299190475D02*
X430072561Y-297952380D01*
X407987323Y-300868809D02*
X408082561Y-301059285D01*
X408082561Y-301059285D02*
X408082561Y-301344999D01*
X408082561Y-301344999D02*
X407987323Y-301630714D01*
X407987323Y-301630714D02*
X407796847Y-301821190D01*
X407796847Y-301821190D02*
X407606371Y-301916428D01*
X407606371Y-301916428D02*
X407225419Y-302011666D01*
X407225419Y-302011666D02*
X406939704Y-302011666D01*
X406939704Y-302011666D02*
X406558752Y-301916428D01*
X406558752Y-301916428D02*
X406368276Y-301821190D01*
X406368276Y-301821190D02*
X406177800Y-301630714D01*
X406177800Y-301630714D02*
X406082561Y-301344999D01*
X406082561Y-301344999D02*
X406082561Y-301154523D01*
X406082561Y-301154523D02*
X406177800Y-300868809D01*
X406177800Y-300868809D02*
X406273038Y-300773571D01*
X406273038Y-300773571D02*
X406939704Y-300773571D01*
X406939704Y-300773571D02*
X406939704Y-301154523D01*
X406082561Y-299916428D02*
X408082561Y-299916428D01*
X408082561Y-299916428D02*
X406082561Y-298773571D01*
X406082561Y-298773571D02*
X408082561Y-298773571D01*
X406082561Y-297821190D02*
X408082561Y-297821190D01*
X408082561Y-297821190D02*
X408082561Y-297345000D01*
X408082561Y-297345000D02*
X407987323Y-297059285D01*
X407987323Y-297059285D02*
X407796847Y-296868809D01*
X407796847Y-296868809D02*
X407606371Y-296773571D01*
X407606371Y-296773571D02*
X407225419Y-296678333D01*
X407225419Y-296678333D02*
X406939704Y-296678333D01*
X406939704Y-296678333D02*
X406558752Y-296773571D01*
X406558752Y-296773571D02*
X406368276Y-296868809D01*
X406368276Y-296868809D02*
X406177800Y-297059285D01*
X406177800Y-297059285D02*
X406082561Y-297345000D01*
X406082561Y-297345000D02*
X406082561Y-297821190D01*
X281012676Y-99476190D02*
X280917438Y-99285714D01*
X280917438Y-99285714D02*
X280917438Y-99000000D01*
X280917438Y-99000000D02*
X281012676Y-98714285D01*
X281012676Y-98714285D02*
X281203152Y-98523809D01*
X281203152Y-98523809D02*
X281393628Y-98428571D01*
X281393628Y-98428571D02*
X281774580Y-98333333D01*
X281774580Y-98333333D02*
X282060295Y-98333333D01*
X282060295Y-98333333D02*
X282441247Y-98428571D01*
X282441247Y-98428571D02*
X282631723Y-98523809D01*
X282631723Y-98523809D02*
X282822200Y-98714285D01*
X282822200Y-98714285D02*
X282917438Y-99000000D01*
X282917438Y-99000000D02*
X282917438Y-99190476D01*
X282917438Y-99190476D02*
X282822200Y-99476190D01*
X282822200Y-99476190D02*
X282726961Y-99571428D01*
X282726961Y-99571428D02*
X282060295Y-99571428D01*
X282060295Y-99571428D02*
X282060295Y-99190476D01*
X282917438Y-100428571D02*
X280917438Y-100428571D01*
X280917438Y-100428571D02*
X282917438Y-101571428D01*
X282917438Y-101571428D02*
X280917438Y-101571428D01*
X282917438Y-102523809D02*
X280917438Y-102523809D01*
X280917438Y-102523809D02*
X280917438Y-102999999D01*
X280917438Y-102999999D02*
X281012676Y-103285714D01*
X281012676Y-103285714D02*
X281203152Y-103476190D01*
X281203152Y-103476190D02*
X281393628Y-103571428D01*
X281393628Y-103571428D02*
X281774580Y-103666666D01*
X281774580Y-103666666D02*
X282060295Y-103666666D01*
X282060295Y-103666666D02*
X282441247Y-103571428D01*
X282441247Y-103571428D02*
X282631723Y-103476190D01*
X282631723Y-103476190D02*
X282822200Y-103285714D01*
X282822200Y-103285714D02*
X282917438Y-102999999D01*
X282917438Y-102999999D02*
X282917438Y-102523809D01*
X315082561Y-301923809D02*
X317082561Y-301923809D01*
X317082561Y-301923809D02*
X317082561Y-301447619D01*
X317082561Y-301447619D02*
X316987323Y-301161904D01*
X316987323Y-301161904D02*
X316796847Y-300971428D01*
X316796847Y-300971428D02*
X316606371Y-300876190D01*
X316606371Y-300876190D02*
X316225419Y-300780952D01*
X316225419Y-300780952D02*
X315939704Y-300780952D01*
X315939704Y-300780952D02*
X315558752Y-300876190D01*
X315558752Y-300876190D02*
X315368276Y-300971428D01*
X315368276Y-300971428D02*
X315177800Y-301161904D01*
X315177800Y-301161904D02*
X315082561Y-301447619D01*
X315082561Y-301447619D02*
X315082561Y-301923809D01*
X317082561Y-299542857D02*
X317082561Y-299161904D01*
X317082561Y-299161904D02*
X316987323Y-298971428D01*
X316987323Y-298971428D02*
X316796847Y-298780952D01*
X316796847Y-298780952D02*
X316415895Y-298685714D01*
X316415895Y-298685714D02*
X315749228Y-298685714D01*
X315749228Y-298685714D02*
X315368276Y-298780952D01*
X315368276Y-298780952D02*
X315177800Y-298971428D01*
X315177800Y-298971428D02*
X315082561Y-299161904D01*
X315082561Y-299161904D02*
X315082561Y-299542857D01*
X315082561Y-299542857D02*
X315177800Y-299733333D01*
X315177800Y-299733333D02*
X315368276Y-299923809D01*
X315368276Y-299923809D02*
X315749228Y-300019047D01*
X315749228Y-300019047D02*
X316415895Y-300019047D01*
X316415895Y-300019047D02*
X316796847Y-299923809D01*
X316796847Y-299923809D02*
X316987323Y-299733333D01*
X316987323Y-299733333D02*
X317082561Y-299542857D01*
X315082561Y-296780952D02*
X315082561Y-297923809D01*
X315082561Y-297352381D02*
X317082561Y-297352381D01*
X317082561Y-297352381D02*
X316796847Y-297542857D01*
X316796847Y-297542857D02*
X316606371Y-297733333D01*
X316606371Y-297733333D02*
X316511133Y-297923809D01*
X268917438Y-98047619D02*
X266917438Y-98047619D01*
X266917438Y-98047619D02*
X266917438Y-98523809D01*
X266917438Y-98523809D02*
X267012676Y-98809524D01*
X267012676Y-98809524D02*
X267203152Y-99000000D01*
X267203152Y-99000000D02*
X267393628Y-99095238D01*
X267393628Y-99095238D02*
X267774580Y-99190476D01*
X267774580Y-99190476D02*
X268060295Y-99190476D01*
X268060295Y-99190476D02*
X268441247Y-99095238D01*
X268441247Y-99095238D02*
X268631723Y-99000000D01*
X268631723Y-99000000D02*
X268822200Y-98809524D01*
X268822200Y-98809524D02*
X268917438Y-98523809D01*
X268917438Y-98523809D02*
X268917438Y-98047619D01*
X268917438Y-100047619D02*
X266917438Y-100047619D01*
X267584104Y-101857143D02*
X268917438Y-101857143D01*
X266822200Y-101380952D02*
X268250771Y-100904762D01*
X268250771Y-100904762D02*
X268250771Y-102142857D01*
X204107914Y-97679047D02*
X204012676Y-97774285D01*
X204012676Y-97774285D02*
X203917438Y-97964761D01*
X203917438Y-97964761D02*
X203917438Y-98440952D01*
X203917438Y-98440952D02*
X204012676Y-98631428D01*
X204012676Y-98631428D02*
X204107914Y-98726666D01*
X204107914Y-98726666D02*
X204298390Y-98821904D01*
X204298390Y-98821904D02*
X204488866Y-98821904D01*
X204488866Y-98821904D02*
X204774580Y-98726666D01*
X204774580Y-98726666D02*
X205917438Y-97583809D01*
X205917438Y-97583809D02*
X205917438Y-98821904D01*
X204584104Y-100536190D02*
X205917438Y-100536190D01*
X203822200Y-100059999D02*
X205250771Y-99583809D01*
X205250771Y-99583809D02*
X205250771Y-100821904D01*
X203917438Y-101298095D02*
X205917438Y-101964761D01*
X205917438Y-101964761D02*
X203917438Y-102631428D01*
X262082561Y-301999999D02*
X264082561Y-301999999D01*
X262082561Y-301047618D02*
X264082561Y-301047618D01*
X264082561Y-301047618D02*
X262082561Y-299904761D01*
X262082561Y-299904761D02*
X264082561Y-299904761D01*
X264082561Y-299142856D02*
X264082561Y-297904761D01*
X264082561Y-297904761D02*
X263320657Y-298571428D01*
X263320657Y-298571428D02*
X263320657Y-298285713D01*
X263320657Y-298285713D02*
X263225419Y-298095237D01*
X263225419Y-298095237D02*
X263130180Y-297999999D01*
X263130180Y-297999999D02*
X262939704Y-297904761D01*
X262939704Y-297904761D02*
X262463514Y-297904761D01*
X262463514Y-297904761D02*
X262273038Y-297999999D01*
X262273038Y-297999999D02*
X262177800Y-298095237D01*
X262177800Y-298095237D02*
X262082561Y-298285713D01*
X262082561Y-298285713D02*
X262082561Y-298857142D01*
X262082561Y-298857142D02*
X262177800Y-299047618D01*
X262177800Y-299047618D02*
X262273038Y-299142856D01*
X324072561Y-301927380D02*
X326072561Y-301927380D01*
X326072561Y-301927380D02*
X326072561Y-301451190D01*
X326072561Y-301451190D02*
X325977323Y-301165475D01*
X325977323Y-301165475D02*
X325786847Y-300974999D01*
X325786847Y-300974999D02*
X325596371Y-300879761D01*
X325596371Y-300879761D02*
X325215419Y-300784523D01*
X325215419Y-300784523D02*
X324929704Y-300784523D01*
X324929704Y-300784523D02*
X324548752Y-300879761D01*
X324548752Y-300879761D02*
X324358276Y-300974999D01*
X324358276Y-300974999D02*
X324167800Y-301165475D01*
X324167800Y-301165475D02*
X324072561Y-301451190D01*
X324072561Y-301451190D02*
X324072561Y-301927380D01*
X324072561Y-299927380D02*
X326072561Y-299927380D01*
X325405895Y-298117856D02*
X324072561Y-298117856D01*
X326167800Y-298594047D02*
X324739228Y-299070237D01*
X324739228Y-299070237D02*
X324739228Y-297832142D01*
X424713571Y-202287200D02*
X424427857Y-202382438D01*
X424427857Y-202382438D02*
X423951666Y-202382438D01*
X423951666Y-202382438D02*
X423761190Y-202287200D01*
X423761190Y-202287200D02*
X423665952Y-202191961D01*
X423665952Y-202191961D02*
X423570714Y-202001485D01*
X423570714Y-202001485D02*
X423570714Y-201811009D01*
X423570714Y-201811009D02*
X423665952Y-201620533D01*
X423665952Y-201620533D02*
X423761190Y-201525295D01*
X423761190Y-201525295D02*
X423951666Y-201430057D01*
X423951666Y-201430057D02*
X424332619Y-201334819D01*
X424332619Y-201334819D02*
X424523095Y-201239580D01*
X424523095Y-201239580D02*
X424618333Y-201144342D01*
X424618333Y-201144342D02*
X424713571Y-200953866D01*
X424713571Y-200953866D02*
X424713571Y-200763390D01*
X424713571Y-200763390D02*
X424618333Y-200572914D01*
X424618333Y-200572914D02*
X424523095Y-200477676D01*
X424523095Y-200477676D02*
X424332619Y-200382438D01*
X424332619Y-200382438D02*
X423856428Y-200382438D01*
X423856428Y-200382438D02*
X423570714Y-200477676D01*
X422713571Y-202382438D02*
X422713571Y-200382438D01*
X422713571Y-200382438D02*
X422237381Y-200382438D01*
X422237381Y-200382438D02*
X421951666Y-200477676D01*
X421951666Y-200477676D02*
X421761190Y-200668152D01*
X421761190Y-200668152D02*
X421665952Y-200858628D01*
X421665952Y-200858628D02*
X421570714Y-201239580D01*
X421570714Y-201239580D02*
X421570714Y-201525295D01*
X421570714Y-201525295D02*
X421665952Y-201906247D01*
X421665952Y-201906247D02*
X421761190Y-202096723D01*
X421761190Y-202096723D02*
X421951666Y-202287200D01*
X421951666Y-202287200D02*
X422237381Y-202382438D01*
X422237381Y-202382438D02*
X422713571Y-202382438D01*
X420808809Y-201811009D02*
X419856428Y-201811009D01*
X420999285Y-202382438D02*
X420332619Y-200382438D01*
X420332619Y-200382438D02*
X419665952Y-202382438D01*
X172882085Y-302375952D02*
X172977323Y-302280714D01*
X172977323Y-302280714D02*
X173072561Y-302090238D01*
X173072561Y-302090238D02*
X173072561Y-301614047D01*
X173072561Y-301614047D02*
X172977323Y-301423571D01*
X172977323Y-301423571D02*
X172882085Y-301328333D01*
X172882085Y-301328333D02*
X172691609Y-301233095D01*
X172691609Y-301233095D02*
X172501133Y-301233095D01*
X172501133Y-301233095D02*
X172215419Y-301328333D01*
X172215419Y-301328333D02*
X171072561Y-302471190D01*
X171072561Y-302471190D02*
X171072561Y-301233095D01*
X172405895Y-299518809D02*
X171072561Y-299518809D01*
X173167800Y-299995000D02*
X171739228Y-300471190D01*
X171739228Y-300471190D02*
X171739228Y-299233095D01*
X173072561Y-298756904D02*
X171072561Y-298090238D01*
X171072561Y-298090238D02*
X173072561Y-297423571D01*
X258927438Y-98047619D02*
X256927438Y-98047619D01*
X256927438Y-98047619D02*
X256927438Y-98523809D01*
X256927438Y-98523809D02*
X257022676Y-98809524D01*
X257022676Y-98809524D02*
X257213152Y-99000000D01*
X257213152Y-99000000D02*
X257403628Y-99095238D01*
X257403628Y-99095238D02*
X257784580Y-99190476D01*
X257784580Y-99190476D02*
X258070295Y-99190476D01*
X258070295Y-99190476D02*
X258451247Y-99095238D01*
X258451247Y-99095238D02*
X258641723Y-99000000D01*
X258641723Y-99000000D02*
X258832200Y-98809524D01*
X258832200Y-98809524D02*
X258927438Y-98523809D01*
X258927438Y-98523809D02*
X258927438Y-98047619D01*
X258927438Y-100047619D02*
X256927438Y-100047619D01*
X257117914Y-100904762D02*
X257022676Y-101000000D01*
X257022676Y-101000000D02*
X256927438Y-101190476D01*
X256927438Y-101190476D02*
X256927438Y-101666667D01*
X256927438Y-101666667D02*
X257022676Y-101857143D01*
X257022676Y-101857143D02*
X257117914Y-101952381D01*
X257117914Y-101952381D02*
X257308390Y-102047619D01*
X257308390Y-102047619D02*
X257498866Y-102047619D01*
X257498866Y-102047619D02*
X257784580Y-101952381D01*
X257784580Y-101952381D02*
X258927438Y-100809524D01*
X258927438Y-100809524D02*
X258927438Y-102047619D01*
X316917438Y-98000000D02*
X314917438Y-98000000D01*
X316917438Y-98952381D02*
X314917438Y-98952381D01*
X314917438Y-98952381D02*
X316917438Y-100095238D01*
X316917438Y-100095238D02*
X314917438Y-100095238D01*
X315107914Y-100952381D02*
X315012676Y-101047619D01*
X315012676Y-101047619D02*
X314917438Y-101238095D01*
X314917438Y-101238095D02*
X314917438Y-101714286D01*
X314917438Y-101714286D02*
X315012676Y-101904762D01*
X315012676Y-101904762D02*
X315107914Y-102000000D01*
X315107914Y-102000000D02*
X315298390Y-102095238D01*
X315298390Y-102095238D02*
X315488866Y-102095238D01*
X315488866Y-102095238D02*
X315774580Y-102000000D01*
X315774580Y-102000000D02*
X316917438Y-100857143D01*
X316917438Y-100857143D02*
X316917438Y-102095238D01*
X425077561Y-301942380D02*
X427077561Y-301942380D01*
X427077561Y-301942380D02*
X427077561Y-301466190D01*
X427077561Y-301466190D02*
X426982323Y-301180475D01*
X426982323Y-301180475D02*
X426791847Y-300989999D01*
X426791847Y-300989999D02*
X426601371Y-300894761D01*
X426601371Y-300894761D02*
X426220419Y-300799523D01*
X426220419Y-300799523D02*
X425934704Y-300799523D01*
X425934704Y-300799523D02*
X425553752Y-300894761D01*
X425553752Y-300894761D02*
X425363276Y-300989999D01*
X425363276Y-300989999D02*
X425172800Y-301180475D01*
X425172800Y-301180475D02*
X425077561Y-301466190D01*
X425077561Y-301466190D02*
X425077561Y-301942380D01*
X425077561Y-299942380D02*
X427077561Y-299942380D01*
X427077561Y-299180475D02*
X427077561Y-297942380D01*
X427077561Y-297942380D02*
X426315657Y-298609047D01*
X426315657Y-298609047D02*
X426315657Y-298323332D01*
X426315657Y-298323332D02*
X426220419Y-298132856D01*
X426220419Y-298132856D02*
X426125180Y-298037618D01*
X426125180Y-298037618D02*
X425934704Y-297942380D01*
X425934704Y-297942380D02*
X425458514Y-297942380D01*
X425458514Y-297942380D02*
X425268038Y-298037618D01*
X425268038Y-298037618D02*
X425172800Y-298132856D01*
X425172800Y-298132856D02*
X425077561Y-298323332D01*
X425077561Y-298323332D02*
X425077561Y-298894761D01*
X425077561Y-298894761D02*
X425172800Y-299085237D01*
X425172800Y-299085237D02*
X425268038Y-299180475D01*
X372082561Y-301909999D02*
X374082561Y-301909999D01*
X372082561Y-300957618D02*
X374082561Y-300957618D01*
X374082561Y-300957618D02*
X372082561Y-299814761D01*
X372082561Y-299814761D02*
X374082561Y-299814761D01*
X373892085Y-298957618D02*
X373987323Y-298862380D01*
X373987323Y-298862380D02*
X374082561Y-298671904D01*
X374082561Y-298671904D02*
X374082561Y-298195713D01*
X374082561Y-298195713D02*
X373987323Y-298005237D01*
X373987323Y-298005237D02*
X373892085Y-297909999D01*
X373892085Y-297909999D02*
X373701609Y-297814761D01*
X373701609Y-297814761D02*
X373511133Y-297814761D01*
X373511133Y-297814761D02*
X373225419Y-297909999D01*
X373225419Y-297909999D02*
X372082561Y-299052856D01*
X372082561Y-299052856D02*
X372082561Y-297814761D01*
X259077561Y-301952381D02*
X259077561Y-301571428D01*
X259077561Y-301571428D02*
X258982323Y-301380952D01*
X258982323Y-301380952D02*
X258791847Y-301190476D01*
X258791847Y-301190476D02*
X258410895Y-301095238D01*
X258410895Y-301095238D02*
X257744228Y-301095238D01*
X257744228Y-301095238D02*
X257363276Y-301190476D01*
X257363276Y-301190476D02*
X257172800Y-301380952D01*
X257172800Y-301380952D02*
X257077561Y-301571428D01*
X257077561Y-301571428D02*
X257077561Y-301952381D01*
X257077561Y-301952381D02*
X257172800Y-302142857D01*
X257172800Y-302142857D02*
X257363276Y-302333333D01*
X257363276Y-302333333D02*
X257744228Y-302428571D01*
X257744228Y-302428571D02*
X258410895Y-302428571D01*
X258410895Y-302428571D02*
X258791847Y-302333333D01*
X258791847Y-302333333D02*
X258982323Y-302142857D01*
X258982323Y-302142857D02*
X259077561Y-301952381D01*
X259077561Y-300238095D02*
X257458514Y-300238095D01*
X257458514Y-300238095D02*
X257268038Y-300142857D01*
X257268038Y-300142857D02*
X257172800Y-300047619D01*
X257172800Y-300047619D02*
X257077561Y-299857143D01*
X257077561Y-299857143D02*
X257077561Y-299476190D01*
X257077561Y-299476190D02*
X257172800Y-299285714D01*
X257172800Y-299285714D02*
X257268038Y-299190476D01*
X257268038Y-299190476D02*
X257458514Y-299095238D01*
X257458514Y-299095238D02*
X259077561Y-299095238D01*
X259077561Y-298428571D02*
X259077561Y-297285714D01*
X257077561Y-297857143D02*
X259077561Y-297857143D01*
X257077561Y-295571428D02*
X257077561Y-296714285D01*
X257077561Y-296142857D02*
X259077561Y-296142857D01*
X259077561Y-296142857D02*
X258791847Y-296333333D01*
X258791847Y-296333333D02*
X258601371Y-296523809D01*
X258601371Y-296523809D02*
X258506133Y-296714285D01*
X406107914Y-97719047D02*
X406012676Y-97814285D01*
X406012676Y-97814285D02*
X405917438Y-98004761D01*
X405917438Y-98004761D02*
X405917438Y-98480952D01*
X405917438Y-98480952D02*
X406012676Y-98671428D01*
X406012676Y-98671428D02*
X406107914Y-98766666D01*
X406107914Y-98766666D02*
X406298390Y-98861904D01*
X406298390Y-98861904D02*
X406488866Y-98861904D01*
X406488866Y-98861904D02*
X406774580Y-98766666D01*
X406774580Y-98766666D02*
X407917438Y-97623809D01*
X407917438Y-97623809D02*
X407917438Y-98861904D01*
X406584104Y-100576190D02*
X407917438Y-100576190D01*
X405822200Y-100099999D02*
X407250771Y-99623809D01*
X407250771Y-99623809D02*
X407250771Y-100861904D01*
X405917438Y-101338095D02*
X407917438Y-102004761D01*
X407917438Y-102004761D02*
X405917438Y-102671428D01*
X230935714Y-309917438D02*
X230935714Y-307917438D01*
X230935714Y-307917438D02*
X230459524Y-307917438D01*
X230459524Y-307917438D02*
X230173809Y-308012676D01*
X230173809Y-308012676D02*
X229983333Y-308203152D01*
X229983333Y-308203152D02*
X229888095Y-308393628D01*
X229888095Y-308393628D02*
X229792857Y-308774580D01*
X229792857Y-308774580D02*
X229792857Y-309060295D01*
X229792857Y-309060295D02*
X229888095Y-309441247D01*
X229888095Y-309441247D02*
X229983333Y-309631723D01*
X229983333Y-309631723D02*
X230173809Y-309822200D01*
X230173809Y-309822200D02*
X230459524Y-309917438D01*
X230459524Y-309917438D02*
X230935714Y-309917438D01*
X228935714Y-309917438D02*
X228935714Y-307917438D01*
X228078571Y-309822200D02*
X227792857Y-309917438D01*
X227792857Y-309917438D02*
X227316666Y-309917438D01*
X227316666Y-309917438D02*
X227126190Y-309822200D01*
X227126190Y-309822200D02*
X227030952Y-309726961D01*
X227030952Y-309726961D02*
X226935714Y-309536485D01*
X226935714Y-309536485D02*
X226935714Y-309346009D01*
X226935714Y-309346009D02*
X227030952Y-309155533D01*
X227030952Y-309155533D02*
X227126190Y-309060295D01*
X227126190Y-309060295D02*
X227316666Y-308965057D01*
X227316666Y-308965057D02*
X227697619Y-308869819D01*
X227697619Y-308869819D02*
X227888095Y-308774580D01*
X227888095Y-308774580D02*
X227983333Y-308679342D01*
X227983333Y-308679342D02*
X228078571Y-308488866D01*
X228078571Y-308488866D02*
X228078571Y-308298390D01*
X228078571Y-308298390D02*
X227983333Y-308107914D01*
X227983333Y-308107914D02*
X227888095Y-308012676D01*
X227888095Y-308012676D02*
X227697619Y-307917438D01*
X227697619Y-307917438D02*
X227221428Y-307917438D01*
X227221428Y-307917438D02*
X226935714Y-308012676D01*
X224935714Y-309726961D02*
X225030952Y-309822200D01*
X225030952Y-309822200D02*
X225316666Y-309917438D01*
X225316666Y-309917438D02*
X225507142Y-309917438D01*
X225507142Y-309917438D02*
X225792857Y-309822200D01*
X225792857Y-309822200D02*
X225983333Y-309631723D01*
X225983333Y-309631723D02*
X226078571Y-309441247D01*
X226078571Y-309441247D02*
X226173809Y-309060295D01*
X226173809Y-309060295D02*
X226173809Y-308774580D01*
X226173809Y-308774580D02*
X226078571Y-308393628D01*
X226078571Y-308393628D02*
X225983333Y-308203152D01*
X225983333Y-308203152D02*
X225792857Y-308012676D01*
X225792857Y-308012676D02*
X225507142Y-307917438D01*
X225507142Y-307917438D02*
X225316666Y-307917438D01*
X225316666Y-307917438D02*
X225030952Y-308012676D01*
X225030952Y-308012676D02*
X224935714Y-308107914D01*
X222935714Y-309917438D02*
X223602381Y-308965057D01*
X224078571Y-309917438D02*
X224078571Y-307917438D01*
X224078571Y-307917438D02*
X223316666Y-307917438D01*
X223316666Y-307917438D02*
X223126190Y-308012676D01*
X223126190Y-308012676D02*
X223030952Y-308107914D01*
X223030952Y-308107914D02*
X222935714Y-308298390D01*
X222935714Y-308298390D02*
X222935714Y-308584104D01*
X222935714Y-308584104D02*
X223030952Y-308774580D01*
X223030952Y-308774580D02*
X223126190Y-308869819D01*
X223126190Y-308869819D02*
X223316666Y-308965057D01*
X223316666Y-308965057D02*
X224078571Y-308965057D01*
X222078571Y-308869819D02*
X221411904Y-308869819D01*
X221126190Y-309917438D02*
X222078571Y-309917438D01*
X222078571Y-309917438D02*
X222078571Y-307917438D01*
X222078571Y-307917438D02*
X221126190Y-307917438D01*
X220554761Y-307917438D02*
X219411904Y-307917438D01*
X219983333Y-309917438D02*
X219983333Y-307917438D01*
X218745237Y-308869819D02*
X218078570Y-308869819D01*
X217792856Y-309917438D02*
X218745237Y-309917438D01*
X218745237Y-309917438D02*
X218745237Y-307917438D01*
X218745237Y-307917438D02*
X217792856Y-307917438D01*
X169090952Y-190552914D02*
X168995714Y-190457676D01*
X168995714Y-190457676D02*
X168805238Y-190362438D01*
X168805238Y-190362438D02*
X168329047Y-190362438D01*
X168329047Y-190362438D02*
X168138571Y-190457676D01*
X168138571Y-190457676D02*
X168043333Y-190552914D01*
X168043333Y-190552914D02*
X167948095Y-190743390D01*
X167948095Y-190743390D02*
X167948095Y-190933866D01*
X167948095Y-190933866D02*
X168043333Y-191219580D01*
X168043333Y-191219580D02*
X169186190Y-192362438D01*
X169186190Y-192362438D02*
X167948095Y-192362438D01*
X166233809Y-191029104D02*
X166233809Y-192362438D01*
X166710000Y-190267200D02*
X167186190Y-191695771D01*
X167186190Y-191695771D02*
X165948095Y-191695771D01*
X165471904Y-190362438D02*
X164805238Y-192362438D01*
X164805238Y-192362438D02*
X164138571Y-190362438D01*
X163082561Y-301952381D02*
X163082561Y-301571428D01*
X163082561Y-301571428D02*
X162987323Y-301380952D01*
X162987323Y-301380952D02*
X162796847Y-301190476D01*
X162796847Y-301190476D02*
X162415895Y-301095238D01*
X162415895Y-301095238D02*
X161749228Y-301095238D01*
X161749228Y-301095238D02*
X161368276Y-301190476D01*
X161368276Y-301190476D02*
X161177800Y-301380952D01*
X161177800Y-301380952D02*
X161082561Y-301571428D01*
X161082561Y-301571428D02*
X161082561Y-301952381D01*
X161082561Y-301952381D02*
X161177800Y-302142857D01*
X161177800Y-302142857D02*
X161368276Y-302333333D01*
X161368276Y-302333333D02*
X161749228Y-302428571D01*
X161749228Y-302428571D02*
X162415895Y-302428571D01*
X162415895Y-302428571D02*
X162796847Y-302333333D01*
X162796847Y-302333333D02*
X162987323Y-302142857D01*
X162987323Y-302142857D02*
X163082561Y-301952381D01*
X163082561Y-300238095D02*
X161463514Y-300238095D01*
X161463514Y-300238095D02*
X161273038Y-300142857D01*
X161273038Y-300142857D02*
X161177800Y-300047619D01*
X161177800Y-300047619D02*
X161082561Y-299857143D01*
X161082561Y-299857143D02*
X161082561Y-299476190D01*
X161082561Y-299476190D02*
X161177800Y-299285714D01*
X161177800Y-299285714D02*
X161273038Y-299190476D01*
X161273038Y-299190476D02*
X161463514Y-299095238D01*
X161463514Y-299095238D02*
X163082561Y-299095238D01*
X163082561Y-298428571D02*
X163082561Y-297285714D01*
X161082561Y-297857143D02*
X163082561Y-297857143D01*
X161082561Y-295571428D02*
X161082561Y-296714285D01*
X161082561Y-296142857D02*
X163082561Y-296142857D01*
X163082561Y-296142857D02*
X162796847Y-296333333D01*
X162796847Y-296333333D02*
X162606371Y-296523809D01*
X162606371Y-296523809D02*
X162511133Y-296714285D01*
X292892085Y-301705952D02*
X292987323Y-301610714D01*
X292987323Y-301610714D02*
X293082561Y-301420238D01*
X293082561Y-301420238D02*
X293082561Y-300944047D01*
X293082561Y-300944047D02*
X292987323Y-300753571D01*
X292987323Y-300753571D02*
X292892085Y-300658333D01*
X292892085Y-300658333D02*
X292701609Y-300563095D01*
X292701609Y-300563095D02*
X292511133Y-300563095D01*
X292511133Y-300563095D02*
X292225419Y-300658333D01*
X292225419Y-300658333D02*
X291082561Y-301801190D01*
X291082561Y-301801190D02*
X291082561Y-300563095D01*
X292415895Y-298848809D02*
X291082561Y-298848809D01*
X293177800Y-299325000D02*
X291749228Y-299801190D01*
X291749228Y-299801190D02*
X291749228Y-298563095D01*
X293082561Y-298086904D02*
X291082561Y-297420238D01*
X291082561Y-297420238D02*
X293082561Y-296753571D01*
X205987323Y-300838809D02*
X206082561Y-301029285D01*
X206082561Y-301029285D02*
X206082561Y-301314999D01*
X206082561Y-301314999D02*
X205987323Y-301600714D01*
X205987323Y-301600714D02*
X205796847Y-301791190D01*
X205796847Y-301791190D02*
X205606371Y-301886428D01*
X205606371Y-301886428D02*
X205225419Y-301981666D01*
X205225419Y-301981666D02*
X204939704Y-301981666D01*
X204939704Y-301981666D02*
X204558752Y-301886428D01*
X204558752Y-301886428D02*
X204368276Y-301791190D01*
X204368276Y-301791190D02*
X204177800Y-301600714D01*
X204177800Y-301600714D02*
X204082561Y-301314999D01*
X204082561Y-301314999D02*
X204082561Y-301124523D01*
X204082561Y-301124523D02*
X204177800Y-300838809D01*
X204177800Y-300838809D02*
X204273038Y-300743571D01*
X204273038Y-300743571D02*
X204939704Y-300743571D01*
X204939704Y-300743571D02*
X204939704Y-301124523D01*
X204082561Y-299886428D02*
X206082561Y-299886428D01*
X206082561Y-299886428D02*
X204082561Y-298743571D01*
X204082561Y-298743571D02*
X206082561Y-298743571D01*
X204082561Y-297791190D02*
X206082561Y-297791190D01*
X206082561Y-297791190D02*
X206082561Y-297315000D01*
X206082561Y-297315000D02*
X205987323Y-297029285D01*
X205987323Y-297029285D02*
X205796847Y-296838809D01*
X205796847Y-296838809D02*
X205606371Y-296743571D01*
X205606371Y-296743571D02*
X205225419Y-296648333D01*
X205225419Y-296648333D02*
X204939704Y-296648333D01*
X204939704Y-296648333D02*
X204558752Y-296743571D01*
X204558752Y-296743571D02*
X204368276Y-296838809D01*
X204368276Y-296838809D02*
X204177800Y-297029285D01*
X204177800Y-297029285D02*
X204082561Y-297315000D01*
X204082561Y-297315000D02*
X204082561Y-297791190D01*
X234917438Y-98005000D02*
X232917438Y-98005000D01*
X234917438Y-98957381D02*
X232917438Y-98957381D01*
X232917438Y-98957381D02*
X234917438Y-100100238D01*
X234917438Y-100100238D02*
X232917438Y-100100238D01*
X232917438Y-100862143D02*
X232917438Y-102100238D01*
X232917438Y-102100238D02*
X233679342Y-101433571D01*
X233679342Y-101433571D02*
X233679342Y-101719286D01*
X233679342Y-101719286D02*
X233774580Y-101909762D01*
X233774580Y-101909762D02*
X233869819Y-102005000D01*
X233869819Y-102005000D02*
X234060295Y-102100238D01*
X234060295Y-102100238D02*
X234536485Y-102100238D01*
X234536485Y-102100238D02*
X234726961Y-102005000D01*
X234726961Y-102005000D02*
X234822200Y-101909762D01*
X234822200Y-101909762D02*
X234917438Y-101719286D01*
X234917438Y-101719286D02*
X234917438Y-101147857D01*
X234917438Y-101147857D02*
X234822200Y-100957381D01*
X234822200Y-100957381D02*
X234726961Y-100862143D01*
X168318809Y-193962676D02*
X168509285Y-193867438D01*
X168509285Y-193867438D02*
X168794999Y-193867438D01*
X168794999Y-193867438D02*
X169080714Y-193962676D01*
X169080714Y-193962676D02*
X169271190Y-194153152D01*
X169271190Y-194153152D02*
X169366428Y-194343628D01*
X169366428Y-194343628D02*
X169461666Y-194724580D01*
X169461666Y-194724580D02*
X169461666Y-195010295D01*
X169461666Y-195010295D02*
X169366428Y-195391247D01*
X169366428Y-195391247D02*
X169271190Y-195581723D01*
X169271190Y-195581723D02*
X169080714Y-195772200D01*
X169080714Y-195772200D02*
X168794999Y-195867438D01*
X168794999Y-195867438D02*
X168604523Y-195867438D01*
X168604523Y-195867438D02*
X168318809Y-195772200D01*
X168318809Y-195772200D02*
X168223571Y-195676961D01*
X168223571Y-195676961D02*
X168223571Y-195010295D01*
X168223571Y-195010295D02*
X168604523Y-195010295D01*
X167366428Y-195867438D02*
X167366428Y-193867438D01*
X167366428Y-193867438D02*
X166223571Y-195867438D01*
X166223571Y-195867438D02*
X166223571Y-193867438D01*
X165271190Y-195867438D02*
X165271190Y-193867438D01*
X165271190Y-193867438D02*
X164795000Y-193867438D01*
X164795000Y-193867438D02*
X164509285Y-193962676D01*
X164509285Y-193962676D02*
X164318809Y-194153152D01*
X164318809Y-194153152D02*
X164223571Y-194343628D01*
X164223571Y-194343628D02*
X164128333Y-194724580D01*
X164128333Y-194724580D02*
X164128333Y-195010295D01*
X164128333Y-195010295D02*
X164223571Y-195391247D01*
X164223571Y-195391247D02*
X164318809Y-195581723D01*
X164318809Y-195581723D02*
X164509285Y-195772200D01*
X164509285Y-195772200D02*
X164795000Y-195867438D01*
X164795000Y-195867438D02*
X165271190Y-195867438D01*
X220917438Y-98000000D02*
X218917438Y-98000000D01*
X220917438Y-98952381D02*
X218917438Y-98952381D01*
X218917438Y-98952381D02*
X220917438Y-100095238D01*
X220917438Y-100095238D02*
X218917438Y-100095238D01*
X219107914Y-100952381D02*
X219012676Y-101047619D01*
X219012676Y-101047619D02*
X218917438Y-101238095D01*
X218917438Y-101238095D02*
X218917438Y-101714286D01*
X218917438Y-101714286D02*
X219012676Y-101904762D01*
X219012676Y-101904762D02*
X219107914Y-102000000D01*
X219107914Y-102000000D02*
X219298390Y-102095238D01*
X219298390Y-102095238D02*
X219488866Y-102095238D01*
X219488866Y-102095238D02*
X219774580Y-102000000D01*
X219774580Y-102000000D02*
X220917438Y-100857143D01*
X220917438Y-100857143D02*
X220917438Y-102095238D01*
X383917438Y-97501190D02*
X381917438Y-97501190D01*
X381917438Y-97501190D02*
X381917438Y-97977380D01*
X381917438Y-97977380D02*
X382012676Y-98263095D01*
X382012676Y-98263095D02*
X382203152Y-98453571D01*
X382203152Y-98453571D02*
X382393628Y-98548809D01*
X382393628Y-98548809D02*
X382774580Y-98644047D01*
X382774580Y-98644047D02*
X383060295Y-98644047D01*
X383060295Y-98644047D02*
X383441247Y-98548809D01*
X383441247Y-98548809D02*
X383631723Y-98453571D01*
X383631723Y-98453571D02*
X383822200Y-98263095D01*
X383822200Y-98263095D02*
X383917438Y-97977380D01*
X383917438Y-97977380D02*
X383917438Y-97501190D01*
X381917438Y-99882142D02*
X381917438Y-100263095D01*
X381917438Y-100263095D02*
X382012676Y-100453571D01*
X382012676Y-100453571D02*
X382203152Y-100644047D01*
X382203152Y-100644047D02*
X382584104Y-100739285D01*
X382584104Y-100739285D02*
X383250771Y-100739285D01*
X383250771Y-100739285D02*
X383631723Y-100644047D01*
X383631723Y-100644047D02*
X383822200Y-100453571D01*
X383822200Y-100453571D02*
X383917438Y-100263095D01*
X383917438Y-100263095D02*
X383917438Y-99882142D01*
X383917438Y-99882142D02*
X383822200Y-99691666D01*
X383822200Y-99691666D02*
X383631723Y-99501190D01*
X383631723Y-99501190D02*
X383250771Y-99405952D01*
X383250771Y-99405952D02*
X382584104Y-99405952D01*
X382584104Y-99405952D02*
X382203152Y-99501190D01*
X382203152Y-99501190D02*
X382012676Y-99691666D01*
X382012676Y-99691666D02*
X381917438Y-99882142D01*
X382107914Y-101501190D02*
X382012676Y-101596428D01*
X382012676Y-101596428D02*
X381917438Y-101786904D01*
X381917438Y-101786904D02*
X381917438Y-102263095D01*
X381917438Y-102263095D02*
X382012676Y-102453571D01*
X382012676Y-102453571D02*
X382107914Y-102548809D01*
X382107914Y-102548809D02*
X382298390Y-102644047D01*
X382298390Y-102644047D02*
X382488866Y-102644047D01*
X382488866Y-102644047D02*
X382774580Y-102548809D01*
X382774580Y-102548809D02*
X383917438Y-101405952D01*
X383917438Y-101405952D02*
X383917438Y-102644047D01*
X435082561Y-301947380D02*
X437082561Y-301947380D01*
X437082561Y-301947380D02*
X437082561Y-301471190D01*
X437082561Y-301471190D02*
X436987323Y-301185475D01*
X436987323Y-301185475D02*
X436796847Y-300994999D01*
X436796847Y-300994999D02*
X436606371Y-300899761D01*
X436606371Y-300899761D02*
X436225419Y-300804523D01*
X436225419Y-300804523D02*
X435939704Y-300804523D01*
X435939704Y-300804523D02*
X435558752Y-300899761D01*
X435558752Y-300899761D02*
X435368276Y-300994999D01*
X435368276Y-300994999D02*
X435177800Y-301185475D01*
X435177800Y-301185475D02*
X435082561Y-301471190D01*
X435082561Y-301471190D02*
X435082561Y-301947380D01*
X435082561Y-299947380D02*
X437082561Y-299947380D01*
X435082561Y-297947380D02*
X435082561Y-299090237D01*
X435082561Y-298518809D02*
X437082561Y-298518809D01*
X437082561Y-298518809D02*
X436796847Y-298709285D01*
X436796847Y-298709285D02*
X436606371Y-298899761D01*
X436606371Y-298899761D02*
X436511133Y-299090237D01*
X387012676Y-98476190D02*
X386917438Y-98285714D01*
X386917438Y-98285714D02*
X386917438Y-98000000D01*
X386917438Y-98000000D02*
X387012676Y-97714285D01*
X387012676Y-97714285D02*
X387203152Y-97523809D01*
X387203152Y-97523809D02*
X387393628Y-97428571D01*
X387393628Y-97428571D02*
X387774580Y-97333333D01*
X387774580Y-97333333D02*
X388060295Y-97333333D01*
X388060295Y-97333333D02*
X388441247Y-97428571D01*
X388441247Y-97428571D02*
X388631723Y-97523809D01*
X388631723Y-97523809D02*
X388822200Y-97714285D01*
X388822200Y-97714285D02*
X388917438Y-98000000D01*
X388917438Y-98000000D02*
X388917438Y-98190476D01*
X388917438Y-98190476D02*
X388822200Y-98476190D01*
X388822200Y-98476190D02*
X388726961Y-98571428D01*
X388726961Y-98571428D02*
X388060295Y-98571428D01*
X388060295Y-98571428D02*
X388060295Y-98190476D01*
X388917438Y-99428571D02*
X386917438Y-99428571D01*
X386917438Y-99428571D02*
X388917438Y-100571428D01*
X388917438Y-100571428D02*
X386917438Y-100571428D01*
X388917438Y-101523809D02*
X386917438Y-101523809D01*
X386917438Y-101523809D02*
X386917438Y-101999999D01*
X386917438Y-101999999D02*
X387012676Y-102285714D01*
X387012676Y-102285714D02*
X387203152Y-102476190D01*
X387203152Y-102476190D02*
X387393628Y-102571428D01*
X387393628Y-102571428D02*
X387774580Y-102666666D01*
X387774580Y-102666666D02*
X388060295Y-102666666D01*
X388060295Y-102666666D02*
X388441247Y-102571428D01*
X388441247Y-102571428D02*
X388631723Y-102476190D01*
X388631723Y-102476190D02*
X388822200Y-102285714D01*
X388822200Y-102285714D02*
X388917438Y-101999999D01*
X388917438Y-101999999D02*
X388917438Y-101523809D01*
X422935714Y-309917438D02*
X422935714Y-307917438D01*
X422935714Y-307917438D02*
X422459524Y-307917438D01*
X422459524Y-307917438D02*
X422173809Y-308012676D01*
X422173809Y-308012676D02*
X421983333Y-308203152D01*
X421983333Y-308203152D02*
X421888095Y-308393628D01*
X421888095Y-308393628D02*
X421792857Y-308774580D01*
X421792857Y-308774580D02*
X421792857Y-309060295D01*
X421792857Y-309060295D02*
X421888095Y-309441247D01*
X421888095Y-309441247D02*
X421983333Y-309631723D01*
X421983333Y-309631723D02*
X422173809Y-309822200D01*
X422173809Y-309822200D02*
X422459524Y-309917438D01*
X422459524Y-309917438D02*
X422935714Y-309917438D01*
X420935714Y-309917438D02*
X420935714Y-307917438D01*
X420078571Y-309822200D02*
X419792857Y-309917438D01*
X419792857Y-309917438D02*
X419316666Y-309917438D01*
X419316666Y-309917438D02*
X419126190Y-309822200D01*
X419126190Y-309822200D02*
X419030952Y-309726961D01*
X419030952Y-309726961D02*
X418935714Y-309536485D01*
X418935714Y-309536485D02*
X418935714Y-309346009D01*
X418935714Y-309346009D02*
X419030952Y-309155533D01*
X419030952Y-309155533D02*
X419126190Y-309060295D01*
X419126190Y-309060295D02*
X419316666Y-308965057D01*
X419316666Y-308965057D02*
X419697619Y-308869819D01*
X419697619Y-308869819D02*
X419888095Y-308774580D01*
X419888095Y-308774580D02*
X419983333Y-308679342D01*
X419983333Y-308679342D02*
X420078571Y-308488866D01*
X420078571Y-308488866D02*
X420078571Y-308298390D01*
X420078571Y-308298390D02*
X419983333Y-308107914D01*
X419983333Y-308107914D02*
X419888095Y-308012676D01*
X419888095Y-308012676D02*
X419697619Y-307917438D01*
X419697619Y-307917438D02*
X419221428Y-307917438D01*
X419221428Y-307917438D02*
X418935714Y-308012676D01*
X416935714Y-309726961D02*
X417030952Y-309822200D01*
X417030952Y-309822200D02*
X417316666Y-309917438D01*
X417316666Y-309917438D02*
X417507142Y-309917438D01*
X417507142Y-309917438D02*
X417792857Y-309822200D01*
X417792857Y-309822200D02*
X417983333Y-309631723D01*
X417983333Y-309631723D02*
X418078571Y-309441247D01*
X418078571Y-309441247D02*
X418173809Y-309060295D01*
X418173809Y-309060295D02*
X418173809Y-308774580D01*
X418173809Y-308774580D02*
X418078571Y-308393628D01*
X418078571Y-308393628D02*
X417983333Y-308203152D01*
X417983333Y-308203152D02*
X417792857Y-308012676D01*
X417792857Y-308012676D02*
X417507142Y-307917438D01*
X417507142Y-307917438D02*
X417316666Y-307917438D01*
X417316666Y-307917438D02*
X417030952Y-308012676D01*
X417030952Y-308012676D02*
X416935714Y-308107914D01*
X414935714Y-309917438D02*
X415602381Y-308965057D01*
X416078571Y-309917438D02*
X416078571Y-307917438D01*
X416078571Y-307917438D02*
X415316666Y-307917438D01*
X415316666Y-307917438D02*
X415126190Y-308012676D01*
X415126190Y-308012676D02*
X415030952Y-308107914D01*
X415030952Y-308107914D02*
X414935714Y-308298390D01*
X414935714Y-308298390D02*
X414935714Y-308584104D01*
X414935714Y-308584104D02*
X415030952Y-308774580D01*
X415030952Y-308774580D02*
X415126190Y-308869819D01*
X415126190Y-308869819D02*
X415316666Y-308965057D01*
X415316666Y-308965057D02*
X416078571Y-308965057D01*
X414078571Y-308869819D02*
X413411904Y-308869819D01*
X413126190Y-309917438D02*
X414078571Y-309917438D01*
X414078571Y-309917438D02*
X414078571Y-307917438D01*
X414078571Y-307917438D02*
X413126190Y-307917438D01*
X412554761Y-307917438D02*
X411411904Y-307917438D01*
X411983333Y-309917438D02*
X411983333Y-307917438D01*
X410745237Y-308869819D02*
X410078570Y-308869819D01*
X409792856Y-309917438D02*
X410745237Y-309917438D01*
X410745237Y-309917438D02*
X410745237Y-307917438D01*
X410745237Y-307917438D02*
X409792856Y-307917438D01*
X372512380Y-308584104D02*
X372512380Y-309917438D01*
X372988571Y-307822200D02*
X373464761Y-309250771D01*
X373464761Y-309250771D02*
X372226666Y-309250771D01*
X371464761Y-309155533D02*
X369940952Y-309155533D01*
X369083809Y-308107914D02*
X368988571Y-308012676D01*
X368988571Y-308012676D02*
X368798095Y-307917438D01*
X368798095Y-307917438D02*
X368321904Y-307917438D01*
X368321904Y-307917438D02*
X368131428Y-308012676D01*
X368131428Y-308012676D02*
X368036190Y-308107914D01*
X368036190Y-308107914D02*
X367940952Y-308298390D01*
X367940952Y-308298390D02*
X367940952Y-308488866D01*
X367940952Y-308488866D02*
X368036190Y-308774580D01*
X368036190Y-308774580D02*
X369179047Y-309917438D01*
X369179047Y-309917438D02*
X367940952Y-309917438D01*
X366702857Y-307917438D02*
X366512380Y-307917438D01*
X366512380Y-307917438D02*
X366321904Y-308012676D01*
X366321904Y-308012676D02*
X366226666Y-308107914D01*
X366226666Y-308107914D02*
X366131428Y-308298390D01*
X366131428Y-308298390D02*
X366036190Y-308679342D01*
X366036190Y-308679342D02*
X366036190Y-309155533D01*
X366036190Y-309155533D02*
X366131428Y-309536485D01*
X366131428Y-309536485D02*
X366226666Y-309726961D01*
X366226666Y-309726961D02*
X366321904Y-309822200D01*
X366321904Y-309822200D02*
X366512380Y-309917438D01*
X366512380Y-309917438D02*
X366702857Y-309917438D01*
X366702857Y-309917438D02*
X366893333Y-309822200D01*
X366893333Y-309822200D02*
X366988571Y-309726961D01*
X366988571Y-309726961D02*
X367083809Y-309536485D01*
X367083809Y-309536485D02*
X367179047Y-309155533D01*
X367179047Y-309155533D02*
X367179047Y-308679342D01*
X367179047Y-308679342D02*
X367083809Y-308298390D01*
X367083809Y-308298390D02*
X366988571Y-308107914D01*
X366988571Y-308107914D02*
X366893333Y-308012676D01*
X366893333Y-308012676D02*
X366702857Y-307917438D01*
X365179047Y-309917438D02*
X365179047Y-308584104D01*
X365179047Y-308774580D02*
X365083809Y-308679342D01*
X365083809Y-308679342D02*
X364893333Y-308584104D01*
X364893333Y-308584104D02*
X364607618Y-308584104D01*
X364607618Y-308584104D02*
X364417142Y-308679342D01*
X364417142Y-308679342D02*
X364321904Y-308869819D01*
X364321904Y-308869819D02*
X364321904Y-309917438D01*
X364321904Y-308869819D02*
X364226666Y-308679342D01*
X364226666Y-308679342D02*
X364036190Y-308584104D01*
X364036190Y-308584104D02*
X363750476Y-308584104D01*
X363750476Y-308584104D02*
X363559999Y-308679342D01*
X363559999Y-308679342D02*
X363464761Y-308869819D01*
X363464761Y-308869819D02*
X363464761Y-309917438D01*
X362607618Y-309346009D02*
X361655237Y-309346009D01*
X362798094Y-309917438D02*
X362131428Y-307917438D01*
X362131428Y-307917438D02*
X361464761Y-309917438D01*
X215987323Y-300863809D02*
X216082561Y-301054285D01*
X216082561Y-301054285D02*
X216082561Y-301339999D01*
X216082561Y-301339999D02*
X215987323Y-301625714D01*
X215987323Y-301625714D02*
X215796847Y-301816190D01*
X215796847Y-301816190D02*
X215606371Y-301911428D01*
X215606371Y-301911428D02*
X215225419Y-302006666D01*
X215225419Y-302006666D02*
X214939704Y-302006666D01*
X214939704Y-302006666D02*
X214558752Y-301911428D01*
X214558752Y-301911428D02*
X214368276Y-301816190D01*
X214368276Y-301816190D02*
X214177800Y-301625714D01*
X214177800Y-301625714D02*
X214082561Y-301339999D01*
X214082561Y-301339999D02*
X214082561Y-301149523D01*
X214082561Y-301149523D02*
X214177800Y-300863809D01*
X214177800Y-300863809D02*
X214273038Y-300768571D01*
X214273038Y-300768571D02*
X214939704Y-300768571D01*
X214939704Y-300768571D02*
X214939704Y-301149523D01*
X214082561Y-299911428D02*
X216082561Y-299911428D01*
X216082561Y-299911428D02*
X214082561Y-298768571D01*
X214082561Y-298768571D02*
X216082561Y-298768571D01*
X214082561Y-297816190D02*
X216082561Y-297816190D01*
X216082561Y-297816190D02*
X216082561Y-297340000D01*
X216082561Y-297340000D02*
X215987323Y-297054285D01*
X215987323Y-297054285D02*
X215796847Y-296863809D01*
X215796847Y-296863809D02*
X215606371Y-296768571D01*
X215606371Y-296768571D02*
X215225419Y-296673333D01*
X215225419Y-296673333D02*
X214939704Y-296673333D01*
X214939704Y-296673333D02*
X214558752Y-296768571D01*
X214558752Y-296768571D02*
X214368276Y-296863809D01*
X214368276Y-296863809D02*
X214177800Y-297054285D01*
X214177800Y-297054285D02*
X214082561Y-297340000D01*
X214082561Y-297340000D02*
X214082561Y-297816190D01*
X334072561Y-301927380D02*
X336072561Y-301927380D01*
X336072561Y-301927380D02*
X336072561Y-301451190D01*
X336072561Y-301451190D02*
X335977323Y-301165475D01*
X335977323Y-301165475D02*
X335786847Y-300974999D01*
X335786847Y-300974999D02*
X335596371Y-300879761D01*
X335596371Y-300879761D02*
X335215419Y-300784523D01*
X335215419Y-300784523D02*
X334929704Y-300784523D01*
X334929704Y-300784523D02*
X334548752Y-300879761D01*
X334548752Y-300879761D02*
X334358276Y-300974999D01*
X334358276Y-300974999D02*
X334167800Y-301165475D01*
X334167800Y-301165475D02*
X334072561Y-301451190D01*
X334072561Y-301451190D02*
X334072561Y-301927380D01*
X334072561Y-299927380D02*
X336072561Y-299927380D01*
X335882085Y-299070237D02*
X335977323Y-298974999D01*
X335977323Y-298974999D02*
X336072561Y-298784523D01*
X336072561Y-298784523D02*
X336072561Y-298308332D01*
X336072561Y-298308332D02*
X335977323Y-298117856D01*
X335977323Y-298117856D02*
X335882085Y-298022618D01*
X335882085Y-298022618D02*
X335691609Y-297927380D01*
X335691609Y-297927380D02*
X335501133Y-297927380D01*
X335501133Y-297927380D02*
X335215419Y-298022618D01*
X335215419Y-298022618D02*
X334072561Y-299165475D01*
X334072561Y-299165475D02*
X334072561Y-297927380D01*
X253892085Y-302380952D02*
X253987323Y-302285714D01*
X253987323Y-302285714D02*
X254082561Y-302095238D01*
X254082561Y-302095238D02*
X254082561Y-301619047D01*
X254082561Y-301619047D02*
X253987323Y-301428571D01*
X253987323Y-301428571D02*
X253892085Y-301333333D01*
X253892085Y-301333333D02*
X253701609Y-301238095D01*
X253701609Y-301238095D02*
X253511133Y-301238095D01*
X253511133Y-301238095D02*
X253225419Y-301333333D01*
X253225419Y-301333333D02*
X252082561Y-302476190D01*
X252082561Y-302476190D02*
X252082561Y-301238095D01*
X253415895Y-299523809D02*
X252082561Y-299523809D01*
X254177800Y-300000000D02*
X252749228Y-300476190D01*
X252749228Y-300476190D02*
X252749228Y-299238095D01*
X254082561Y-298761904D02*
X252082561Y-298095238D01*
X252082561Y-298095238D02*
X254082561Y-297428571D01*
X324952380Y-90584104D02*
X324952380Y-91917438D01*
X325428571Y-89822200D02*
X325904761Y-91250771D01*
X325904761Y-91250771D02*
X324666666Y-91250771D01*
X323904761Y-91155533D02*
X322380952Y-91155533D01*
X321523809Y-90107914D02*
X321428571Y-90012676D01*
X321428571Y-90012676D02*
X321238095Y-89917438D01*
X321238095Y-89917438D02*
X320761904Y-89917438D01*
X320761904Y-89917438D02*
X320571428Y-90012676D01*
X320571428Y-90012676D02*
X320476190Y-90107914D01*
X320476190Y-90107914D02*
X320380952Y-90298390D01*
X320380952Y-90298390D02*
X320380952Y-90488866D01*
X320380952Y-90488866D02*
X320476190Y-90774580D01*
X320476190Y-90774580D02*
X321619047Y-91917438D01*
X321619047Y-91917438D02*
X320380952Y-91917438D01*
X319142857Y-89917438D02*
X318952380Y-89917438D01*
X318952380Y-89917438D02*
X318761904Y-90012676D01*
X318761904Y-90012676D02*
X318666666Y-90107914D01*
X318666666Y-90107914D02*
X318571428Y-90298390D01*
X318571428Y-90298390D02*
X318476190Y-90679342D01*
X318476190Y-90679342D02*
X318476190Y-91155533D01*
X318476190Y-91155533D02*
X318571428Y-91536485D01*
X318571428Y-91536485D02*
X318666666Y-91726961D01*
X318666666Y-91726961D02*
X318761904Y-91822200D01*
X318761904Y-91822200D02*
X318952380Y-91917438D01*
X318952380Y-91917438D02*
X319142857Y-91917438D01*
X319142857Y-91917438D02*
X319333333Y-91822200D01*
X319333333Y-91822200D02*
X319428571Y-91726961D01*
X319428571Y-91726961D02*
X319523809Y-91536485D01*
X319523809Y-91536485D02*
X319619047Y-91155533D01*
X319619047Y-91155533D02*
X319619047Y-90679342D01*
X319619047Y-90679342D02*
X319523809Y-90298390D01*
X319523809Y-90298390D02*
X319428571Y-90107914D01*
X319428571Y-90107914D02*
X319333333Y-90012676D01*
X319333333Y-90012676D02*
X319142857Y-89917438D01*
X317619047Y-91917438D02*
X317619047Y-90584104D01*
X317619047Y-90774580D02*
X317523809Y-90679342D01*
X317523809Y-90679342D02*
X317333333Y-90584104D01*
X317333333Y-90584104D02*
X317047618Y-90584104D01*
X317047618Y-90584104D02*
X316857142Y-90679342D01*
X316857142Y-90679342D02*
X316761904Y-90869819D01*
X316761904Y-90869819D02*
X316761904Y-91917438D01*
X316761904Y-90869819D02*
X316666666Y-90679342D01*
X316666666Y-90679342D02*
X316476190Y-90584104D01*
X316476190Y-90584104D02*
X316190476Y-90584104D01*
X316190476Y-90584104D02*
X315999999Y-90679342D01*
X315999999Y-90679342D02*
X315904761Y-90869819D01*
X315904761Y-90869819D02*
X315904761Y-91917438D01*
X315047618Y-91346009D02*
X314095237Y-91346009D01*
X315238094Y-91917438D02*
X314571428Y-89917438D01*
X314571428Y-89917438D02*
X313904761Y-91917438D01*
X324117914Y-97624047D02*
X324022676Y-97719285D01*
X324022676Y-97719285D02*
X323927438Y-97909761D01*
X323927438Y-97909761D02*
X323927438Y-98385952D01*
X323927438Y-98385952D02*
X324022676Y-98576428D01*
X324022676Y-98576428D02*
X324117914Y-98671666D01*
X324117914Y-98671666D02*
X324308390Y-98766904D01*
X324308390Y-98766904D02*
X324498866Y-98766904D01*
X324498866Y-98766904D02*
X324784580Y-98671666D01*
X324784580Y-98671666D02*
X325927438Y-97528809D01*
X325927438Y-97528809D02*
X325927438Y-98766904D01*
X324594104Y-100481190D02*
X325927438Y-100481190D01*
X323832200Y-100004999D02*
X325260771Y-99528809D01*
X325260771Y-99528809D02*
X325260771Y-100766904D01*
X323927438Y-101243095D02*
X325927438Y-101909761D01*
X325927438Y-101909761D02*
X323927438Y-102576428D01*
X277917438Y-98476190D02*
X275917438Y-98476190D01*
X275917438Y-98476190D02*
X275917438Y-98952380D01*
X275917438Y-98952380D02*
X276012676Y-99238095D01*
X276012676Y-99238095D02*
X276203152Y-99428571D01*
X276203152Y-99428571D02*
X276393628Y-99523809D01*
X276393628Y-99523809D02*
X276774580Y-99619047D01*
X276774580Y-99619047D02*
X277060295Y-99619047D01*
X277060295Y-99619047D02*
X277441247Y-99523809D01*
X277441247Y-99523809D02*
X277631723Y-99428571D01*
X277631723Y-99428571D02*
X277822200Y-99238095D01*
X277822200Y-99238095D02*
X277917438Y-98952380D01*
X277917438Y-98952380D02*
X277917438Y-98476190D01*
X275917438Y-100857142D02*
X275917438Y-101238095D01*
X275917438Y-101238095D02*
X276012676Y-101428571D01*
X276012676Y-101428571D02*
X276203152Y-101619047D01*
X276203152Y-101619047D02*
X276584104Y-101714285D01*
X276584104Y-101714285D02*
X277250771Y-101714285D01*
X277250771Y-101714285D02*
X277631723Y-101619047D01*
X277631723Y-101619047D02*
X277822200Y-101428571D01*
X277822200Y-101428571D02*
X277917438Y-101238095D01*
X277917438Y-101238095D02*
X277917438Y-100857142D01*
X277917438Y-100857142D02*
X277822200Y-100666666D01*
X277822200Y-100666666D02*
X277631723Y-100476190D01*
X277631723Y-100476190D02*
X277250771Y-100380952D01*
X277250771Y-100380952D02*
X276584104Y-100380952D01*
X276584104Y-100380952D02*
X276203152Y-100476190D01*
X276203152Y-100476190D02*
X276012676Y-100666666D01*
X276012676Y-100666666D02*
X275917438Y-100857142D01*
X277917438Y-103619047D02*
X277917438Y-102476190D01*
X277917438Y-103047618D02*
X275917438Y-103047618D01*
X275917438Y-103047618D02*
X276203152Y-102857142D01*
X276203152Y-102857142D02*
X276393628Y-102666666D01*
X276393628Y-102666666D02*
X276488866Y-102476190D01*
X377892085Y-301700952D02*
X377987323Y-301605714D01*
X377987323Y-301605714D02*
X378082561Y-301415238D01*
X378082561Y-301415238D02*
X378082561Y-300939047D01*
X378082561Y-300939047D02*
X377987323Y-300748571D01*
X377987323Y-300748571D02*
X377892085Y-300653333D01*
X377892085Y-300653333D02*
X377701609Y-300558095D01*
X377701609Y-300558095D02*
X377511133Y-300558095D01*
X377511133Y-300558095D02*
X377225419Y-300653333D01*
X377225419Y-300653333D02*
X376082561Y-301796190D01*
X376082561Y-301796190D02*
X376082561Y-300558095D01*
X377415895Y-298843809D02*
X376082561Y-298843809D01*
X378177800Y-299320000D02*
X376749228Y-299796190D01*
X376749228Y-299796190D02*
X376749228Y-298558095D01*
X378082561Y-298081904D02*
X376082561Y-297415238D01*
X376082561Y-297415238D02*
X378082561Y-296748571D01*
X306917438Y-98000000D02*
X304917438Y-98000000D01*
X306917438Y-98952381D02*
X304917438Y-98952381D01*
X304917438Y-98952381D02*
X306917438Y-100095238D01*
X306917438Y-100095238D02*
X304917438Y-100095238D01*
X306917438Y-102095238D02*
X306917438Y-100952381D01*
X306917438Y-101523809D02*
X304917438Y-101523809D01*
X304917438Y-101523809D02*
X305203152Y-101333333D01*
X305203152Y-101333333D02*
X305393628Y-101142857D01*
X305393628Y-101142857D02*
X305488866Y-100952381D01*
X214107914Y-97679047D02*
X214012676Y-97774285D01*
X214012676Y-97774285D02*
X213917438Y-97964761D01*
X213917438Y-97964761D02*
X213917438Y-98440952D01*
X213917438Y-98440952D02*
X214012676Y-98631428D01*
X214012676Y-98631428D02*
X214107914Y-98726666D01*
X214107914Y-98726666D02*
X214298390Y-98821904D01*
X214298390Y-98821904D02*
X214488866Y-98821904D01*
X214488866Y-98821904D02*
X214774580Y-98726666D01*
X214774580Y-98726666D02*
X215917438Y-97583809D01*
X215917438Y-97583809D02*
X215917438Y-98821904D01*
X214584104Y-100536190D02*
X215917438Y-100536190D01*
X213822200Y-100059999D02*
X215250771Y-99583809D01*
X215250771Y-99583809D02*
X215250771Y-100821904D01*
X213917438Y-101298095D02*
X215917438Y-101964761D01*
X215917438Y-101964761D02*
X213917438Y-102631428D01*
X233077561Y-301942380D02*
X235077561Y-301942380D01*
X235077561Y-301942380D02*
X235077561Y-301466190D01*
X235077561Y-301466190D02*
X234982323Y-301180475D01*
X234982323Y-301180475D02*
X234791847Y-300989999D01*
X234791847Y-300989999D02*
X234601371Y-300894761D01*
X234601371Y-300894761D02*
X234220419Y-300799523D01*
X234220419Y-300799523D02*
X233934704Y-300799523D01*
X233934704Y-300799523D02*
X233553752Y-300894761D01*
X233553752Y-300894761D02*
X233363276Y-300989999D01*
X233363276Y-300989999D02*
X233172800Y-301180475D01*
X233172800Y-301180475D02*
X233077561Y-301466190D01*
X233077561Y-301466190D02*
X233077561Y-301942380D01*
X233077561Y-299942380D02*
X235077561Y-299942380D01*
X235077561Y-299180475D02*
X235077561Y-297942380D01*
X235077561Y-297942380D02*
X234315657Y-298609047D01*
X234315657Y-298609047D02*
X234315657Y-298323332D01*
X234315657Y-298323332D02*
X234220419Y-298132856D01*
X234220419Y-298132856D02*
X234125180Y-298037618D01*
X234125180Y-298037618D02*
X233934704Y-297942380D01*
X233934704Y-297942380D02*
X233458514Y-297942380D01*
X233458514Y-297942380D02*
X233268038Y-298037618D01*
X233268038Y-298037618D02*
X233172800Y-298132856D01*
X233172800Y-298132856D02*
X233077561Y-298323332D01*
X233077561Y-298323332D02*
X233077561Y-298894761D01*
X233077561Y-298894761D02*
X233172800Y-299085237D01*
X233172800Y-299085237D02*
X233268038Y-299180475D01*
X426917438Y-98000000D02*
X424917438Y-98000000D01*
X426917438Y-98952381D02*
X424917438Y-98952381D01*
X424917438Y-98952381D02*
X426917438Y-100095238D01*
X426917438Y-100095238D02*
X424917438Y-100095238D01*
X424917438Y-100857143D02*
X424917438Y-102095238D01*
X424917438Y-102095238D02*
X425679342Y-101428571D01*
X425679342Y-101428571D02*
X425679342Y-101714286D01*
X425679342Y-101714286D02*
X425774580Y-101904762D01*
X425774580Y-101904762D02*
X425869819Y-102000000D01*
X425869819Y-102000000D02*
X426060295Y-102095238D01*
X426060295Y-102095238D02*
X426536485Y-102095238D01*
X426536485Y-102095238D02*
X426726961Y-102000000D01*
X426726961Y-102000000D02*
X426822200Y-101904762D01*
X426822200Y-101904762D02*
X426917438Y-101714286D01*
X426917438Y-101714286D02*
X426917438Y-101142857D01*
X426917438Y-101142857D02*
X426822200Y-100952381D01*
X426822200Y-100952381D02*
X426726961Y-100857143D01*
X276592380Y-308584104D02*
X276592380Y-309917438D01*
X277068571Y-307822200D02*
X277544761Y-309250771D01*
X277544761Y-309250771D02*
X276306666Y-309250771D01*
X275544761Y-309155533D02*
X274020952Y-309155533D01*
X273163809Y-308107914D02*
X273068571Y-308012676D01*
X273068571Y-308012676D02*
X272878095Y-307917438D01*
X272878095Y-307917438D02*
X272401904Y-307917438D01*
X272401904Y-307917438D02*
X272211428Y-308012676D01*
X272211428Y-308012676D02*
X272116190Y-308107914D01*
X272116190Y-308107914D02*
X272020952Y-308298390D01*
X272020952Y-308298390D02*
X272020952Y-308488866D01*
X272020952Y-308488866D02*
X272116190Y-308774580D01*
X272116190Y-308774580D02*
X273259047Y-309917438D01*
X273259047Y-309917438D02*
X272020952Y-309917438D01*
X270782857Y-307917438D02*
X270592380Y-307917438D01*
X270592380Y-307917438D02*
X270401904Y-308012676D01*
X270401904Y-308012676D02*
X270306666Y-308107914D01*
X270306666Y-308107914D02*
X270211428Y-308298390D01*
X270211428Y-308298390D02*
X270116190Y-308679342D01*
X270116190Y-308679342D02*
X270116190Y-309155533D01*
X270116190Y-309155533D02*
X270211428Y-309536485D01*
X270211428Y-309536485D02*
X270306666Y-309726961D01*
X270306666Y-309726961D02*
X270401904Y-309822200D01*
X270401904Y-309822200D02*
X270592380Y-309917438D01*
X270592380Y-309917438D02*
X270782857Y-309917438D01*
X270782857Y-309917438D02*
X270973333Y-309822200D01*
X270973333Y-309822200D02*
X271068571Y-309726961D01*
X271068571Y-309726961D02*
X271163809Y-309536485D01*
X271163809Y-309536485D02*
X271259047Y-309155533D01*
X271259047Y-309155533D02*
X271259047Y-308679342D01*
X271259047Y-308679342D02*
X271163809Y-308298390D01*
X271163809Y-308298390D02*
X271068571Y-308107914D01*
X271068571Y-308107914D02*
X270973333Y-308012676D01*
X270973333Y-308012676D02*
X270782857Y-307917438D01*
X269259047Y-309917438D02*
X269259047Y-308584104D01*
X269259047Y-308774580D02*
X269163809Y-308679342D01*
X269163809Y-308679342D02*
X268973333Y-308584104D01*
X268973333Y-308584104D02*
X268687618Y-308584104D01*
X268687618Y-308584104D02*
X268497142Y-308679342D01*
X268497142Y-308679342D02*
X268401904Y-308869819D01*
X268401904Y-308869819D02*
X268401904Y-309917438D01*
X268401904Y-308869819D02*
X268306666Y-308679342D01*
X268306666Y-308679342D02*
X268116190Y-308584104D01*
X268116190Y-308584104D02*
X267830476Y-308584104D01*
X267830476Y-308584104D02*
X267639999Y-308679342D01*
X267639999Y-308679342D02*
X267544761Y-308869819D01*
X267544761Y-308869819D02*
X267544761Y-309917438D01*
X266687618Y-309346009D02*
X265735237Y-309346009D01*
X266878094Y-309917438D02*
X266211428Y-307917438D01*
X266211428Y-307917438D02*
X265544761Y-309917438D01*
X359917438Y-98047619D02*
X357917438Y-98047619D01*
X357917438Y-98047619D02*
X357917438Y-98523809D01*
X357917438Y-98523809D02*
X358012676Y-98809524D01*
X358012676Y-98809524D02*
X358203152Y-99000000D01*
X358203152Y-99000000D02*
X358393628Y-99095238D01*
X358393628Y-99095238D02*
X358774580Y-99190476D01*
X358774580Y-99190476D02*
X359060295Y-99190476D01*
X359060295Y-99190476D02*
X359441247Y-99095238D01*
X359441247Y-99095238D02*
X359631723Y-99000000D01*
X359631723Y-99000000D02*
X359822200Y-98809524D01*
X359822200Y-98809524D02*
X359917438Y-98523809D01*
X359917438Y-98523809D02*
X359917438Y-98047619D01*
X359917438Y-100047619D02*
X357917438Y-100047619D01*
X357917438Y-100809524D02*
X357917438Y-102047619D01*
X357917438Y-102047619D02*
X358679342Y-101380952D01*
X358679342Y-101380952D02*
X358679342Y-101666667D01*
X358679342Y-101666667D02*
X358774580Y-101857143D01*
X358774580Y-101857143D02*
X358869819Y-101952381D01*
X358869819Y-101952381D02*
X359060295Y-102047619D01*
X359060295Y-102047619D02*
X359536485Y-102047619D01*
X359536485Y-102047619D02*
X359726961Y-101952381D01*
X359726961Y-101952381D02*
X359822200Y-101857143D01*
X359822200Y-101857143D02*
X359917438Y-101666667D01*
X359917438Y-101666667D02*
X359917438Y-101095238D01*
X359917438Y-101095238D02*
X359822200Y-100904762D01*
X359822200Y-100904762D02*
X359726961Y-100809524D01*
X166072561Y-301994999D02*
X168072561Y-301994999D01*
X166072561Y-301042618D02*
X168072561Y-301042618D01*
X168072561Y-301042618D02*
X166072561Y-299899761D01*
X166072561Y-299899761D02*
X168072561Y-299899761D01*
X168072561Y-299137856D02*
X168072561Y-297899761D01*
X168072561Y-297899761D02*
X167310657Y-298566428D01*
X167310657Y-298566428D02*
X167310657Y-298280713D01*
X167310657Y-298280713D02*
X167215419Y-298090237D01*
X167215419Y-298090237D02*
X167120180Y-297994999D01*
X167120180Y-297994999D02*
X166929704Y-297899761D01*
X166929704Y-297899761D02*
X166453514Y-297899761D01*
X166453514Y-297899761D02*
X166263038Y-297994999D01*
X166263038Y-297994999D02*
X166167800Y-298090237D01*
X166167800Y-298090237D02*
X166072561Y-298280713D01*
X166072561Y-298280713D02*
X166072561Y-298852142D01*
X166072561Y-298852142D02*
X166167800Y-299042618D01*
X166167800Y-299042618D02*
X166263038Y-299137856D01*
X339112914Y-98484047D02*
X339017676Y-98579285D01*
X339017676Y-98579285D02*
X338922438Y-98769761D01*
X338922438Y-98769761D02*
X338922438Y-99245952D01*
X338922438Y-99245952D02*
X339017676Y-99436428D01*
X339017676Y-99436428D02*
X339112914Y-99531666D01*
X339112914Y-99531666D02*
X339303390Y-99626904D01*
X339303390Y-99626904D02*
X339493866Y-99626904D01*
X339493866Y-99626904D02*
X339779580Y-99531666D01*
X339779580Y-99531666D02*
X340922438Y-98388809D01*
X340922438Y-98388809D02*
X340922438Y-99626904D01*
X339589104Y-101341190D02*
X340922438Y-101341190D01*
X338827200Y-100864999D02*
X340255771Y-100388809D01*
X340255771Y-100388809D02*
X340255771Y-101626904D01*
X338922438Y-102103095D02*
X340922438Y-102769761D01*
X340922438Y-102769761D02*
X338922438Y-103436428D01*
X301987323Y-300523809D02*
X302082561Y-300714285D01*
X302082561Y-300714285D02*
X302082561Y-300999999D01*
X302082561Y-300999999D02*
X301987323Y-301285714D01*
X301987323Y-301285714D02*
X301796847Y-301476190D01*
X301796847Y-301476190D02*
X301606371Y-301571428D01*
X301606371Y-301571428D02*
X301225419Y-301666666D01*
X301225419Y-301666666D02*
X300939704Y-301666666D01*
X300939704Y-301666666D02*
X300558752Y-301571428D01*
X300558752Y-301571428D02*
X300368276Y-301476190D01*
X300368276Y-301476190D02*
X300177800Y-301285714D01*
X300177800Y-301285714D02*
X300082561Y-300999999D01*
X300082561Y-300999999D02*
X300082561Y-300809523D01*
X300082561Y-300809523D02*
X300177800Y-300523809D01*
X300177800Y-300523809D02*
X300273038Y-300428571D01*
X300273038Y-300428571D02*
X300939704Y-300428571D01*
X300939704Y-300428571D02*
X300939704Y-300809523D01*
X300082561Y-299571428D02*
X302082561Y-299571428D01*
X302082561Y-299571428D02*
X300082561Y-298428571D01*
X300082561Y-298428571D02*
X302082561Y-298428571D01*
X300082561Y-297476190D02*
X302082561Y-297476190D01*
X302082561Y-297476190D02*
X302082561Y-297000000D01*
X302082561Y-297000000D02*
X301987323Y-296714285D01*
X301987323Y-296714285D02*
X301796847Y-296523809D01*
X301796847Y-296523809D02*
X301606371Y-296428571D01*
X301606371Y-296428571D02*
X301225419Y-296333333D01*
X301225419Y-296333333D02*
X300939704Y-296333333D01*
X300939704Y-296333333D02*
X300558752Y-296428571D01*
X300558752Y-296428571D02*
X300368276Y-296523809D01*
X300368276Y-296523809D02*
X300177800Y-296714285D01*
X300177800Y-296714285D02*
X300082561Y-297000000D01*
X300082561Y-297000000D02*
X300082561Y-297476190D01*
X339082561Y-301922380D02*
X341082561Y-301922380D01*
X341082561Y-301922380D02*
X341082561Y-301446190D01*
X341082561Y-301446190D02*
X340987323Y-301160475D01*
X340987323Y-301160475D02*
X340796847Y-300969999D01*
X340796847Y-300969999D02*
X340606371Y-300874761D01*
X340606371Y-300874761D02*
X340225419Y-300779523D01*
X340225419Y-300779523D02*
X339939704Y-300779523D01*
X339939704Y-300779523D02*
X339558752Y-300874761D01*
X339558752Y-300874761D02*
X339368276Y-300969999D01*
X339368276Y-300969999D02*
X339177800Y-301160475D01*
X339177800Y-301160475D02*
X339082561Y-301446190D01*
X339082561Y-301446190D02*
X339082561Y-301922380D01*
X339082561Y-299922380D02*
X341082561Y-299922380D01*
X339082561Y-297922380D02*
X339082561Y-299065237D01*
X339082561Y-298493809D02*
X341082561Y-298493809D01*
X341082561Y-298493809D02*
X340796847Y-298684285D01*
X340796847Y-298684285D02*
X340606371Y-298874761D01*
X340606371Y-298874761D02*
X340511133Y-299065237D01*
X358072561Y-301994999D02*
X360072561Y-301994999D01*
X358072561Y-301042618D02*
X360072561Y-301042618D01*
X360072561Y-301042618D02*
X358072561Y-299899761D01*
X358072561Y-299899761D02*
X360072561Y-299899761D01*
X360072561Y-299137856D02*
X360072561Y-297899761D01*
X360072561Y-297899761D02*
X359310657Y-298566428D01*
X359310657Y-298566428D02*
X359310657Y-298280713D01*
X359310657Y-298280713D02*
X359215419Y-298090237D01*
X359215419Y-298090237D02*
X359120180Y-297994999D01*
X359120180Y-297994999D02*
X358929704Y-297899761D01*
X358929704Y-297899761D02*
X358453514Y-297899761D01*
X358453514Y-297899761D02*
X358263038Y-297994999D01*
X358263038Y-297994999D02*
X358167800Y-298090237D01*
X358167800Y-298090237D02*
X358072561Y-298280713D01*
X358072561Y-298280713D02*
X358072561Y-298852142D01*
X358072561Y-298852142D02*
X358167800Y-299042618D01*
X358167800Y-299042618D02*
X358263038Y-299137856D01*
X374895714Y-91927438D02*
X374895714Y-89927438D01*
X374895714Y-89927438D02*
X374419524Y-89927438D01*
X374419524Y-89927438D02*
X374133809Y-90022676D01*
X374133809Y-90022676D02*
X373943333Y-90213152D01*
X373943333Y-90213152D02*
X373848095Y-90403628D01*
X373848095Y-90403628D02*
X373752857Y-90784580D01*
X373752857Y-90784580D02*
X373752857Y-91070295D01*
X373752857Y-91070295D02*
X373848095Y-91451247D01*
X373848095Y-91451247D02*
X373943333Y-91641723D01*
X373943333Y-91641723D02*
X374133809Y-91832200D01*
X374133809Y-91832200D02*
X374419524Y-91927438D01*
X374419524Y-91927438D02*
X374895714Y-91927438D01*
X372895714Y-91927438D02*
X372895714Y-89927438D01*
X372038571Y-91832200D02*
X371752857Y-91927438D01*
X371752857Y-91927438D02*
X371276666Y-91927438D01*
X371276666Y-91927438D02*
X371086190Y-91832200D01*
X371086190Y-91832200D02*
X370990952Y-91736961D01*
X370990952Y-91736961D02*
X370895714Y-91546485D01*
X370895714Y-91546485D02*
X370895714Y-91356009D01*
X370895714Y-91356009D02*
X370990952Y-91165533D01*
X370990952Y-91165533D02*
X371086190Y-91070295D01*
X371086190Y-91070295D02*
X371276666Y-90975057D01*
X371276666Y-90975057D02*
X371657619Y-90879819D01*
X371657619Y-90879819D02*
X371848095Y-90784580D01*
X371848095Y-90784580D02*
X371943333Y-90689342D01*
X371943333Y-90689342D02*
X372038571Y-90498866D01*
X372038571Y-90498866D02*
X372038571Y-90308390D01*
X372038571Y-90308390D02*
X371943333Y-90117914D01*
X371943333Y-90117914D02*
X371848095Y-90022676D01*
X371848095Y-90022676D02*
X371657619Y-89927438D01*
X371657619Y-89927438D02*
X371181428Y-89927438D01*
X371181428Y-89927438D02*
X370895714Y-90022676D01*
X368895714Y-91736961D02*
X368990952Y-91832200D01*
X368990952Y-91832200D02*
X369276666Y-91927438D01*
X369276666Y-91927438D02*
X369467142Y-91927438D01*
X369467142Y-91927438D02*
X369752857Y-91832200D01*
X369752857Y-91832200D02*
X369943333Y-91641723D01*
X369943333Y-91641723D02*
X370038571Y-91451247D01*
X370038571Y-91451247D02*
X370133809Y-91070295D01*
X370133809Y-91070295D02*
X370133809Y-90784580D01*
X370133809Y-90784580D02*
X370038571Y-90403628D01*
X370038571Y-90403628D02*
X369943333Y-90213152D01*
X369943333Y-90213152D02*
X369752857Y-90022676D01*
X369752857Y-90022676D02*
X369467142Y-89927438D01*
X369467142Y-89927438D02*
X369276666Y-89927438D01*
X369276666Y-89927438D02*
X368990952Y-90022676D01*
X368990952Y-90022676D02*
X368895714Y-90117914D01*
X366895714Y-91927438D02*
X367562381Y-90975057D01*
X368038571Y-91927438D02*
X368038571Y-89927438D01*
X368038571Y-89927438D02*
X367276666Y-89927438D01*
X367276666Y-89927438D02*
X367086190Y-90022676D01*
X367086190Y-90022676D02*
X366990952Y-90117914D01*
X366990952Y-90117914D02*
X366895714Y-90308390D01*
X366895714Y-90308390D02*
X366895714Y-90594104D01*
X366895714Y-90594104D02*
X366990952Y-90784580D01*
X366990952Y-90784580D02*
X367086190Y-90879819D01*
X367086190Y-90879819D02*
X367276666Y-90975057D01*
X367276666Y-90975057D02*
X368038571Y-90975057D01*
X366038571Y-90879819D02*
X365371904Y-90879819D01*
X365086190Y-91927438D02*
X366038571Y-91927438D01*
X366038571Y-91927438D02*
X366038571Y-89927438D01*
X366038571Y-89927438D02*
X365086190Y-89927438D01*
X364514761Y-89927438D02*
X363371904Y-89927438D01*
X363943333Y-91927438D02*
X363943333Y-89927438D01*
X362705237Y-90879819D02*
X362038570Y-90879819D01*
X361752856Y-91927438D02*
X362705237Y-91927438D01*
X362705237Y-91927438D02*
X362705237Y-89927438D01*
X362705237Y-89927438D02*
X361752856Y-89927438D01*
X291012676Y-99476190D02*
X290917438Y-99285714D01*
X290917438Y-99285714D02*
X290917438Y-99000000D01*
X290917438Y-99000000D02*
X291012676Y-98714285D01*
X291012676Y-98714285D02*
X291203152Y-98523809D01*
X291203152Y-98523809D02*
X291393628Y-98428571D01*
X291393628Y-98428571D02*
X291774580Y-98333333D01*
X291774580Y-98333333D02*
X292060295Y-98333333D01*
X292060295Y-98333333D02*
X292441247Y-98428571D01*
X292441247Y-98428571D02*
X292631723Y-98523809D01*
X292631723Y-98523809D02*
X292822200Y-98714285D01*
X292822200Y-98714285D02*
X292917438Y-99000000D01*
X292917438Y-99000000D02*
X292917438Y-99190476D01*
X292917438Y-99190476D02*
X292822200Y-99476190D01*
X292822200Y-99476190D02*
X292726961Y-99571428D01*
X292726961Y-99571428D02*
X292060295Y-99571428D01*
X292060295Y-99571428D02*
X292060295Y-99190476D01*
X292917438Y-100428571D02*
X290917438Y-100428571D01*
X290917438Y-100428571D02*
X292917438Y-101571428D01*
X292917438Y-101571428D02*
X290917438Y-101571428D01*
X292917438Y-102523809D02*
X290917438Y-102523809D01*
X290917438Y-102523809D02*
X290917438Y-102999999D01*
X290917438Y-102999999D02*
X291012676Y-103285714D01*
X291012676Y-103285714D02*
X291203152Y-103476190D01*
X291203152Y-103476190D02*
X291393628Y-103571428D01*
X291393628Y-103571428D02*
X291774580Y-103666666D01*
X291774580Y-103666666D02*
X292060295Y-103666666D01*
X292060295Y-103666666D02*
X292441247Y-103571428D01*
X292441247Y-103571428D02*
X292631723Y-103476190D01*
X292631723Y-103476190D02*
X292822200Y-103285714D01*
X292822200Y-103285714D02*
X292917438Y-102999999D01*
X292917438Y-102999999D02*
X292917438Y-102523809D01*
X287917438Y-98476190D02*
X285917438Y-98476190D01*
X285917438Y-98476190D02*
X285917438Y-98952380D01*
X285917438Y-98952380D02*
X286012676Y-99238095D01*
X286012676Y-99238095D02*
X286203152Y-99428571D01*
X286203152Y-99428571D02*
X286393628Y-99523809D01*
X286393628Y-99523809D02*
X286774580Y-99619047D01*
X286774580Y-99619047D02*
X287060295Y-99619047D01*
X287060295Y-99619047D02*
X287441247Y-99523809D01*
X287441247Y-99523809D02*
X287631723Y-99428571D01*
X287631723Y-99428571D02*
X287822200Y-99238095D01*
X287822200Y-99238095D02*
X287917438Y-98952380D01*
X287917438Y-98952380D02*
X287917438Y-98476190D01*
X285917438Y-100857142D02*
X285917438Y-101238095D01*
X285917438Y-101238095D02*
X286012676Y-101428571D01*
X286012676Y-101428571D02*
X286203152Y-101619047D01*
X286203152Y-101619047D02*
X286584104Y-101714285D01*
X286584104Y-101714285D02*
X287250771Y-101714285D01*
X287250771Y-101714285D02*
X287631723Y-101619047D01*
X287631723Y-101619047D02*
X287822200Y-101428571D01*
X287822200Y-101428571D02*
X287917438Y-101238095D01*
X287917438Y-101238095D02*
X287917438Y-100857142D01*
X287917438Y-100857142D02*
X287822200Y-100666666D01*
X287822200Y-100666666D02*
X287631723Y-100476190D01*
X287631723Y-100476190D02*
X287250771Y-100380952D01*
X287250771Y-100380952D02*
X286584104Y-100380952D01*
X286584104Y-100380952D02*
X286203152Y-100476190D01*
X286203152Y-100476190D02*
X286012676Y-100666666D01*
X286012676Y-100666666D02*
X285917438Y-100857142D01*
X286107914Y-102476190D02*
X286012676Y-102571428D01*
X286012676Y-102571428D02*
X285917438Y-102761904D01*
X285917438Y-102761904D02*
X285917438Y-103238095D01*
X285917438Y-103238095D02*
X286012676Y-103428571D01*
X286012676Y-103428571D02*
X286107914Y-103523809D01*
X286107914Y-103523809D02*
X286298390Y-103619047D01*
X286298390Y-103619047D02*
X286488866Y-103619047D01*
X286488866Y-103619047D02*
X286774580Y-103523809D01*
X286774580Y-103523809D02*
X287917438Y-102380952D01*
X287917438Y-102380952D02*
X287917438Y-103619047D01*
X424630952Y-198822200D02*
X424345238Y-198917438D01*
X424345238Y-198917438D02*
X423869047Y-198917438D01*
X423869047Y-198917438D02*
X423678571Y-198822200D01*
X423678571Y-198822200D02*
X423583333Y-198726961D01*
X423583333Y-198726961D02*
X423488095Y-198536485D01*
X423488095Y-198536485D02*
X423488095Y-198346009D01*
X423488095Y-198346009D02*
X423583333Y-198155533D01*
X423583333Y-198155533D02*
X423678571Y-198060295D01*
X423678571Y-198060295D02*
X423869047Y-197965057D01*
X423869047Y-197965057D02*
X424250000Y-197869819D01*
X424250000Y-197869819D02*
X424440476Y-197774580D01*
X424440476Y-197774580D02*
X424535714Y-197679342D01*
X424535714Y-197679342D02*
X424630952Y-197488866D01*
X424630952Y-197488866D02*
X424630952Y-197298390D01*
X424630952Y-197298390D02*
X424535714Y-197107914D01*
X424535714Y-197107914D02*
X424440476Y-197012676D01*
X424440476Y-197012676D02*
X424250000Y-196917438D01*
X424250000Y-196917438D02*
X423773809Y-196917438D01*
X423773809Y-196917438D02*
X423488095Y-197012676D01*
X421488095Y-198726961D02*
X421583333Y-198822200D01*
X421583333Y-198822200D02*
X421869047Y-198917438D01*
X421869047Y-198917438D02*
X422059523Y-198917438D01*
X422059523Y-198917438D02*
X422345238Y-198822200D01*
X422345238Y-198822200D02*
X422535714Y-198631723D01*
X422535714Y-198631723D02*
X422630952Y-198441247D01*
X422630952Y-198441247D02*
X422726190Y-198060295D01*
X422726190Y-198060295D02*
X422726190Y-197774580D01*
X422726190Y-197774580D02*
X422630952Y-197393628D01*
X422630952Y-197393628D02*
X422535714Y-197203152D01*
X422535714Y-197203152D02*
X422345238Y-197012676D01*
X422345238Y-197012676D02*
X422059523Y-196917438D01*
X422059523Y-196917438D02*
X421869047Y-196917438D01*
X421869047Y-196917438D02*
X421583333Y-197012676D01*
X421583333Y-197012676D02*
X421488095Y-197107914D01*
X419678571Y-198917438D02*
X420630952Y-198917438D01*
X420630952Y-198917438D02*
X420630952Y-196917438D01*
X411077561Y-301918809D02*
X413077561Y-301918809D01*
X413077561Y-301918809D02*
X413077561Y-301442619D01*
X413077561Y-301442619D02*
X412982323Y-301156904D01*
X412982323Y-301156904D02*
X412791847Y-300966428D01*
X412791847Y-300966428D02*
X412601371Y-300871190D01*
X412601371Y-300871190D02*
X412220419Y-300775952D01*
X412220419Y-300775952D02*
X411934704Y-300775952D01*
X411934704Y-300775952D02*
X411553752Y-300871190D01*
X411553752Y-300871190D02*
X411363276Y-300966428D01*
X411363276Y-300966428D02*
X411172800Y-301156904D01*
X411172800Y-301156904D02*
X411077561Y-301442619D01*
X411077561Y-301442619D02*
X411077561Y-301918809D01*
X413077561Y-299537857D02*
X413077561Y-299156904D01*
X413077561Y-299156904D02*
X412982323Y-298966428D01*
X412982323Y-298966428D02*
X412791847Y-298775952D01*
X412791847Y-298775952D02*
X412410895Y-298680714D01*
X412410895Y-298680714D02*
X411744228Y-298680714D01*
X411744228Y-298680714D02*
X411363276Y-298775952D01*
X411363276Y-298775952D02*
X411172800Y-298966428D01*
X411172800Y-298966428D02*
X411077561Y-299156904D01*
X411077561Y-299156904D02*
X411077561Y-299537857D01*
X411077561Y-299537857D02*
X411172800Y-299728333D01*
X411172800Y-299728333D02*
X411363276Y-299918809D01*
X411363276Y-299918809D02*
X411744228Y-300014047D01*
X411744228Y-300014047D02*
X412410895Y-300014047D01*
X412410895Y-300014047D02*
X412791847Y-299918809D01*
X412791847Y-299918809D02*
X412982323Y-299728333D01*
X412982323Y-299728333D02*
X413077561Y-299537857D01*
X411077561Y-296775952D02*
X411077561Y-297918809D01*
X411077561Y-297347381D02*
X413077561Y-297347381D01*
X413077561Y-297347381D02*
X412791847Y-297537857D01*
X412791847Y-297537857D02*
X412601371Y-297728333D01*
X412601371Y-297728333D02*
X412506133Y-297918809D01*
X311987323Y-300523809D02*
X312082561Y-300714285D01*
X312082561Y-300714285D02*
X312082561Y-300999999D01*
X312082561Y-300999999D02*
X311987323Y-301285714D01*
X311987323Y-301285714D02*
X311796847Y-301476190D01*
X311796847Y-301476190D02*
X311606371Y-301571428D01*
X311606371Y-301571428D02*
X311225419Y-301666666D01*
X311225419Y-301666666D02*
X310939704Y-301666666D01*
X310939704Y-301666666D02*
X310558752Y-301571428D01*
X310558752Y-301571428D02*
X310368276Y-301476190D01*
X310368276Y-301476190D02*
X310177800Y-301285714D01*
X310177800Y-301285714D02*
X310082561Y-300999999D01*
X310082561Y-300999999D02*
X310082561Y-300809523D01*
X310082561Y-300809523D02*
X310177800Y-300523809D01*
X310177800Y-300523809D02*
X310273038Y-300428571D01*
X310273038Y-300428571D02*
X310939704Y-300428571D01*
X310939704Y-300428571D02*
X310939704Y-300809523D01*
X310082561Y-299571428D02*
X312082561Y-299571428D01*
X312082561Y-299571428D02*
X310082561Y-298428571D01*
X310082561Y-298428571D02*
X312082561Y-298428571D01*
X310082561Y-297476190D02*
X312082561Y-297476190D01*
X312082561Y-297476190D02*
X312082561Y-297000000D01*
X312082561Y-297000000D02*
X311987323Y-296714285D01*
X311987323Y-296714285D02*
X311796847Y-296523809D01*
X311796847Y-296523809D02*
X311606371Y-296428571D01*
X311606371Y-296428571D02*
X311225419Y-296333333D01*
X311225419Y-296333333D02*
X310939704Y-296333333D01*
X310939704Y-296333333D02*
X310558752Y-296428571D01*
X310558752Y-296428571D02*
X310368276Y-296523809D01*
X310368276Y-296523809D02*
X310177800Y-296714285D01*
X310177800Y-296714285D02*
X310082561Y-297000000D01*
X310082561Y-297000000D02*
X310082561Y-297476190D01*
X180067561Y-301989999D02*
X182067561Y-301989999D01*
X180067561Y-301037618D02*
X182067561Y-301037618D01*
X182067561Y-301037618D02*
X180067561Y-299894761D01*
X180067561Y-299894761D02*
X182067561Y-299894761D01*
X181877085Y-299037618D02*
X181972323Y-298942380D01*
X181972323Y-298942380D02*
X182067561Y-298751904D01*
X182067561Y-298751904D02*
X182067561Y-298275713D01*
X182067561Y-298275713D02*
X181972323Y-298085237D01*
X181972323Y-298085237D02*
X181877085Y-297989999D01*
X181877085Y-297989999D02*
X181686609Y-297894761D01*
X181686609Y-297894761D02*
X181496133Y-297894761D01*
X181496133Y-297894761D02*
X181210419Y-297989999D01*
X181210419Y-297989999D02*
X180067561Y-299132856D01*
X180067561Y-299132856D02*
X180067561Y-297894761D01*
X279285714Y-91917438D02*
X279285714Y-89917438D01*
X279285714Y-89917438D02*
X278809524Y-89917438D01*
X278809524Y-89917438D02*
X278523809Y-90012676D01*
X278523809Y-90012676D02*
X278333333Y-90203152D01*
X278333333Y-90203152D02*
X278238095Y-90393628D01*
X278238095Y-90393628D02*
X278142857Y-90774580D01*
X278142857Y-90774580D02*
X278142857Y-91060295D01*
X278142857Y-91060295D02*
X278238095Y-91441247D01*
X278238095Y-91441247D02*
X278333333Y-91631723D01*
X278333333Y-91631723D02*
X278523809Y-91822200D01*
X278523809Y-91822200D02*
X278809524Y-91917438D01*
X278809524Y-91917438D02*
X279285714Y-91917438D01*
X277285714Y-91917438D02*
X277285714Y-89917438D01*
X276428571Y-91822200D02*
X276142857Y-91917438D01*
X276142857Y-91917438D02*
X275666666Y-91917438D01*
X275666666Y-91917438D02*
X275476190Y-91822200D01*
X275476190Y-91822200D02*
X275380952Y-91726961D01*
X275380952Y-91726961D02*
X275285714Y-91536485D01*
X275285714Y-91536485D02*
X275285714Y-91346009D01*
X275285714Y-91346009D02*
X275380952Y-91155533D01*
X275380952Y-91155533D02*
X275476190Y-91060295D01*
X275476190Y-91060295D02*
X275666666Y-90965057D01*
X275666666Y-90965057D02*
X276047619Y-90869819D01*
X276047619Y-90869819D02*
X276238095Y-90774580D01*
X276238095Y-90774580D02*
X276333333Y-90679342D01*
X276333333Y-90679342D02*
X276428571Y-90488866D01*
X276428571Y-90488866D02*
X276428571Y-90298390D01*
X276428571Y-90298390D02*
X276333333Y-90107914D01*
X276333333Y-90107914D02*
X276238095Y-90012676D01*
X276238095Y-90012676D02*
X276047619Y-89917438D01*
X276047619Y-89917438D02*
X275571428Y-89917438D01*
X275571428Y-89917438D02*
X275285714Y-90012676D01*
X273285714Y-91726961D02*
X273380952Y-91822200D01*
X273380952Y-91822200D02*
X273666666Y-91917438D01*
X273666666Y-91917438D02*
X273857142Y-91917438D01*
X273857142Y-91917438D02*
X274142857Y-91822200D01*
X274142857Y-91822200D02*
X274333333Y-91631723D01*
X274333333Y-91631723D02*
X274428571Y-91441247D01*
X274428571Y-91441247D02*
X274523809Y-91060295D01*
X274523809Y-91060295D02*
X274523809Y-90774580D01*
X274523809Y-90774580D02*
X274428571Y-90393628D01*
X274428571Y-90393628D02*
X274333333Y-90203152D01*
X274333333Y-90203152D02*
X274142857Y-90012676D01*
X274142857Y-90012676D02*
X273857142Y-89917438D01*
X273857142Y-89917438D02*
X273666666Y-89917438D01*
X273666666Y-89917438D02*
X273380952Y-90012676D01*
X273380952Y-90012676D02*
X273285714Y-90107914D01*
X271285714Y-91917438D02*
X271952381Y-90965057D01*
X272428571Y-91917438D02*
X272428571Y-89917438D01*
X272428571Y-89917438D02*
X271666666Y-89917438D01*
X271666666Y-89917438D02*
X271476190Y-90012676D01*
X271476190Y-90012676D02*
X271380952Y-90107914D01*
X271380952Y-90107914D02*
X271285714Y-90298390D01*
X271285714Y-90298390D02*
X271285714Y-90584104D01*
X271285714Y-90584104D02*
X271380952Y-90774580D01*
X271380952Y-90774580D02*
X271476190Y-90869819D01*
X271476190Y-90869819D02*
X271666666Y-90965057D01*
X271666666Y-90965057D02*
X272428571Y-90965057D01*
X270428571Y-90869819D02*
X269761904Y-90869819D01*
X269476190Y-91917438D02*
X270428571Y-91917438D01*
X270428571Y-91917438D02*
X270428571Y-89917438D01*
X270428571Y-89917438D02*
X269476190Y-89917438D01*
X268904761Y-89917438D02*
X267761904Y-89917438D01*
X268333333Y-91917438D02*
X268333333Y-89917438D01*
X267095237Y-90869819D02*
X266428570Y-90869819D01*
X266142856Y-91917438D02*
X267095237Y-91917438D01*
X267095237Y-91917438D02*
X267095237Y-89917438D01*
X267095237Y-89917438D02*
X266142856Y-89917438D01*
X354927438Y-98047619D02*
X352927438Y-98047619D01*
X352927438Y-98047619D02*
X352927438Y-98523809D01*
X352927438Y-98523809D02*
X353022676Y-98809524D01*
X353022676Y-98809524D02*
X353213152Y-99000000D01*
X353213152Y-99000000D02*
X353403628Y-99095238D01*
X353403628Y-99095238D02*
X353784580Y-99190476D01*
X353784580Y-99190476D02*
X354070295Y-99190476D01*
X354070295Y-99190476D02*
X354451247Y-99095238D01*
X354451247Y-99095238D02*
X354641723Y-99000000D01*
X354641723Y-99000000D02*
X354832200Y-98809524D01*
X354832200Y-98809524D02*
X354927438Y-98523809D01*
X354927438Y-98523809D02*
X354927438Y-98047619D01*
X354927438Y-100047619D02*
X352927438Y-100047619D01*
X353117914Y-100904762D02*
X353022676Y-101000000D01*
X353022676Y-101000000D02*
X352927438Y-101190476D01*
X352927438Y-101190476D02*
X352927438Y-101666667D01*
X352927438Y-101666667D02*
X353022676Y-101857143D01*
X353022676Y-101857143D02*
X353117914Y-101952381D01*
X353117914Y-101952381D02*
X353308390Y-102047619D01*
X353308390Y-102047619D02*
X353498866Y-102047619D01*
X353498866Y-102047619D02*
X353784580Y-101952381D01*
X353784580Y-101952381D02*
X354927438Y-100809524D01*
X354927438Y-100809524D02*
X354927438Y-102047619D01*
X355082561Y-301457381D02*
X355082561Y-301076428D01*
X355082561Y-301076428D02*
X354987323Y-300885952D01*
X354987323Y-300885952D02*
X354796847Y-300695476D01*
X354796847Y-300695476D02*
X354415895Y-300600238D01*
X354415895Y-300600238D02*
X353749228Y-300600238D01*
X353749228Y-300600238D02*
X353368276Y-300695476D01*
X353368276Y-300695476D02*
X353177800Y-300885952D01*
X353177800Y-300885952D02*
X353082561Y-301076428D01*
X353082561Y-301076428D02*
X353082561Y-301457381D01*
X353082561Y-301457381D02*
X353177800Y-301647857D01*
X353177800Y-301647857D02*
X353368276Y-301838333D01*
X353368276Y-301838333D02*
X353749228Y-301933571D01*
X353749228Y-301933571D02*
X354415895Y-301933571D01*
X354415895Y-301933571D02*
X354796847Y-301838333D01*
X354796847Y-301838333D02*
X354987323Y-301647857D01*
X354987323Y-301647857D02*
X355082561Y-301457381D01*
X355082561Y-299743095D02*
X353463514Y-299743095D01*
X353463514Y-299743095D02*
X353273038Y-299647857D01*
X353273038Y-299647857D02*
X353177800Y-299552619D01*
X353177800Y-299552619D02*
X353082561Y-299362143D01*
X353082561Y-299362143D02*
X353082561Y-298981190D01*
X353082561Y-298981190D02*
X353177800Y-298790714D01*
X353177800Y-298790714D02*
X353273038Y-298695476D01*
X353273038Y-298695476D02*
X353463514Y-298600238D01*
X353463514Y-298600238D02*
X355082561Y-298600238D01*
X355082561Y-297933571D02*
X355082561Y-296790714D01*
X353082561Y-297362143D02*
X355082561Y-297362143D01*
X353082561Y-295076428D02*
X353082561Y-296219285D01*
X353082561Y-295647857D02*
X355082561Y-295647857D01*
X355082561Y-295647857D02*
X354796847Y-295838333D01*
X354796847Y-295838333D02*
X354606371Y-296028809D01*
X354606371Y-296028809D02*
X354511133Y-296219285D01*
X364917438Y-98047619D02*
X362917438Y-98047619D01*
X362917438Y-98047619D02*
X362917438Y-98523809D01*
X362917438Y-98523809D02*
X363012676Y-98809524D01*
X363012676Y-98809524D02*
X363203152Y-99000000D01*
X363203152Y-99000000D02*
X363393628Y-99095238D01*
X363393628Y-99095238D02*
X363774580Y-99190476D01*
X363774580Y-99190476D02*
X364060295Y-99190476D01*
X364060295Y-99190476D02*
X364441247Y-99095238D01*
X364441247Y-99095238D02*
X364631723Y-99000000D01*
X364631723Y-99000000D02*
X364822200Y-98809524D01*
X364822200Y-98809524D02*
X364917438Y-98523809D01*
X364917438Y-98523809D02*
X364917438Y-98047619D01*
X364917438Y-100047619D02*
X362917438Y-100047619D01*
X363584104Y-101857143D02*
X364917438Y-101857143D01*
X362822200Y-101380952D02*
X364250771Y-100904762D01*
X364250771Y-100904762D02*
X364250771Y-102142857D01*
X185012676Y-98511190D02*
X184917438Y-98320714D01*
X184917438Y-98320714D02*
X184917438Y-98035000D01*
X184917438Y-98035000D02*
X185012676Y-97749285D01*
X185012676Y-97749285D02*
X185203152Y-97558809D01*
X185203152Y-97558809D02*
X185393628Y-97463571D01*
X185393628Y-97463571D02*
X185774580Y-97368333D01*
X185774580Y-97368333D02*
X186060295Y-97368333D01*
X186060295Y-97368333D02*
X186441247Y-97463571D01*
X186441247Y-97463571D02*
X186631723Y-97558809D01*
X186631723Y-97558809D02*
X186822200Y-97749285D01*
X186822200Y-97749285D02*
X186917438Y-98035000D01*
X186917438Y-98035000D02*
X186917438Y-98225476D01*
X186917438Y-98225476D02*
X186822200Y-98511190D01*
X186822200Y-98511190D02*
X186726961Y-98606428D01*
X186726961Y-98606428D02*
X186060295Y-98606428D01*
X186060295Y-98606428D02*
X186060295Y-98225476D01*
X186917438Y-99463571D02*
X184917438Y-99463571D01*
X184917438Y-99463571D02*
X186917438Y-100606428D01*
X186917438Y-100606428D02*
X184917438Y-100606428D01*
X186917438Y-101558809D02*
X184917438Y-101558809D01*
X184917438Y-101558809D02*
X184917438Y-102034999D01*
X184917438Y-102034999D02*
X185012676Y-102320714D01*
X185012676Y-102320714D02*
X185203152Y-102511190D01*
X185203152Y-102511190D02*
X185393628Y-102606428D01*
X185393628Y-102606428D02*
X185774580Y-102701666D01*
X185774580Y-102701666D02*
X186060295Y-102701666D01*
X186060295Y-102701666D02*
X186441247Y-102606428D01*
X186441247Y-102606428D02*
X186631723Y-102511190D01*
X186631723Y-102511190D02*
X186822200Y-102320714D01*
X186822200Y-102320714D02*
X186917438Y-102034999D01*
X186917438Y-102034999D02*
X186917438Y-101558809D01*
X333922438Y-98047618D02*
X333922438Y-98428571D01*
X333922438Y-98428571D02*
X334017676Y-98619047D01*
X334017676Y-98619047D02*
X334208152Y-98809523D01*
X334208152Y-98809523D02*
X334589104Y-98904761D01*
X334589104Y-98904761D02*
X335255771Y-98904761D01*
X335255771Y-98904761D02*
X335636723Y-98809523D01*
X335636723Y-98809523D02*
X335827200Y-98619047D01*
X335827200Y-98619047D02*
X335922438Y-98428571D01*
X335922438Y-98428571D02*
X335922438Y-98047618D01*
X335922438Y-98047618D02*
X335827200Y-97857142D01*
X335827200Y-97857142D02*
X335636723Y-97666666D01*
X335636723Y-97666666D02*
X335255771Y-97571428D01*
X335255771Y-97571428D02*
X334589104Y-97571428D01*
X334589104Y-97571428D02*
X334208152Y-97666666D01*
X334208152Y-97666666D02*
X334017676Y-97857142D01*
X334017676Y-97857142D02*
X333922438Y-98047618D01*
X333922438Y-99761904D02*
X335541485Y-99761904D01*
X335541485Y-99761904D02*
X335731961Y-99857142D01*
X335731961Y-99857142D02*
X335827200Y-99952380D01*
X335827200Y-99952380D02*
X335922438Y-100142856D01*
X335922438Y-100142856D02*
X335922438Y-100523809D01*
X335922438Y-100523809D02*
X335827200Y-100714285D01*
X335827200Y-100714285D02*
X335731961Y-100809523D01*
X335731961Y-100809523D02*
X335541485Y-100904761D01*
X335541485Y-100904761D02*
X333922438Y-100904761D01*
X333922438Y-101571428D02*
X333922438Y-102714285D01*
X335922438Y-102142856D02*
X333922438Y-102142856D01*
X335922438Y-104428571D02*
X335922438Y-103285714D01*
X335922438Y-103857142D02*
X333922438Y-103857142D01*
X333922438Y-103857142D02*
X334208152Y-103666666D01*
X334208152Y-103666666D02*
X334398628Y-103476190D01*
X334398628Y-103476190D02*
X334493866Y-103285714D01*
X326965714Y-309917438D02*
X326965714Y-307917438D01*
X326965714Y-307917438D02*
X326489524Y-307917438D01*
X326489524Y-307917438D02*
X326203809Y-308012676D01*
X326203809Y-308012676D02*
X326013333Y-308203152D01*
X326013333Y-308203152D02*
X325918095Y-308393628D01*
X325918095Y-308393628D02*
X325822857Y-308774580D01*
X325822857Y-308774580D02*
X325822857Y-309060295D01*
X325822857Y-309060295D02*
X325918095Y-309441247D01*
X325918095Y-309441247D02*
X326013333Y-309631723D01*
X326013333Y-309631723D02*
X326203809Y-309822200D01*
X326203809Y-309822200D02*
X326489524Y-309917438D01*
X326489524Y-309917438D02*
X326965714Y-309917438D01*
X324965714Y-309917438D02*
X324965714Y-307917438D01*
X324108571Y-309822200D02*
X323822857Y-309917438D01*
X323822857Y-309917438D02*
X323346666Y-309917438D01*
X323346666Y-309917438D02*
X323156190Y-309822200D01*
X323156190Y-309822200D02*
X323060952Y-309726961D01*
X323060952Y-309726961D02*
X322965714Y-309536485D01*
X322965714Y-309536485D02*
X322965714Y-309346009D01*
X322965714Y-309346009D02*
X323060952Y-309155533D01*
X323060952Y-309155533D02*
X323156190Y-309060295D01*
X323156190Y-309060295D02*
X323346666Y-308965057D01*
X323346666Y-308965057D02*
X323727619Y-308869819D01*
X323727619Y-308869819D02*
X323918095Y-308774580D01*
X323918095Y-308774580D02*
X324013333Y-308679342D01*
X324013333Y-308679342D02*
X324108571Y-308488866D01*
X324108571Y-308488866D02*
X324108571Y-308298390D01*
X324108571Y-308298390D02*
X324013333Y-308107914D01*
X324013333Y-308107914D02*
X323918095Y-308012676D01*
X323918095Y-308012676D02*
X323727619Y-307917438D01*
X323727619Y-307917438D02*
X323251428Y-307917438D01*
X323251428Y-307917438D02*
X322965714Y-308012676D01*
X320965714Y-309726961D02*
X321060952Y-309822200D01*
X321060952Y-309822200D02*
X321346666Y-309917438D01*
X321346666Y-309917438D02*
X321537142Y-309917438D01*
X321537142Y-309917438D02*
X321822857Y-309822200D01*
X321822857Y-309822200D02*
X322013333Y-309631723D01*
X322013333Y-309631723D02*
X322108571Y-309441247D01*
X322108571Y-309441247D02*
X322203809Y-309060295D01*
X322203809Y-309060295D02*
X322203809Y-308774580D01*
X322203809Y-308774580D02*
X322108571Y-308393628D01*
X322108571Y-308393628D02*
X322013333Y-308203152D01*
X322013333Y-308203152D02*
X321822857Y-308012676D01*
X321822857Y-308012676D02*
X321537142Y-307917438D01*
X321537142Y-307917438D02*
X321346666Y-307917438D01*
X321346666Y-307917438D02*
X321060952Y-308012676D01*
X321060952Y-308012676D02*
X320965714Y-308107914D01*
X318965714Y-309917438D02*
X319632381Y-308965057D01*
X320108571Y-309917438D02*
X320108571Y-307917438D01*
X320108571Y-307917438D02*
X319346666Y-307917438D01*
X319346666Y-307917438D02*
X319156190Y-308012676D01*
X319156190Y-308012676D02*
X319060952Y-308107914D01*
X319060952Y-308107914D02*
X318965714Y-308298390D01*
X318965714Y-308298390D02*
X318965714Y-308584104D01*
X318965714Y-308584104D02*
X319060952Y-308774580D01*
X319060952Y-308774580D02*
X319156190Y-308869819D01*
X319156190Y-308869819D02*
X319346666Y-308965057D01*
X319346666Y-308965057D02*
X320108571Y-308965057D01*
X318108571Y-308869819D02*
X317441904Y-308869819D01*
X317156190Y-309917438D02*
X318108571Y-309917438D01*
X318108571Y-309917438D02*
X318108571Y-307917438D01*
X318108571Y-307917438D02*
X317156190Y-307917438D01*
X316584761Y-307917438D02*
X315441904Y-307917438D01*
X316013333Y-309917438D02*
X316013333Y-307917438D01*
X314775237Y-308869819D02*
X314108570Y-308869819D01*
X313822856Y-309917438D02*
X314775237Y-309917438D01*
X314775237Y-309917438D02*
X314775237Y-307917438D01*
X314775237Y-307917438D02*
X313822856Y-307917438D01*
X300107914Y-97654047D02*
X300012676Y-97749285D01*
X300012676Y-97749285D02*
X299917438Y-97939761D01*
X299917438Y-97939761D02*
X299917438Y-98415952D01*
X299917438Y-98415952D02*
X300012676Y-98606428D01*
X300012676Y-98606428D02*
X300107914Y-98701666D01*
X300107914Y-98701666D02*
X300298390Y-98796904D01*
X300298390Y-98796904D02*
X300488866Y-98796904D01*
X300488866Y-98796904D02*
X300774580Y-98701666D01*
X300774580Y-98701666D02*
X301917438Y-97558809D01*
X301917438Y-97558809D02*
X301917438Y-98796904D01*
X300584104Y-100511190D02*
X301917438Y-100511190D01*
X299822200Y-100034999D02*
X301250771Y-99558809D01*
X301250771Y-99558809D02*
X301250771Y-100796904D01*
X299917438Y-101273095D02*
X301917438Y-101939761D01*
X301917438Y-101939761D02*
X299917438Y-102606428D01*
X377012676Y-98551190D02*
X376917438Y-98360714D01*
X376917438Y-98360714D02*
X376917438Y-98075000D01*
X376917438Y-98075000D02*
X377012676Y-97789285D01*
X377012676Y-97789285D02*
X377203152Y-97598809D01*
X377203152Y-97598809D02*
X377393628Y-97503571D01*
X377393628Y-97503571D02*
X377774580Y-97408333D01*
X377774580Y-97408333D02*
X378060295Y-97408333D01*
X378060295Y-97408333D02*
X378441247Y-97503571D01*
X378441247Y-97503571D02*
X378631723Y-97598809D01*
X378631723Y-97598809D02*
X378822200Y-97789285D01*
X378822200Y-97789285D02*
X378917438Y-98075000D01*
X378917438Y-98075000D02*
X378917438Y-98265476D01*
X378917438Y-98265476D02*
X378822200Y-98551190D01*
X378822200Y-98551190D02*
X378726961Y-98646428D01*
X378726961Y-98646428D02*
X378060295Y-98646428D01*
X378060295Y-98646428D02*
X378060295Y-98265476D01*
X378917438Y-99503571D02*
X376917438Y-99503571D01*
X376917438Y-99503571D02*
X378917438Y-100646428D01*
X378917438Y-100646428D02*
X376917438Y-100646428D01*
X378917438Y-101598809D02*
X376917438Y-101598809D01*
X376917438Y-101598809D02*
X376917438Y-102074999D01*
X376917438Y-102074999D02*
X377012676Y-102360714D01*
X377012676Y-102360714D02*
X377203152Y-102551190D01*
X377203152Y-102551190D02*
X377393628Y-102646428D01*
X377393628Y-102646428D02*
X377774580Y-102741666D01*
X377774580Y-102741666D02*
X378060295Y-102741666D01*
X378060295Y-102741666D02*
X378441247Y-102646428D01*
X378441247Y-102646428D02*
X378631723Y-102551190D01*
X378631723Y-102551190D02*
X378822200Y-102360714D01*
X378822200Y-102360714D02*
X378917438Y-102074999D01*
X378917438Y-102074999D02*
X378917438Y-101598809D01*
X310107914Y-97654047D02*
X310012676Y-97749285D01*
X310012676Y-97749285D02*
X309917438Y-97939761D01*
X309917438Y-97939761D02*
X309917438Y-98415952D01*
X309917438Y-98415952D02*
X310012676Y-98606428D01*
X310012676Y-98606428D02*
X310107914Y-98701666D01*
X310107914Y-98701666D02*
X310298390Y-98796904D01*
X310298390Y-98796904D02*
X310488866Y-98796904D01*
X310488866Y-98796904D02*
X310774580Y-98701666D01*
X310774580Y-98701666D02*
X311917438Y-97558809D01*
X311917438Y-97558809D02*
X311917438Y-98796904D01*
X310584104Y-100511190D02*
X311917438Y-100511190D01*
X309822200Y-100034999D02*
X311250771Y-99558809D01*
X311250771Y-99558809D02*
X311250771Y-100796904D01*
X309917438Y-101273095D02*
X311917438Y-101939761D01*
X311917438Y-101939761D02*
X309917438Y-102606428D01*
X243082561Y-301947380D02*
X245082561Y-301947380D01*
X245082561Y-301947380D02*
X245082561Y-301471190D01*
X245082561Y-301471190D02*
X244987323Y-301185475D01*
X244987323Y-301185475D02*
X244796847Y-300994999D01*
X244796847Y-300994999D02*
X244606371Y-300899761D01*
X244606371Y-300899761D02*
X244225419Y-300804523D01*
X244225419Y-300804523D02*
X243939704Y-300804523D01*
X243939704Y-300804523D02*
X243558752Y-300899761D01*
X243558752Y-300899761D02*
X243368276Y-300994999D01*
X243368276Y-300994999D02*
X243177800Y-301185475D01*
X243177800Y-301185475D02*
X243082561Y-301471190D01*
X243082561Y-301471190D02*
X243082561Y-301947380D01*
X243082561Y-299947380D02*
X245082561Y-299947380D01*
X243082561Y-297947380D02*
X243082561Y-299090237D01*
X243082561Y-298518809D02*
X245082561Y-298518809D01*
X245082561Y-298518809D02*
X244796847Y-298709285D01*
X244796847Y-298709285D02*
X244606371Y-298899761D01*
X244606371Y-298899761D02*
X244511133Y-299090237D01*
X420107914Y-97719047D02*
X420012676Y-97814285D01*
X420012676Y-97814285D02*
X419917438Y-98004761D01*
X419917438Y-98004761D02*
X419917438Y-98480952D01*
X419917438Y-98480952D02*
X420012676Y-98671428D01*
X420012676Y-98671428D02*
X420107914Y-98766666D01*
X420107914Y-98766666D02*
X420298390Y-98861904D01*
X420298390Y-98861904D02*
X420488866Y-98861904D01*
X420488866Y-98861904D02*
X420774580Y-98766666D01*
X420774580Y-98766666D02*
X421917438Y-97623809D01*
X421917438Y-97623809D02*
X421917438Y-98861904D01*
X420584104Y-100576190D02*
X421917438Y-100576190D01*
X419822200Y-100099999D02*
X421250771Y-99623809D01*
X421250771Y-99623809D02*
X421250771Y-100861904D01*
X419917438Y-101338095D02*
X421917438Y-102004761D01*
X421917438Y-102004761D02*
X419917438Y-102671428D01*
X420952380Y-90584104D02*
X420952380Y-91917438D01*
X421428571Y-89822200D02*
X421904761Y-91250771D01*
X421904761Y-91250771D02*
X420666666Y-91250771D01*
X419904761Y-91155533D02*
X418380952Y-91155533D01*
X417523809Y-90107914D02*
X417428571Y-90012676D01*
X417428571Y-90012676D02*
X417238095Y-89917438D01*
X417238095Y-89917438D02*
X416761904Y-89917438D01*
X416761904Y-89917438D02*
X416571428Y-90012676D01*
X416571428Y-90012676D02*
X416476190Y-90107914D01*
X416476190Y-90107914D02*
X416380952Y-90298390D01*
X416380952Y-90298390D02*
X416380952Y-90488866D01*
X416380952Y-90488866D02*
X416476190Y-90774580D01*
X416476190Y-90774580D02*
X417619047Y-91917438D01*
X417619047Y-91917438D02*
X416380952Y-91917438D01*
X415142857Y-89917438D02*
X414952380Y-89917438D01*
X414952380Y-89917438D02*
X414761904Y-90012676D01*
X414761904Y-90012676D02*
X414666666Y-90107914D01*
X414666666Y-90107914D02*
X414571428Y-90298390D01*
X414571428Y-90298390D02*
X414476190Y-90679342D01*
X414476190Y-90679342D02*
X414476190Y-91155533D01*
X414476190Y-91155533D02*
X414571428Y-91536485D01*
X414571428Y-91536485D02*
X414666666Y-91726961D01*
X414666666Y-91726961D02*
X414761904Y-91822200D01*
X414761904Y-91822200D02*
X414952380Y-91917438D01*
X414952380Y-91917438D02*
X415142857Y-91917438D01*
X415142857Y-91917438D02*
X415333333Y-91822200D01*
X415333333Y-91822200D02*
X415428571Y-91726961D01*
X415428571Y-91726961D02*
X415523809Y-91536485D01*
X415523809Y-91536485D02*
X415619047Y-91155533D01*
X415619047Y-91155533D02*
X415619047Y-90679342D01*
X415619047Y-90679342D02*
X415523809Y-90298390D01*
X415523809Y-90298390D02*
X415428571Y-90107914D01*
X415428571Y-90107914D02*
X415333333Y-90012676D01*
X415333333Y-90012676D02*
X415142857Y-89917438D01*
X413619047Y-91917438D02*
X413619047Y-90584104D01*
X413619047Y-90774580D02*
X413523809Y-90679342D01*
X413523809Y-90679342D02*
X413333333Y-90584104D01*
X413333333Y-90584104D02*
X413047618Y-90584104D01*
X413047618Y-90584104D02*
X412857142Y-90679342D01*
X412857142Y-90679342D02*
X412761904Y-90869819D01*
X412761904Y-90869819D02*
X412761904Y-91917438D01*
X412761904Y-90869819D02*
X412666666Y-90679342D01*
X412666666Y-90679342D02*
X412476190Y-90584104D01*
X412476190Y-90584104D02*
X412190476Y-90584104D01*
X412190476Y-90584104D02*
X411999999Y-90679342D01*
X411999999Y-90679342D02*
X411904761Y-90869819D01*
X411904761Y-90869819D02*
X411904761Y-91917438D01*
X411047618Y-91346009D02*
X410095237Y-91346009D01*
X411238094Y-91917438D02*
X410571428Y-89917438D01*
X410571428Y-89917438D02*
X409904761Y-91917438D01*
X243112914Y-97539047D02*
X243017676Y-97634285D01*
X243017676Y-97634285D02*
X242922438Y-97824761D01*
X242922438Y-97824761D02*
X242922438Y-98300952D01*
X242922438Y-98300952D02*
X243017676Y-98491428D01*
X243017676Y-98491428D02*
X243112914Y-98586666D01*
X243112914Y-98586666D02*
X243303390Y-98681904D01*
X243303390Y-98681904D02*
X243493866Y-98681904D01*
X243493866Y-98681904D02*
X243779580Y-98586666D01*
X243779580Y-98586666D02*
X244922438Y-97443809D01*
X244922438Y-97443809D02*
X244922438Y-98681904D01*
X243589104Y-100396190D02*
X244922438Y-100396190D01*
X242827200Y-99919999D02*
X244255771Y-99443809D01*
X244255771Y-99443809D02*
X244255771Y-100681904D01*
X242922438Y-101158095D02*
X244922438Y-101824761D01*
X244922438Y-101824761D02*
X242922438Y-102491428D01*
X276082561Y-301914999D02*
X278082561Y-301914999D01*
X276082561Y-300962618D02*
X278082561Y-300962618D01*
X278082561Y-300962618D02*
X276082561Y-299819761D01*
X276082561Y-299819761D02*
X278082561Y-299819761D01*
X277892085Y-298962618D02*
X277987323Y-298867380D01*
X277987323Y-298867380D02*
X278082561Y-298676904D01*
X278082561Y-298676904D02*
X278082561Y-298200713D01*
X278082561Y-298200713D02*
X277987323Y-298010237D01*
X277987323Y-298010237D02*
X277892085Y-297914999D01*
X277892085Y-297914999D02*
X277701609Y-297819761D01*
X277701609Y-297819761D02*
X277511133Y-297819761D01*
X277511133Y-297819761D02*
X277225419Y-297914999D01*
X277225419Y-297914999D02*
X276082561Y-299057856D01*
X276082561Y-299057856D02*
X276082561Y-297819761D01*
X282892085Y-301705952D02*
X282987323Y-301610714D01*
X282987323Y-301610714D02*
X283082561Y-301420238D01*
X283082561Y-301420238D02*
X283082561Y-300944047D01*
X283082561Y-300944047D02*
X282987323Y-300753571D01*
X282987323Y-300753571D02*
X282892085Y-300658333D01*
X282892085Y-300658333D02*
X282701609Y-300563095D01*
X282701609Y-300563095D02*
X282511133Y-300563095D01*
X282511133Y-300563095D02*
X282225419Y-300658333D01*
X282225419Y-300658333D02*
X281082561Y-301801190D01*
X281082561Y-301801190D02*
X281082561Y-300563095D01*
X282415895Y-298848809D02*
X281082561Y-298848809D01*
X283177800Y-299325000D02*
X281749228Y-299801190D01*
X281749228Y-299801190D02*
X281749228Y-298563095D01*
X283082561Y-298086904D02*
X281082561Y-297420238D01*
X281082561Y-297420238D02*
X283082561Y-296753571D01*
X186892085Y-302375952D02*
X186987323Y-302280714D01*
X186987323Y-302280714D02*
X187082561Y-302090238D01*
X187082561Y-302090238D02*
X187082561Y-301614047D01*
X187082561Y-301614047D02*
X186987323Y-301423571D01*
X186987323Y-301423571D02*
X186892085Y-301328333D01*
X186892085Y-301328333D02*
X186701609Y-301233095D01*
X186701609Y-301233095D02*
X186511133Y-301233095D01*
X186511133Y-301233095D02*
X186225419Y-301328333D01*
X186225419Y-301328333D02*
X185082561Y-302471190D01*
X185082561Y-302471190D02*
X185082561Y-301233095D01*
X186415895Y-299518809D02*
X185082561Y-299518809D01*
X187177800Y-299995000D02*
X185749228Y-300471190D01*
X185749228Y-300471190D02*
X185749228Y-299233095D01*
X187082561Y-298756904D02*
X185082561Y-298090238D01*
X185082561Y-298090238D02*
X187082561Y-297423571D01*
X388892085Y-301700952D02*
X388987323Y-301605714D01*
X388987323Y-301605714D02*
X389082561Y-301415238D01*
X389082561Y-301415238D02*
X389082561Y-300939047D01*
X389082561Y-300939047D02*
X388987323Y-300748571D01*
X388987323Y-300748571D02*
X388892085Y-300653333D01*
X388892085Y-300653333D02*
X388701609Y-300558095D01*
X388701609Y-300558095D02*
X388511133Y-300558095D01*
X388511133Y-300558095D02*
X388225419Y-300653333D01*
X388225419Y-300653333D02*
X387082561Y-301796190D01*
X387082561Y-301796190D02*
X387082561Y-300558095D01*
X388415895Y-298843809D02*
X387082561Y-298843809D01*
X389177800Y-299320000D02*
X387749228Y-299796190D01*
X387749228Y-299796190D02*
X387749228Y-298558095D01*
X389082561Y-298081904D02*
X387082561Y-297415238D01*
X387082561Y-297415238D02*
X389082561Y-296748571D01*
X349917438Y-98047619D02*
X347917438Y-98047619D01*
X347917438Y-98047619D02*
X347917438Y-98523809D01*
X347917438Y-98523809D02*
X348012676Y-98809524D01*
X348012676Y-98809524D02*
X348203152Y-99000000D01*
X348203152Y-99000000D02*
X348393628Y-99095238D01*
X348393628Y-99095238D02*
X348774580Y-99190476D01*
X348774580Y-99190476D02*
X349060295Y-99190476D01*
X349060295Y-99190476D02*
X349441247Y-99095238D01*
X349441247Y-99095238D02*
X349631723Y-99000000D01*
X349631723Y-99000000D02*
X349822200Y-98809524D01*
X349822200Y-98809524D02*
X349917438Y-98523809D01*
X349917438Y-98523809D02*
X349917438Y-98047619D01*
X349917438Y-100047619D02*
X347917438Y-100047619D01*
X349917438Y-102047619D02*
X349917438Y-100904762D01*
X349917438Y-101476190D02*
X347917438Y-101476190D01*
X347917438Y-101476190D02*
X348203152Y-101285714D01*
X348203152Y-101285714D02*
X348393628Y-101095238D01*
X348393628Y-101095238D02*
X348488866Y-100904762D01*
X396107914Y-97719047D02*
X396012676Y-97814285D01*
X396012676Y-97814285D02*
X395917438Y-98004761D01*
X395917438Y-98004761D02*
X395917438Y-98480952D01*
X395917438Y-98480952D02*
X396012676Y-98671428D01*
X396012676Y-98671428D02*
X396107914Y-98766666D01*
X396107914Y-98766666D02*
X396298390Y-98861904D01*
X396298390Y-98861904D02*
X396488866Y-98861904D01*
X396488866Y-98861904D02*
X396774580Y-98766666D01*
X396774580Y-98766666D02*
X397917438Y-97623809D01*
X397917438Y-97623809D02*
X397917438Y-98861904D01*
X396584104Y-100576190D02*
X397917438Y-100576190D01*
X395822200Y-100099999D02*
X397250771Y-99623809D01*
X397250771Y-99623809D02*
X397250771Y-100861904D01*
X395917438Y-101338095D02*
X397917438Y-102004761D01*
X397917438Y-102004761D02*
X395917438Y-102671428D01*
X268882085Y-302375952D02*
X268977323Y-302280714D01*
X268977323Y-302280714D02*
X269072561Y-302090238D01*
X269072561Y-302090238D02*
X269072561Y-301614047D01*
X269072561Y-301614047D02*
X268977323Y-301423571D01*
X268977323Y-301423571D02*
X268882085Y-301328333D01*
X268882085Y-301328333D02*
X268691609Y-301233095D01*
X268691609Y-301233095D02*
X268501133Y-301233095D01*
X268501133Y-301233095D02*
X268215419Y-301328333D01*
X268215419Y-301328333D02*
X267072561Y-302471190D01*
X267072561Y-302471190D02*
X267072561Y-301233095D01*
X268405895Y-299518809D02*
X267072561Y-299518809D01*
X269167800Y-299995000D02*
X267739228Y-300471190D01*
X267739228Y-300471190D02*
X267739228Y-299233095D01*
X269072561Y-298756904D02*
X267072561Y-298090238D01*
X267072561Y-298090238D02*
X269072561Y-297423571D01*
X195012676Y-98476190D02*
X194917438Y-98285714D01*
X194917438Y-98285714D02*
X194917438Y-98000000D01*
X194917438Y-98000000D02*
X195012676Y-97714285D01*
X195012676Y-97714285D02*
X195203152Y-97523809D01*
X195203152Y-97523809D02*
X195393628Y-97428571D01*
X195393628Y-97428571D02*
X195774580Y-97333333D01*
X195774580Y-97333333D02*
X196060295Y-97333333D01*
X196060295Y-97333333D02*
X196441247Y-97428571D01*
X196441247Y-97428571D02*
X196631723Y-97523809D01*
X196631723Y-97523809D02*
X196822200Y-97714285D01*
X196822200Y-97714285D02*
X196917438Y-98000000D01*
X196917438Y-98000000D02*
X196917438Y-98190476D01*
X196917438Y-98190476D02*
X196822200Y-98476190D01*
X196822200Y-98476190D02*
X196726961Y-98571428D01*
X196726961Y-98571428D02*
X196060295Y-98571428D01*
X196060295Y-98571428D02*
X196060295Y-98190476D01*
X196917438Y-99428571D02*
X194917438Y-99428571D01*
X194917438Y-99428571D02*
X196917438Y-100571428D01*
X196917438Y-100571428D02*
X194917438Y-100571428D01*
X196917438Y-101523809D02*
X194917438Y-101523809D01*
X194917438Y-101523809D02*
X194917438Y-101999999D01*
X194917438Y-101999999D02*
X195012676Y-102285714D01*
X195012676Y-102285714D02*
X195203152Y-102476190D01*
X195203152Y-102476190D02*
X195393628Y-102571428D01*
X195393628Y-102571428D02*
X195774580Y-102666666D01*
X195774580Y-102666666D02*
X196060295Y-102666666D01*
X196060295Y-102666666D02*
X196441247Y-102571428D01*
X196441247Y-102571428D02*
X196631723Y-102476190D01*
X196631723Y-102476190D02*
X196822200Y-102285714D01*
X196822200Y-102285714D02*
X196917438Y-101999999D01*
X196917438Y-101999999D02*
X196917438Y-101523809D01*
D12*
X156370114Y-187893333D02*
X156274876Y-187988571D01*
X156274876Y-187988571D02*
X156179638Y-188179047D01*
X156179638Y-188179047D02*
X156179638Y-188655238D01*
X156179638Y-188655238D02*
X156274876Y-188845714D01*
X156274876Y-188845714D02*
X156370114Y-188940952D01*
X156370114Y-188940952D02*
X156560590Y-189036190D01*
X156560590Y-189036190D02*
X156751066Y-189036190D01*
X156751066Y-189036190D02*
X157036780Y-188940952D01*
X157036780Y-188940952D02*
X158179638Y-187798095D01*
X158179638Y-187798095D02*
X158179638Y-189036190D01*
X156846304Y-190750476D02*
X158179638Y-190750476D01*
X156084400Y-190274285D02*
X157512971Y-189798095D01*
X157512971Y-189798095D02*
X157512971Y-191036190D01*
X156179638Y-191512381D02*
X158179638Y-192179047D01*
X158179638Y-192179047D02*
X156179638Y-192845714D01*
X158179638Y-195036191D02*
X156179638Y-195036191D01*
X158179638Y-195988572D02*
X156179638Y-195988572D01*
X156179638Y-195988572D02*
X158179638Y-197131429D01*
X158179638Y-197131429D02*
X156179638Y-197131429D01*
X168374523Y-215272733D02*
X166850714Y-215272733D01*
X167612618Y-216034638D02*
X167612618Y-214510828D01*
X165993571Y-214225114D02*
X165898333Y-214129876D01*
X165898333Y-214129876D02*
X165707857Y-214034638D01*
X165707857Y-214034638D02*
X165231666Y-214034638D01*
X165231666Y-214034638D02*
X165041190Y-214129876D01*
X165041190Y-214129876D02*
X164945952Y-214225114D01*
X164945952Y-214225114D02*
X164850714Y-214415590D01*
X164850714Y-214415590D02*
X164850714Y-214606066D01*
X164850714Y-214606066D02*
X164945952Y-214891780D01*
X164945952Y-214891780D02*
X166088809Y-216034638D01*
X166088809Y-216034638D02*
X164850714Y-216034638D01*
X163136428Y-214701304D02*
X163136428Y-216034638D01*
X163612619Y-213939400D02*
X164088809Y-215367971D01*
X164088809Y-215367971D02*
X162850714Y-215367971D01*
X162374523Y-214034638D02*
X161707857Y-216034638D01*
X161707857Y-216034638D02*
X161041190Y-214034638D01*
X158850713Y-216034638D02*
X158850713Y-214034638D01*
X157898332Y-216034638D02*
X157898332Y-214034638D01*
X157898332Y-214034638D02*
X156755475Y-216034638D01*
X156755475Y-216034638D02*
X156755475Y-214034638D01*
M02*
