M48
; DRILL file {KiCad 8.0.1} date 2024-04-17T10:04:23-0500
; FORMAT={-:-/ absolute / inch / decimal}
; #@! TF.CreationDate,2024-04-17T10:04:23-05:00
; #@! TF.GenerationSoftware,Kicad,Pcbnew,8.0.1
; #@! TF.FileFunction,Plated,1,2,PTH
FMAT,2
INCH
; #@! TA.AperFunction,Plated,PTH,ComponentDrill
T1C0.0118
; #@! TA.AperFunction,Plated,PTH,ViaDrill
T2C0.0157
; #@! TA.AperFunction,Plated,PTH,ComponentDrill
T3C0.0280
; #@! TA.AperFunction,Plated,PTH,ComponentDrill
T4C0.0315
; #@! TA.AperFunction,Plated,PTH,ComponentDrill
T5C0.0354
; #@! TA.AperFunction,Plated,PTH,ComponentDrill
T6C0.0394
; #@! TA.AperFunction,Plated,PTH,ComponentDrill
T7C0.0402
; #@! TA.AperFunction,Plated,PTH,ComponentDrill
T8C0.0433
; #@! TA.AperFunction,Plated,PTH,ComponentDrill
T9C0.0472
; #@! TA.AperFunction,Plated,PTH,ComponentDrill
T10C0.0512
; #@! TA.AperFunction,Plated,PTH,ComponentDrill
T11C0.0551
; #@! TA.AperFunction,Plated,PTH,ComponentDrill
T12C0.0630
%
G90
G05
T1
X16.2724Y-10.4689
X16.2724Y-10.5083
X16.2724Y-10.5476
X16.3118Y-10.4689
X16.3118Y-10.5083
X16.3118Y-10.5476
X16.3512Y-10.4689
X16.3512Y-10.5083
X16.3512Y-10.5476
T2
X6.3386Y-4.2126
X6.3386Y-4.252
X6.3386Y-4.2913
X6.3976Y-5.5939
X6.5234Y-4.3372
X6.538Y-10.7706
X6.5846Y-10.6299
X6.7159Y-4.3354
X6.8969Y-10.6169
X6.9108Y-4.3356
X7.0276Y-11.0896
X7.1005Y-4.3415
X7.1063Y-10.9252
X7.111Y-7.3498
X7.126Y-5.5906
X7.1394Y-7.3215
X7.1659Y-6.8707
X7.1685Y-7.2921
X7.1969Y-7.2638
X7.2343Y-6.9291
X7.2638Y-11.0896
X7.3326Y-10.9349
X7.4016Y-11.1614
X7.4213Y-11.063
X7.4955Y-8.7817
X7.5376Y-8.7817
X7.5797Y-8.7815
X7.5984Y-11.4567
X7.6215Y-8.7815
X7.7559Y-8.7008
X7.8687Y-9.549
X7.874Y-4.6457
X7.874Y-6.063
X7.874Y-11.378
X7.9134Y-4.2323
X7.9921Y-4.975
X7.9921Y-6.1417
X7.9921Y-11.0236
X8.0709Y-9.8425
X8.1102Y-10.0
X8.1496Y-4.2972
X8.2283Y-4.2323
X8.3661Y-11.6732
X8.4646Y-4.2579
X8.4744Y-11.565
X8.5433Y-4.2323
X8.5433Y-4.685
X8.5827Y-4.5866
X8.6417Y-4.8031
X8.6927Y-7.0423
X8.7008Y-4.6654
X8.7344Y-7.0423
X8.7677Y-8.9004
X8.777Y-7.0423
X8.7894Y-4.8228
X8.8191Y-7.0423
X8.8331Y-11.3809
X8.8386Y-3.9764
X8.8386Y-4.0945
X8.8386Y-9.0157
X8.8443Y-10.1321
X8.878Y-4.8031
X8.9764Y-4.6063
X9.0305Y-11.385
X9.0705Y-5.1028
X9.2126Y-7.4409
X9.2215Y-11.3837
X9.2915Y-8.7815
X9.3337Y-8.7815
X9.3762Y-8.7815
X9.3898Y-5.0984
X9.4179Y-8.7815
X9.4185Y-11.3809
X9.427Y-4.9508
X9.5276Y-11.752
X9.5669Y-11.7126
X9.5726Y-10.1321
X9.6063Y-11.6732
X9.7638Y-7.9528
X9.7835Y-4.949
X9.8819Y-8.0315
X9.9213Y-10.7738
X10.0197Y-3.937
X10.0197Y-3.9764
X10.0197Y-4.0157
X10.0508Y-8.7795
X10.0591Y-5.5709
X10.0929Y-8.7795
X10.1354Y-8.7795
X10.1772Y-8.7795
X10.1969Y-7.3622
X10.1969Y-8.3465
X10.2293Y-4.3356
X10.2596Y-10.772
X10.3051Y-10.6299
X10.315Y-7.7559
X10.315Y-8.4646
X10.3937Y-7.7559
X10.4272Y-4.335
X10.4654Y-6.9488
X10.4724Y-7.7559
X10.5071Y-6.9488
X10.5118Y-8.5039
X10.5496Y-6.9488
X10.5906Y-8.4252
X10.5917Y-6.9488
X10.6167Y-10.6187
X10.6199Y-4.335
X10.6299Y-7.4409
X10.6693Y-8.0315
X10.7283Y-11.1152
X10.7874Y-5.5709
X10.7874Y-8.3465
X10.7874Y-10.9252
X10.8085Y-4.3356
X10.8268Y-6.6992
X10.8661Y-11.5551
X10.8661Y-11.6535
X10.9055Y-6.811
X10.9055Y-8.3465
X10.9547Y-11.0925
X11.0039Y-8.248
X11.0137Y-10.9193
X11.0817Y-11.064
X11.0827Y-9.8622
X11.0925Y-11.1516
X11.1417Y-8.189
X11.2878Y-8.189
X11.2992Y-11.4567
X11.3006Y-3.9764
X11.3386Y-7.0866
X11.3583Y-8.4055
X11.378Y-7.6378
X11.3976Y-4.0748
X11.4961Y-4.2323
X11.4961Y-5.9843
X11.4961Y-7.3622
X11.4961Y-8.189
X11.5299Y-9.526
X11.5354Y-6.1811
X11.5354Y-7.6378
X11.5354Y-8.6614
X11.5748Y-8.2677
X11.5748Y-8.4252
X11.6142Y-11.2795
X11.6535Y-4.685
X11.6535Y-6.1024
X11.6811Y-10.9724
X11.6929Y-7.4409
X11.6929Y-7.5984
X11.6929Y-8.3071
X11.7323Y-8.2283
X11.7717Y-4.2913
X11.7717Y-9.8031
X11.811Y-4.2323
X11.811Y-7.0866
X11.811Y-8.189
X11.811Y-8.5433
X11.811Y-9.9213
X11.9094Y-9.5866
X11.9291Y-8.5827
X12.0033Y-11.6929
X12.0276Y-4.2717
X12.0472Y-7.5984
X12.0832Y-8.5005
X12.0866Y-9.0945
X12.1063Y-11.5748
X12.126Y-4.2323
X12.126Y-7.1654
X12.2007Y-4.6575
X12.2047Y-4.5472
X12.251Y-7.4409
X12.2844Y-4.7826
X12.3425Y-4.626
X12.3622Y-8.1102
X12.4016Y-8.1102
X12.4114Y-8.9075
X12.4297Y-7.0585
X12.4409Y-4.0945
X12.4409Y-8.1102
X12.4409Y-8.6614
X12.4606Y-3.9764
X12.4705Y-9.0211
X12.4803Y-7.2835
X12.4815Y-11.3614
X12.5097Y-4.7735
X12.5254Y-10.1518
X12.5591Y-7.126
X12.5984Y-7.2835
X12.5984Y-8.5039
X12.6122Y-4.6319
X12.6754Y-11.3795
X12.6772Y-7.3622
X12.7067Y-5.1061
X12.7673Y-6.9488
X12.7953Y-7.5197
X12.8091Y-6.9488
X12.8516Y-6.9488
X12.8722Y-11.3829
X12.874Y-7.7165
X12.8937Y-6.9488
X12.9134Y-8.2677
X12.9528Y-8.3465
X13.0217Y-5.1083
X13.0697Y-11.3874
X13.0713Y-4.9538
X13.0823Y-8.7815
X13.1244Y-8.7815
X13.1669Y-8.7815
X13.2087Y-8.7815
X13.2537Y-10.1518
X13.2677Y-11.7717
X13.3071Y-11.7323
X13.3465Y-11.6929
X13.3858Y-8.189
X13.4449Y-4.9486
X13.4449Y-9.0945
X13.5142Y-7.7075
X13.5148Y-7.6642
X13.6614Y-7.5197
X13.6811Y-3.9567
X13.7008Y-7.9921
X13.7205Y-3.9173
X13.7402Y-5.5709
X13.7598Y-3.878
X13.7795Y-7.5197
X13.8896Y-4.3335
X13.8976Y-7.4016
X13.9764Y-7.5197
X14.0785Y-4.3365
X14.0945Y-7.1654
X14.1732Y-7.5394
X14.1732Y-7.6575
X14.2756Y-4.3335
X14.285Y-6.9488
X14.3268Y-6.9488
X14.3642Y-8.7795
X14.3693Y-6.9488
X14.3707Y-11.1215
X14.4063Y-8.7795
X14.4094Y-6.9488
X14.4488Y-8.7795
X14.4501Y-10.9265
X14.4685Y-5.5709
X14.4744Y-4.3366
X14.4906Y-8.7795
X14.5276Y-11.5551
X14.5276Y-11.6535
X14.6128Y-11.0959
X14.6755Y-10.9353
X14.7441Y-11.0703
X14.7441Y-11.1614
X14.9022Y-11.4561
X15.0394Y-4.0551
X15.0394Y-9.0945
X15.0787Y-4.685
X15.1181Y-4.575
X15.1378Y-7.6772
X15.1575Y-3.9961
X15.1969Y-7.1654
X15.1969Y-10.0492
X15.1998Y-9.5191
X15.2171Y-11.2795
X15.2362Y-4.2323
X15.3248Y-7.4902
X15.3445Y-9.5472
X15.3543Y-4.7244
X15.3819Y-11.0154
X15.3937Y-7.2441
X15.4331Y-7.4016
X15.4331Y-8.3071
X15.4331Y-10.9646
X15.465Y-6.2022
X15.4724Y-4.2913
X15.5217Y-10.561
X15.5512Y-4.2323
X15.5512Y-7.3228
X15.5709Y-10.4724
X15.7677Y-4.2717
X15.7776Y-10.561
X15.8465Y-6.6142
X15.8661Y-4.2323
X15.8661Y-8.8583
X15.8858Y-4.5472
X15.8957Y-10.5709
X15.8976Y-4.6575
X15.9449Y-8.878
X15.9547Y-10.4626
X15.9843Y-4.7835
X16.0433Y-4.626
X16.0433Y-11.2106
X16.0482Y-10.372
X16.0821Y-10.2171
X16.0827Y-10.4232
X16.1614Y-10.1378
X16.1811Y-10.689
X16.186Y-10.438
X16.2008Y-10.9646
X16.2105Y-4.7835
X16.2205Y-10.8169
X16.2402Y-9.065
X16.2992Y-4.6319
X16.3189Y-10.1181
X16.3386Y-9.9606
X16.3386Y-11.2697
X16.3976Y-10.2067
X16.4189Y-5.1059
X16.4265Y-10.3856
X16.437Y-10.5709
X16.5157Y-10.187
X16.5256Y-10.7677
X16.5453Y-10.2854
X16.6289Y-7.8344
X16.6289Y-7.8876
X16.6339Y-8.6614
X16.6339Y-8.7031
X16.6339Y-8.7457
X16.6339Y-8.7878
X16.6339Y-10.6496
X16.7126Y-10.3543
X16.7224Y-5.1083
X16.7618Y-9.0945
X16.7794Y-4.9481
X16.8602Y-9.1441
X17.1654Y-4.9606
T3
X6.9409Y-7.7612
X6.9409Y-7.962
T4
X16.0413Y-10.725
X16.0413Y-10.925
T5
X16.1169Y-11.7431
X16.1669Y-11.6431
X16.2169Y-11.7431
X16.2669Y-11.6431
X16.3169Y-11.7431
X16.3669Y-11.6431
X16.4169Y-11.7431
X16.4669Y-11.6431
T6
X7.6232Y-4.575
X7.6232Y-4.675
X7.6232Y-4.775
X7.6232Y-4.875
X7.6232Y-4.975
X7.6232Y-5.075
X7.6232Y-5.175
X7.6232Y-5.275
X7.6232Y-5.375
X7.6232Y-5.475
X7.6232Y-5.575
X7.6232Y-5.675
X7.6232Y-5.775
X7.6232Y-5.875
X7.6232Y-5.975
X7.6232Y-6.075
X7.6232Y-6.175
X7.6232Y-6.275
X7.6232Y-6.375
X7.6232Y-6.475
X7.6232Y-9.2498
X7.6232Y-9.3498
X7.6232Y-9.4498
X7.6232Y-9.5498
X7.6232Y-9.6498
X7.6232Y-9.7498
X7.6232Y-9.8498
X7.6232Y-9.9498
X7.6232Y-10.0498
X7.6232Y-10.1498
X7.6232Y-10.2498
X7.6232Y-10.3498
X7.6232Y-10.4498
X7.6232Y-10.5498
X7.6232Y-10.6498
X7.6232Y-10.7498
X7.6232Y-10.8498
X7.6232Y-10.9498
X7.6232Y-11.0498
X7.6232Y-11.1498
X7.8685Y-9.264
X7.8762Y-6.4604
X7.9685Y-9.264
X7.9762Y-6.4604
X8.0685Y-9.264
X8.0762Y-6.4604
X8.3232Y-4.575
X8.3232Y-4.675
X8.3232Y-4.775
X8.3232Y-4.875
X8.3232Y-4.975
X8.3232Y-5.075
X8.3232Y-5.175
X8.3232Y-5.275
X8.3232Y-5.375
X8.3232Y-5.475
X8.3232Y-5.575
X8.3232Y-5.675
X8.3232Y-5.775
X8.3232Y-5.875
X8.3232Y-5.975
X8.3232Y-6.075
X8.3232Y-6.175
X8.3232Y-6.275
X8.3232Y-6.375
X8.3232Y-6.475
X8.3232Y-9.2498
X8.3232Y-9.3498
X8.3232Y-9.4498
X8.3232Y-9.5498
X8.3232Y-9.6498
X8.3232Y-9.7498
X8.3232Y-9.8498
X8.3232Y-9.9498
X8.3232Y-10.0498
X8.3232Y-10.1498
X8.3232Y-10.2498
X8.3232Y-10.3498
X8.3232Y-10.4498
X8.3232Y-10.5498
X8.3232Y-10.6498
X8.3232Y-10.7498
X8.3232Y-10.8498
X8.3232Y-10.9498
X8.3232Y-11.0498
X8.3232Y-11.1498
X10.6878Y-7.8128
X10.6878Y-7.9128
X10.7878Y-7.8128
X10.7878Y-7.9128
X10.8878Y-7.8128
X10.8878Y-7.9128
X10.9878Y-7.8128
X10.9878Y-7.9128
X11.0878Y-7.8128
X11.0878Y-7.9128
X11.1878Y-7.8128
X11.1878Y-7.9128
X11.2878Y-7.8128
X11.2878Y-7.9128
X11.3006Y-4.575
X11.3006Y-4.675
X11.3006Y-4.775
X11.3006Y-4.875
X11.3006Y-4.975
X11.3006Y-5.075
X11.3006Y-5.175
X11.3006Y-5.275
X11.3006Y-5.375
X11.3006Y-5.475
X11.3006Y-5.575
X11.3006Y-5.675
X11.3006Y-5.775
X11.3006Y-5.875
X11.3006Y-5.975
X11.3006Y-6.075
X11.3006Y-6.175
X11.3006Y-6.275
X11.3006Y-6.375
X11.3006Y-6.475
X11.3033Y-9.2498
X11.3033Y-9.3498
X11.3033Y-9.4498
X11.3033Y-9.5498
X11.3033Y-9.6498
X11.3033Y-9.7498
X11.3033Y-9.8498
X11.3033Y-9.9498
X11.3033Y-10.0498
X11.3033Y-10.1498
X11.3033Y-10.2498
X11.3033Y-10.3498
X11.3033Y-10.4498
X11.3033Y-10.5498
X11.3033Y-10.6498
X11.3033Y-10.7498
X11.3033Y-10.8498
X11.3033Y-10.9498
X11.3033Y-11.0498
X11.3033Y-11.1498
X11.3878Y-7.8128
X11.3878Y-7.9128
X11.4878Y-7.8128
X11.4878Y-7.9128
X11.5476Y-9.2642
X11.5543Y-6.4604
X11.5878Y-7.8128
X11.5878Y-7.9128
X11.6476Y-9.2642
X11.6543Y-6.4604
X11.6878Y-7.8128
X11.6878Y-7.9128
X11.7476Y-9.2642
X11.7543Y-6.4604
X11.7878Y-7.8128
X11.7878Y-7.9128
X11.8878Y-7.8128
X11.8878Y-7.9128
X11.9878Y-7.8128
X11.9878Y-7.9128
X12.0006Y-4.575
X12.0006Y-4.675
X12.0006Y-4.775
X12.0006Y-4.875
X12.0006Y-4.975
X12.0006Y-5.075
X12.0006Y-5.175
X12.0006Y-5.275
X12.0006Y-5.375
X12.0006Y-5.475
X12.0006Y-5.575
X12.0006Y-5.675
X12.0006Y-5.775
X12.0006Y-5.875
X12.0006Y-5.975
X12.0006Y-6.075
X12.0006Y-6.175
X12.0006Y-6.275
X12.0006Y-6.375
X12.0006Y-6.475
X12.0033Y-9.2498
X12.0033Y-9.3498
X12.0033Y-9.4498
X12.0033Y-9.5498
X12.0033Y-9.6498
X12.0033Y-9.7498
X12.0033Y-9.8498
X12.0033Y-9.9498
X12.0033Y-10.0498
X12.0033Y-10.1498
X12.0033Y-10.2498
X12.0033Y-10.3498
X12.0033Y-10.4498
X12.0033Y-10.5498
X12.0033Y-10.6498
X12.0033Y-10.7498
X12.0033Y-10.8498
X12.0033Y-10.9498
X12.0033Y-11.0498
X12.0033Y-11.1498
X12.0878Y-7.8128
X12.0878Y-7.9128
X12.1878Y-7.8128
X12.1878Y-7.9128
X12.2878Y-7.8128
X12.2878Y-7.9128
X12.3878Y-7.8128
X12.3878Y-7.9128
X12.4878Y-7.8128
X12.4878Y-7.9128
X12.5878Y-7.8128
X12.5878Y-7.9128
X14.9837Y-4.575
X14.9837Y-4.675
X14.9837Y-4.775
X14.9837Y-4.875
X14.9837Y-4.975
X14.9837Y-5.075
X14.9837Y-5.175
X14.9837Y-5.275
X14.9837Y-5.375
X14.9837Y-5.475
X14.9837Y-5.575
X14.9837Y-5.675
X14.9837Y-5.775
X14.9837Y-5.875
X14.9837Y-5.975
X14.9837Y-6.075
X14.9837Y-6.175
X14.9837Y-6.275
X14.9837Y-6.375
X14.9837Y-6.475
X14.9839Y-9.2498
X14.9839Y-9.3498
X14.9839Y-9.4498
X14.9839Y-9.5498
X14.9839Y-9.6498
X14.9839Y-9.7498
X14.9839Y-9.8498
X14.9839Y-9.9498
X14.9839Y-10.0498
X14.9839Y-10.1498
X14.9839Y-10.2498
X14.9839Y-10.3498
X14.9839Y-10.4498
X14.9839Y-10.5498
X14.9839Y-10.6498
X14.9839Y-10.7498
X14.9839Y-10.8498
X14.9839Y-10.9498
X14.9839Y-11.0498
X14.9839Y-11.1498
X15.2278Y-9.2644
X15.2386Y-6.4604
X15.3278Y-9.2644
X15.3386Y-6.4604
X15.4278Y-9.2644
X15.4386Y-6.4604
X15.6837Y-4.575
X15.6837Y-4.675
X15.6837Y-4.775
X15.6837Y-4.875
X15.6837Y-4.975
X15.6837Y-5.075
X15.6837Y-5.175
X15.6837Y-5.275
X15.6837Y-5.375
X15.6837Y-5.475
X15.6837Y-5.575
X15.6837Y-5.675
X15.6837Y-5.775
X15.6837Y-5.875
X15.6837Y-5.975
X15.6837Y-6.075
X15.6837Y-6.175
X15.6837Y-6.275
X15.6837Y-6.375
X15.6837Y-6.475
X15.6839Y-9.2498
X15.6839Y-9.3498
X15.6839Y-9.4498
X15.6839Y-9.5498
X15.6839Y-9.6498
X15.6839Y-9.7498
X15.6839Y-9.8498
X15.6839Y-9.9498
X15.6839Y-10.0498
X15.6839Y-10.1498
X15.6839Y-10.2498
X15.6839Y-10.3498
X15.6839Y-10.4498
X15.6839Y-10.5498
X15.6839Y-10.6498
X15.6839Y-10.7498
X15.6839Y-10.8498
X15.6839Y-10.9498
X15.6839Y-11.0498
X15.6839Y-11.1498
T7
X16.0305Y-12.153
X16.1305Y-12.153
X16.4533Y-12.153
X16.5533Y-12.153
T8
X6.263Y-11.2559
X6.263Y-11.5559
X6.4167Y-11.2559
X6.4167Y-11.5559
X9.5494Y-4.1697
X9.5494Y-4.4697
X9.7031Y-4.1699
X9.7031Y-4.4699
X9.9787Y-11.2559
X9.9787Y-11.5559
X10.1364Y-11.2559
X10.1364Y-11.5559
X13.1907Y-4.1683
X13.1907Y-4.4683
X13.3476Y-4.1683
X13.3476Y-4.4683
X16.8992Y-4.1689
X16.8992Y-4.4689
X17.0579Y-4.1689
X17.0579Y-4.4689
T9
X6.3459Y-7.5376
X6.3459Y-7.6754
X7.5154Y-7.7626
X7.6154Y-7.7626
X7.7154Y-7.7626
X7.8154Y-7.7626
X7.9154Y-7.7626
X8.0154Y-7.7626
X8.1154Y-7.7626
X8.2154Y-7.7626
X8.3154Y-7.7626
X8.4154Y-7.7626
X8.5154Y-7.7626
X8.6154Y-7.7626
X16.8276Y-7.7957
X16.8276Y-7.9335
T10
X7.1545Y-7.8622
X7.2726Y-7.8622
T11
X6.1717Y-3.7314
X6.1717Y-12.0079
X6.3717Y-3.7314
X6.3717Y-12.0079
X6.5717Y-3.7314
X6.5717Y-12.0079
X6.7717Y-3.7314
X6.7717Y-12.0079
X7.1165Y-3.7314
X7.1165Y-12.0079
X7.3165Y-3.7314
X7.3165Y-12.0079
X7.5165Y-3.7314
X7.5165Y-12.0079
X7.7165Y-3.7314
X7.7165Y-12.0079
X8.0614Y-3.7314
X8.0614Y-12.0079
X8.2614Y-3.7314
X8.2614Y-12.0079
X8.4614Y-3.7314
X8.4614Y-12.0079
X8.6614Y-3.7314
X8.6614Y-12.0079
X9.0063Y-3.7314
X9.0063Y-12.0079
X9.2063Y-3.7314
X9.2063Y-12.0079
X9.4063Y-3.7314
X9.4063Y-12.0079
X9.6063Y-3.7314
X9.6063Y-12.0079
X9.9512Y-3.7314
X9.9512Y-12.0079
X10.1512Y-3.7314
X10.1512Y-12.0079
X10.3512Y-3.7314
X10.3512Y-12.0079
X10.5512Y-3.7314
X10.5512Y-12.0079
X10.8961Y-3.7314
X10.8961Y-12.0079
X11.0961Y-3.7314
X11.0961Y-12.0079
X11.2961Y-3.7314
X11.2961Y-12.0079
X11.4961Y-3.7314
X11.4961Y-12.0079
X11.8409Y-3.7314
X11.8409Y-12.0079
X12.0409Y-3.7314
X12.0409Y-12.0079
X12.2409Y-3.7314
X12.2409Y-12.0079
X12.4409Y-3.7314
X12.4409Y-12.0079
X12.7858Y-3.7314
X12.7858Y-12.0079
X12.9858Y-3.7314
X12.9858Y-12.0079
X13.1858Y-3.7314
X13.1858Y-12.0079
X13.3858Y-3.7314
X13.3858Y-12.0079
X13.7276Y-12.0079
X13.7307Y-3.7314
X13.9276Y-12.0079
X13.9307Y-3.7314
X14.1276Y-12.0079
X14.1307Y-3.7314
X14.3276Y-12.0079
X14.3307Y-3.7314
X14.6756Y-3.7314
X14.6756Y-12.0079
X14.8756Y-3.7314
X14.8756Y-12.0079
X15.0756Y-3.7314
X15.0756Y-12.0079
X15.2756Y-3.7314
X15.2756Y-12.0079
X15.6205Y-3.7314
X15.8205Y-3.7314
X16.0205Y-3.7314
X16.2205Y-3.7314
X16.5654Y-3.7314
X16.7654Y-3.7314
X16.9654Y-3.7314
X17.1654Y-3.7314
T12
X6.4327Y-8.1514
X6.5508Y-8.3364
X6.6689Y-8.1514
X15.9828Y-11.873
X16.6009Y-11.873
M30
