%TF.GenerationSoftware,KiCad,Pcbnew,8.0.1*%
%TF.CreationDate,2024-04-17T10:04:04-05:00*%
%TF.ProjectId,Kristerj,4b726973-7465-4726-9a2e-6b696361645f,rev?*%
%TF.SameCoordinates,Original*%
%TF.FileFunction,Soldermask,Bot*%
%TF.FilePolarity,Negative*%
%FSLAX46Y46*%
G04 Gerber Fmt 4.6, Leading zero omitted, Abs format (unit mm)*
G04 Created by KiCad (PCBNEW 8.0.1) date 2024-04-17 10:04:04*
%MOMM*%
%LPD*%
G01*
G04 APERTURE LIST*
G04 Aperture macros list*
%AMRoundRect*
0 Rectangle with rounded corners*
0 $1 Rounding radius*
0 $2 $3 $4 $5 $6 $7 $8 $9 X,Y pos of 4 corners*
0 Add a 4 corners polygon primitive as box body*
4,1,4,$2,$3,$4,$5,$6,$7,$8,$9,$2,$3,0*
0 Add four circle primitives for the rounded corners*
1,1,$1+$1,$2,$3*
1,1,$1+$1,$4,$5*
1,1,$1+$1,$6,$7*
1,1,$1+$1,$8,$9*
0 Add four rect primitives between the rounded corners*
20,1,$1+$1,$2,$3,$4,$5,0*
20,1,$1+$1,$4,$5,$6,$7,0*
20,1,$1+$1,$6,$7,$8,$9,0*
20,1,$1+$1,$8,$9,$2,$3,0*%
G04 Aperture macros list end*
%ADD10C,1.710000*%
%ADD11R,1.700000X1.700000*%
%ADD12O,1.700000X1.700000*%
%ADD13C,2.600000*%
%ADD14C,1.700000*%
%ADD15R,1.800000X1.800000*%
%ADD16C,1.800000*%
%ADD17C,5.500000*%
%ADD18C,3.500000*%
%ADD19R,2.200000X2.200000*%
%ADD20O,2.200000X2.200000*%
%ADD21R,2.600000X2.600000*%
%ADD22RoundRect,0.249999X-0.790001X-1.550001X0.790001X-1.550001X0.790001X1.550001X-0.790001X1.550001X0*%
%ADD23O,2.080000X3.600000*%
%ADD24RoundRect,0.249999X0.790001X1.550001X-0.790001X1.550001X-0.790001X-1.550001X0.790001X-1.550001X0*%
%ADD25C,2.000000*%
%ADD26C,3.250000*%
%ADD27RoundRect,0.102000X-0.704000X-0.704000X0.704000X-0.704000X0.704000X0.704000X-0.704000X0.704000X0*%
%ADD28C,1.612000*%
%ADD29C,1.734000*%
%ADD30C,2.604000*%
G04 APERTURE END LIST*
D10*
%TO.C,F1*%
X176300000Y-202235000D03*
X176300000Y-197135000D03*
%TD*%
D11*
%TO.C,J5*%
X204940000Y-235305000D03*
D12*
X202400000Y-235305000D03*
X199860000Y-235305000D03*
%TD*%
D11*
%TO.C,J19*%
X387060000Y-164095000D03*
D12*
X389600000Y-164095000D03*
X392140000Y-164095000D03*
%TD*%
D11*
%TO.C,J20*%
X391865000Y-235315000D03*
D12*
X389325000Y-235315000D03*
X386785000Y-235315000D03*
%TD*%
D13*
%TO.C,L1*%
X181725000Y-199700000D03*
X184725000Y-199700000D03*
%TD*%
D11*
%TO.C,U17*%
X380585000Y-116205000D03*
D12*
X380585000Y-118745000D03*
X380585000Y-121285000D03*
X380585000Y-123825000D03*
X380585000Y-126365000D03*
X380585000Y-128905000D03*
X380585000Y-131445000D03*
X380585000Y-133985000D03*
X380585000Y-136525000D03*
X380585000Y-139065000D03*
X380585000Y-141605000D03*
X380585000Y-144145000D03*
X380585000Y-146685000D03*
X380585000Y-149225000D03*
X380585000Y-151765000D03*
X380585000Y-154305000D03*
X380585000Y-156845000D03*
X380585000Y-159385000D03*
X380585000Y-161925000D03*
X380585000Y-164465000D03*
X398365000Y-164465000D03*
X398365000Y-161925000D03*
X398365000Y-159385000D03*
X398365000Y-156845000D03*
X398365000Y-154305000D03*
X398365000Y-151765000D03*
X398365000Y-149225000D03*
X398365000Y-146685000D03*
X398365000Y-144145000D03*
X398365000Y-141605000D03*
X398365000Y-139065000D03*
X398365000Y-136525000D03*
X398365000Y-133985000D03*
X398365000Y-131445000D03*
X398365000Y-128905000D03*
X398365000Y-126365000D03*
X398365000Y-123825000D03*
X398365000Y-121285000D03*
X398365000Y-118745000D03*
D14*
X398365000Y-116205000D03*
%TD*%
D15*
%TO.C,J1*%
X161185000Y-191455000D03*
D16*
X161185000Y-194955000D03*
%TD*%
D17*
%TO.C,H1*%
X142500000Y-309700000D03*
%TD*%
%TO.C,H11*%
X449400000Y-309700000D03*
%TD*%
%TO.C,H5*%
X142500000Y-89700000D03*
%TD*%
D18*
%TO.C,H2*%
X173120000Y-250255000D03*
%TD*%
%TO.C,H6*%
X336260000Y-199720000D03*
%TD*%
%TO.C,H7*%
X420850000Y-144035000D03*
%TD*%
D17*
%TO.C,H8*%
X323650000Y-143835000D03*
%TD*%
D18*
%TO.C,H9*%
X171939260Y-144302740D03*
%TD*%
%TO.C,H10*%
X256260000Y-199720000D03*
%TD*%
D17*
%TO.C,H4*%
X406910000Y-251155000D03*
%TD*%
D18*
%TO.C,H12*%
X264530000Y-250555000D03*
%TD*%
D11*
%TO.C,J6*%
X200055000Y-164095000D03*
D12*
X202595000Y-164095000D03*
X205135000Y-164095000D03*
%TD*%
D11*
%TO.C,J14*%
X298390000Y-235310000D03*
D12*
X295850000Y-235310000D03*
X293310000Y-235310000D03*
%TD*%
D19*
%TO.C,D17*%
X159080000Y-293520000D03*
D20*
X159080000Y-285900000D03*
%TD*%
D11*
%TO.C,J8*%
X271470000Y-200985000D03*
D12*
X271470000Y-198445000D03*
X274010000Y-200985000D03*
X274010000Y-198445000D03*
X276550000Y-200985000D03*
X276550000Y-198445000D03*
X279090000Y-200985000D03*
X279090000Y-198445000D03*
X281630000Y-200985000D03*
X281630000Y-198445000D03*
X284170000Y-200985000D03*
X284170000Y-198445000D03*
X286710000Y-200985000D03*
X286710000Y-198445000D03*
X289250000Y-200985000D03*
X289250000Y-198445000D03*
X291790000Y-200985000D03*
X291790000Y-198445000D03*
X294330000Y-200985000D03*
X294330000Y-198445000D03*
X296870000Y-200985000D03*
X296870000Y-198445000D03*
X299410000Y-200985000D03*
X299410000Y-198445000D03*
X301950000Y-200985000D03*
X301950000Y-198445000D03*
X304490000Y-200985000D03*
X304490000Y-198445000D03*
X307030000Y-200985000D03*
X307030000Y-198445000D03*
X309570000Y-200985000D03*
X309570000Y-198445000D03*
X312110000Y-200985000D03*
X312110000Y-198445000D03*
X314650000Y-200985000D03*
X314650000Y-198445000D03*
X317190000Y-200985000D03*
X317190000Y-198445000D03*
X319730000Y-200985000D03*
X319730000Y-198445000D03*
%TD*%
D11*
%TO.C,U1*%
X211410000Y-283205000D03*
D12*
X211410000Y-280665000D03*
X211410000Y-278125000D03*
X211410000Y-275585000D03*
X211410000Y-273045000D03*
X211410000Y-270505000D03*
X211410000Y-267965000D03*
X211410000Y-265425000D03*
X211410000Y-262885000D03*
X211410000Y-260345000D03*
X211410000Y-257805000D03*
X211410000Y-255265000D03*
X211410000Y-252725000D03*
X211410000Y-250185000D03*
X211410000Y-247645000D03*
X211410000Y-245105000D03*
X211410000Y-242565000D03*
X211410000Y-240025000D03*
X211410000Y-237485000D03*
X211410000Y-234945000D03*
X193630000Y-234945000D03*
X193630000Y-237485000D03*
X193630000Y-240025000D03*
X193630000Y-242565000D03*
X193630000Y-245105000D03*
X193630000Y-247645000D03*
X193630000Y-250185000D03*
X193630000Y-252725000D03*
X193630000Y-255265000D03*
X193630000Y-257805000D03*
X193630000Y-260345000D03*
X193630000Y-262885000D03*
X193630000Y-265425000D03*
X193630000Y-267965000D03*
X193630000Y-270505000D03*
X193630000Y-273045000D03*
X193630000Y-275585000D03*
X193630000Y-278125000D03*
X193630000Y-280665000D03*
D14*
X193630000Y-283205000D03*
%TD*%
D21*
%TO.C,J2*%
X169390000Y-207045000D03*
D13*
X163390000Y-207045000D03*
X166390000Y-211745000D03*
%TD*%
D11*
%TO.C,U2*%
X193630000Y-116205000D03*
D12*
X193630000Y-118745000D03*
X193630000Y-121285000D03*
X193630000Y-123825000D03*
X193630000Y-126365000D03*
X193630000Y-128905000D03*
X193630000Y-131445000D03*
X193630000Y-133985000D03*
X193630000Y-136525000D03*
X193630000Y-139065000D03*
X193630000Y-141605000D03*
X193630000Y-144145000D03*
X193630000Y-146685000D03*
X193630000Y-149225000D03*
X193630000Y-151765000D03*
X193630000Y-154305000D03*
X193630000Y-156845000D03*
X193630000Y-159385000D03*
X193630000Y-161925000D03*
X193630000Y-164465000D03*
X211410000Y-164465000D03*
X211410000Y-161925000D03*
X211410000Y-159385000D03*
X211410000Y-156845000D03*
X211410000Y-154305000D03*
X211410000Y-151765000D03*
X211410000Y-149225000D03*
X211410000Y-146685000D03*
X211410000Y-144145000D03*
X211410000Y-141605000D03*
X211410000Y-139065000D03*
X211410000Y-136525000D03*
X211410000Y-133985000D03*
X211410000Y-131445000D03*
X211410000Y-128905000D03*
X211410000Y-126365000D03*
X211410000Y-123825000D03*
X211410000Y-121285000D03*
X211410000Y-118745000D03*
D14*
X211410000Y-116205000D03*
%TD*%
D18*
%TO.C,H13*%
X385830000Y-200075000D03*
%TD*%
D19*
%TO.C,D18*%
X162985000Y-285900000D03*
D20*
X162985000Y-293520000D03*
%TD*%
D19*
%TO.C,D19*%
X246460000Y-105915000D03*
D20*
X246460000Y-113535000D03*
%TD*%
D19*
%TO.C,D20*%
X242555000Y-113530000D03*
D20*
X242555000Y-105910000D03*
%TD*%
D11*
%TO.C,U9*%
X287035000Y-116205000D03*
D12*
X287035000Y-118745000D03*
X287035000Y-121285000D03*
X287035000Y-123825000D03*
X287035000Y-126365000D03*
X287035000Y-128905000D03*
X287035000Y-131445000D03*
X287035000Y-133985000D03*
X287035000Y-136525000D03*
X287035000Y-139065000D03*
X287035000Y-141605000D03*
X287035000Y-144145000D03*
X287035000Y-146685000D03*
X287035000Y-149225000D03*
X287035000Y-151765000D03*
X287035000Y-154305000D03*
X287035000Y-156845000D03*
X287035000Y-159385000D03*
X287035000Y-161925000D03*
X287035000Y-164465000D03*
X304815000Y-164465000D03*
X304815000Y-161925000D03*
X304815000Y-159385000D03*
X304815000Y-156845000D03*
X304815000Y-154305000D03*
X304815000Y-151765000D03*
X304815000Y-149225000D03*
X304815000Y-146685000D03*
X304815000Y-144145000D03*
X304815000Y-141605000D03*
X304815000Y-139065000D03*
X304815000Y-136525000D03*
X304815000Y-133985000D03*
X304815000Y-131445000D03*
X304815000Y-128905000D03*
X304815000Y-126365000D03*
X304815000Y-123825000D03*
X304815000Y-121285000D03*
X304815000Y-118745000D03*
D14*
X304815000Y-116205000D03*
%TD*%
D11*
%TO.C,U10*%
X304885000Y-283205000D03*
D12*
X304885000Y-280665000D03*
X304885000Y-278125000D03*
X304885000Y-275585000D03*
X304885000Y-273045000D03*
X304885000Y-270505000D03*
X304885000Y-267965000D03*
X304885000Y-265425000D03*
X304885000Y-262885000D03*
X304885000Y-260345000D03*
X304885000Y-257805000D03*
X304885000Y-255265000D03*
X304885000Y-252725000D03*
X304885000Y-250185000D03*
X304885000Y-247645000D03*
X304885000Y-245105000D03*
X304885000Y-242565000D03*
X304885000Y-240025000D03*
X304885000Y-237485000D03*
X304885000Y-234945000D03*
X287105000Y-234945000D03*
X287105000Y-237485000D03*
X287105000Y-240025000D03*
X287105000Y-242565000D03*
X287105000Y-245105000D03*
X287105000Y-247645000D03*
X287105000Y-250185000D03*
X287105000Y-252725000D03*
X287105000Y-255265000D03*
X287105000Y-257805000D03*
X287105000Y-260345000D03*
X287105000Y-262885000D03*
X287105000Y-265425000D03*
X287105000Y-267965000D03*
X287105000Y-270505000D03*
X287105000Y-273045000D03*
X287105000Y-275585000D03*
X287105000Y-278125000D03*
X287105000Y-280665000D03*
D14*
X287105000Y-283205000D03*
%TD*%
D11*
%TO.C,U18*%
X398370000Y-283205000D03*
D12*
X398370000Y-280665000D03*
X398370000Y-278125000D03*
X398370000Y-275585000D03*
X398370000Y-273045000D03*
X398370000Y-270505000D03*
X398370000Y-267965000D03*
X398370000Y-265425000D03*
X398370000Y-262885000D03*
X398370000Y-260345000D03*
X398370000Y-257805000D03*
X398370000Y-255265000D03*
X398370000Y-252725000D03*
X398370000Y-250185000D03*
X398370000Y-247645000D03*
X398370000Y-245105000D03*
X398370000Y-242565000D03*
X398370000Y-240025000D03*
X398370000Y-237485000D03*
X398370000Y-234945000D03*
X380590000Y-234945000D03*
X380590000Y-237485000D03*
X380590000Y-240025000D03*
X380590000Y-242565000D03*
X380590000Y-245105000D03*
X380590000Y-247645000D03*
X380590000Y-250185000D03*
X380590000Y-252725000D03*
X380590000Y-255265000D03*
X380590000Y-257805000D03*
X380590000Y-260345000D03*
X380590000Y-262885000D03*
X380590000Y-265425000D03*
X380590000Y-267965000D03*
X380590000Y-270505000D03*
X380590000Y-273045000D03*
X380590000Y-275585000D03*
X380590000Y-278125000D03*
X380590000Y-280665000D03*
D14*
X380590000Y-283205000D03*
%TD*%
D15*
%TO.C,J7*%
X427420000Y-201510000D03*
D16*
X427420000Y-198010000D03*
%TD*%
D22*
%TO.C,J9_1*%
X228760000Y-305000000D03*
D23*
X233840000Y-305000000D03*
X238920000Y-305000000D03*
X244000000Y-305000000D03*
%TD*%
D19*
%TO.C,D41*%
X339030000Y-105875000D03*
D20*
X339030000Y-113495000D03*
%TD*%
D19*
%TO.C,D39*%
X253460000Y-293520000D03*
D20*
X253460000Y-285900000D03*
%TD*%
D15*
%TO.C,PS1*%
X190890000Y-197170000D03*
D16*
X193430000Y-197170000D03*
X195970000Y-197170000D03*
X198510000Y-197170000D03*
X201050000Y-197170000D03*
X203590000Y-197170000D03*
X206130000Y-197170000D03*
X208670000Y-197170000D03*
X211210000Y-197170000D03*
X213750000Y-197170000D03*
X216290000Y-197170000D03*
X218830000Y-197170000D03*
%TD*%
D22*
%TO.C,J3_2*%
X156760000Y-305000000D03*
D23*
X161840000Y-305000000D03*
X166920000Y-305000000D03*
X172000000Y-305000000D03*
%TD*%
D24*
%TO.C,J10_1*%
X172000000Y-94777500D03*
D23*
X166920000Y-94777500D03*
X161840000Y-94777500D03*
X156760000Y-94777500D03*
%TD*%
D22*
%TO.C,J17_2*%
X348680000Y-305000000D03*
D23*
X353760000Y-305000000D03*
X358840000Y-305000000D03*
X363920000Y-305000000D03*
%TD*%
D24*
%TO.C,J4_1*%
X220000000Y-94777500D03*
D23*
X214920000Y-94777500D03*
X209840000Y-94777500D03*
X204760000Y-94777500D03*
%TD*%
D22*
%TO.C,J15_2*%
X300760000Y-305000000D03*
D23*
X305840000Y-305000000D03*
X310920000Y-305000000D03*
X316000000Y-305000000D03*
%TD*%
D24*
%TO.C,J21_1*%
X364000000Y-94777500D03*
D23*
X358920000Y-94777500D03*
X353840000Y-94777500D03*
X348760000Y-94777500D03*
%TD*%
D24*
%TO.C,J16_2*%
X292000000Y-94777500D03*
D23*
X286920000Y-94777500D03*
X281840000Y-94777500D03*
X276760000Y-94777500D03*
%TD*%
D22*
%TO.C,J15_1*%
X324760000Y-305000000D03*
D23*
X329840000Y-305000000D03*
X334920000Y-305000000D03*
X340000000Y-305000000D03*
%TD*%
D19*
%TO.C,D64*%
X429240000Y-113510000D03*
D20*
X429240000Y-105890000D03*
%TD*%
D11*
%TO.C,J13*%
X293480000Y-164095000D03*
D12*
X296020000Y-164095000D03*
X298560000Y-164095000D03*
%TD*%
D24*
%TO.C,J18_1*%
X412000000Y-94777500D03*
D23*
X406920000Y-94777500D03*
X401840000Y-94777500D03*
X396760000Y-94777500D03*
%TD*%
D25*
%TO.C,FB1*%
X407447832Y-277495000D03*
X407447832Y-272415000D03*
%TD*%
D17*
%TO.C,H3*%
X449400000Y-89700000D03*
%TD*%
D24*
%TO.C,J4_2*%
X244000000Y-94777500D03*
D23*
X238920000Y-94777500D03*
X233840000Y-94777500D03*
X228760000Y-94777500D03*
%TD*%
D22*
%TO.C,J11_2*%
X252760000Y-305000000D03*
D23*
X257840000Y-305000000D03*
X262920000Y-305000000D03*
X268000000Y-305000000D03*
%TD*%
D22*
%TO.C,J11_1*%
X276760000Y-305000000D03*
D23*
X281840000Y-305000000D03*
X286920000Y-305000000D03*
X292000000Y-305000000D03*
%TD*%
D26*
%TO.C,J4*%
X408098500Y-304625000D03*
X419528500Y-304625000D03*
D27*
X409368500Y-298275000D03*
D28*
X410638500Y-295735000D03*
X411908500Y-298275000D03*
X413178500Y-295735000D03*
X414448500Y-298275000D03*
X415718500Y-295735000D03*
X416988500Y-298275000D03*
X418258500Y-295735000D03*
D29*
X407173500Y-308685000D03*
X409713500Y-308685000D03*
X417913500Y-308685000D03*
X420453500Y-308685000D03*
D30*
X405963500Y-301575000D03*
X421663500Y-301575000D03*
%TD*%
D24*
%TO.C,J16_1*%
X268000000Y-94777500D03*
D23*
X262920000Y-94777500D03*
X257840000Y-94777500D03*
X252760000Y-94777500D03*
%TD*%
D24*
%TO.C,J21_2*%
X388000000Y-94777500D03*
D23*
X382920000Y-94777500D03*
X377840000Y-94777500D03*
X372760000Y-94777500D03*
%TD*%
D24*
%TO.C,J18_2*%
X436000000Y-94777500D03*
D23*
X430920000Y-94777500D03*
X425840000Y-94777500D03*
X420760000Y-94777500D03*
%TD*%
D19*
%TO.C,D63*%
X433270000Y-105890000D03*
D20*
X433270000Y-113510000D03*
%TD*%
D19*
%TO.C,D42*%
X335045000Y-113495000D03*
D20*
X335045000Y-105875000D03*
%TD*%
D24*
%TO.C,J10_2*%
X196000000Y-94777500D03*
D23*
X190920000Y-94777500D03*
X185840000Y-94777500D03*
X180760000Y-94777500D03*
%TD*%
D22*
%TO.C,J3_1*%
X180760000Y-305000000D03*
D23*
X185840000Y-305000000D03*
X190920000Y-305000000D03*
X196000000Y-305000000D03*
%TD*%
D24*
%TO.C,J12_1*%
X316000000Y-94777500D03*
D23*
X310920000Y-94777500D03*
X305840000Y-94777500D03*
X300760000Y-94777500D03*
%TD*%
D22*
%TO.C,J9_2*%
X204760000Y-305000000D03*
D23*
X209840000Y-305000000D03*
X214920000Y-305000000D03*
X220000000Y-305000000D03*
%TD*%
D22*
%TO.C,J17_1*%
X372760000Y-305000000D03*
D23*
X377840000Y-305000000D03*
X382920000Y-305000000D03*
X388000000Y-305000000D03*
%TD*%
D19*
%TO.C,D40*%
X257465000Y-285900000D03*
D20*
X257465000Y-293520000D03*
%TD*%
D24*
%TO.C,J12_2*%
X340000000Y-94777500D03*
D23*
X334920000Y-94777500D03*
X329840000Y-94777500D03*
X324760000Y-94777500D03*
%TD*%
M02*
