%TF.GenerationSoftware,KiCad,Pcbnew,8.0.1*%
%TF.CreationDate,2024-04-17T10:04:04-05:00*%
%TF.ProjectId,Kristerj,4b726973-7465-4726-9a2e-6b696361645f,rev?*%
%TF.SameCoordinates,Original*%
%TF.FileFunction,Soldermask,Top*%
%TF.FilePolarity,Negative*%
%FSLAX46Y46*%
G04 Gerber Fmt 4.6, Leading zero omitted, Abs format (unit mm)*
G04 Created by KiCad (PCBNEW 8.0.1) date 2024-04-17 10:04:04*
%MOMM*%
%LPD*%
G01*
G04 APERTURE LIST*
G04 Aperture macros list*
%AMRoundRect*
0 Rectangle with rounded corners*
0 $1 Rounding radius*
0 $2 $3 $4 $5 $6 $7 $8 $9 X,Y pos of 4 corners*
0 Add a 4 corners polygon primitive as box body*
4,1,4,$2,$3,$4,$5,$6,$7,$8,$9,$2,$3,0*
0 Add four circle primitives for the rounded corners*
1,1,$1+$1,$2,$3*
1,1,$1+$1,$4,$5*
1,1,$1+$1,$6,$7*
1,1,$1+$1,$8,$9*
0 Add four rect primitives between the rounded corners*
20,1,$1+$1,$2,$3,$4,$5,0*
20,1,$1+$1,$4,$5,$6,$7,0*
20,1,$1+$1,$6,$7,$8,$9,0*
20,1,$1+$1,$8,$9,$2,$3,0*%
%AMFreePoly0*
4,1,19,0.550000,-0.750000,0.000000,-0.750000,0.000000,-0.744911,-0.071157,-0.744911,-0.207708,-0.704816,-0.327430,-0.627875,-0.420627,-0.520320,-0.479746,-0.390866,-0.500000,-0.250000,-0.500000,0.250000,-0.479746,0.390866,-0.420627,0.520320,-0.327430,0.627875,-0.207708,0.704816,-0.071157,0.744911,0.000000,0.744911,0.000000,0.750000,0.550000,0.750000,0.550000,-0.750000,0.550000,-0.750000,
$1*%
%AMFreePoly1*
4,1,19,0.000000,0.744911,0.071157,0.744911,0.207708,0.704816,0.327430,0.627875,0.420627,0.520320,0.479746,0.390866,0.500000,0.250000,0.500000,-0.250000,0.479746,-0.390866,0.420627,-0.520320,0.327430,-0.627875,0.207708,-0.704816,0.071157,-0.744911,0.000000,-0.744911,0.000000,-0.750000,-0.550000,-0.750000,-0.550000,0.750000,0.000000,0.750000,0.000000,0.744911,0.000000,0.744911,
$1*%
G04 Aperture macros list end*
%ADD10RoundRect,0.250000X0.325000X0.650000X-0.325000X0.650000X-0.325000X-0.650000X0.325000X-0.650000X0*%
%ADD11RoundRect,0.225000X-0.250000X0.225000X-0.250000X-0.225000X0.250000X-0.225000X0.250000X0.225000X0*%
%ADD12RoundRect,0.225000X0.250000X-0.225000X0.250000X0.225000X-0.250000X0.225000X-0.250000X-0.225000X0*%
%ADD13R,0.450000X0.600000*%
%ADD14R,3.300000X2.500000*%
%ADD15RoundRect,0.112500X-0.112500X0.187500X-0.112500X-0.187500X0.112500X-0.187500X0.112500X0.187500X0*%
%ADD16RoundRect,0.112500X0.112500X-0.187500X0.112500X0.187500X-0.112500X0.187500X-0.112500X-0.187500X0*%
%ADD17C,1.710000*%
%ADD18R,1.700000X1.700000*%
%ADD19O,1.700000X1.700000*%
%ADD20C,2.600000*%
%ADD21RoundRect,0.250000X-0.300000X2.050000X-0.300000X-2.050000X0.300000X-2.050000X0.300000X2.050000X0*%
%ADD22RoundRect,0.250002X-5.149998X4.449998X-5.149998X-4.449998X5.149998X-4.449998X5.149998X4.449998X0*%
%ADD23RoundRect,0.250000X0.350000X-0.850000X0.350000X0.850000X-0.350000X0.850000X-0.350000X-0.850000X0*%
%ADD24RoundRect,0.249997X2.650003X-2.950003X2.650003X2.950003X-2.650003X2.950003X-2.650003X-2.950003X0*%
%ADD25RoundRect,0.250000X0.300000X-2.050000X0.300000X2.050000X-0.300000X2.050000X-0.300000X-2.050000X0*%
%ADD26RoundRect,0.250002X5.149998X-4.449998X5.149998X4.449998X-5.149998X4.449998X-5.149998X-4.449998X0*%
%ADD27RoundRect,0.200000X0.275000X-0.200000X0.275000X0.200000X-0.275000X0.200000X-0.275000X-0.200000X0*%
%ADD28RoundRect,0.200000X-0.275000X0.200000X-0.275000X-0.200000X0.275000X-0.200000X0.275000X0.200000X0*%
%ADD29RoundRect,0.200000X0.200000X0.275000X-0.200000X0.275000X-0.200000X-0.275000X0.200000X-0.275000X0*%
%ADD30RoundRect,0.200000X-0.200000X-0.275000X0.200000X-0.275000X0.200000X0.275000X-0.200000X0.275000X0*%
%ADD31RoundRect,0.062500X0.362500X0.062500X-0.362500X0.062500X-0.362500X-0.062500X0.362500X-0.062500X0*%
%ADD32R,1.650000X2.380000*%
%ADD33RoundRect,0.062500X-0.362500X-0.062500X0.362500X-0.062500X0.362500X0.062500X-0.362500X0.062500X0*%
%ADD34C,1.700000*%
%ADD35R,1.800000X1.800000*%
%ADD36C,1.800000*%
%ADD37C,5.500000*%
%ADD38C,3.500000*%
%ADD39R,2.200000X2.200000*%
%ADD40O,2.200000X2.200000*%
%ADD41RoundRect,0.225000X-0.225000X-0.250000X0.225000X-0.250000X0.225000X0.250000X-0.225000X0.250000X0*%
%ADD42RoundRect,0.225000X0.225000X0.250000X-0.225000X0.250000X-0.225000X-0.250000X0.225000X-0.250000X0*%
%ADD43RoundRect,0.150000X-0.150000X0.587500X-0.150000X-0.587500X0.150000X-0.587500X0.150000X0.587500X0*%
%ADD44RoundRect,0.150000X-0.150000X0.512500X-0.150000X-0.512500X0.150000X-0.512500X0.150000X0.512500X0*%
%ADD45RoundRect,0.150000X0.150000X-0.512500X0.150000X0.512500X-0.150000X0.512500X-0.150000X-0.512500X0*%
%ADD46R,2.600000X2.600000*%
%ADD47RoundRect,0.250000X-1.400000X-1.000000X1.400000X-1.000000X1.400000X1.000000X-1.400000X1.000000X0*%
%ADD48RoundRect,0.250000X1.400000X1.000000X-1.400000X1.000000X-1.400000X-1.000000X1.400000X-1.000000X0*%
%ADD49RoundRect,0.250000X-0.350000X0.850000X-0.350000X-0.850000X0.350000X-0.850000X0.350000X0.850000X0*%
%ADD50RoundRect,0.249997X-2.650003X2.950003X-2.650003X-2.950003X2.650003X-2.950003X2.650003X2.950003X0*%
%ADD51RoundRect,0.150000X0.150000X-0.587500X0.150000X0.587500X-0.150000X0.587500X-0.150000X-0.587500X0*%
%ADD52RoundRect,0.200000X-0.200000X-0.250000X0.200000X-0.250000X0.200000X0.250000X-0.200000X0.250000X0*%
%ADD53RoundRect,0.249999X-0.790001X-1.550001X0.790001X-1.550001X0.790001X1.550001X-0.790001X1.550001X0*%
%ADD54O,2.080000X3.600000*%
%ADD55RoundRect,0.062500X0.375000X0.062500X-0.375000X0.062500X-0.375000X-0.062500X0.375000X-0.062500X0*%
%ADD56RoundRect,0.062500X0.062500X0.375000X-0.062500X0.375000X-0.062500X-0.375000X0.062500X-0.375000X0*%
%ADD57R,2.500000X2.500000*%
%ADD58RoundRect,0.100000X-0.637500X-0.100000X0.637500X-0.100000X0.637500X0.100000X-0.637500X0.100000X0*%
%ADD59FreePoly0,0.000000*%
%ADD60R,1.000000X1.500000*%
%ADD61FreePoly1,0.000000*%
%ADD62RoundRect,0.250000X-0.325000X-0.650000X0.325000X-0.650000X0.325000X0.650000X-0.325000X0.650000X0*%
%ADD63RoundRect,0.249999X0.790001X1.550001X-0.790001X1.550001X-0.790001X-1.550001X0.790001X-1.550001X0*%
%ADD64FreePoly0,180.000000*%
%ADD65FreePoly1,180.000000*%
%ADD66RoundRect,0.150000X-0.587500X-0.150000X0.587500X-0.150000X0.587500X0.150000X-0.587500X0.150000X0*%
%ADD67C,2.000000*%
%ADD68RoundRect,0.100000X0.637500X0.100000X-0.637500X0.100000X-0.637500X-0.100000X0.637500X-0.100000X0*%
%ADD69C,3.250000*%
%ADD70RoundRect,0.102000X-0.704000X-0.704000X0.704000X-0.704000X0.704000X0.704000X-0.704000X0.704000X0*%
%ADD71C,1.612000*%
%ADD72C,1.734000*%
%ADD73C,2.604000*%
%ADD74RoundRect,0.150000X0.587500X0.150000X-0.587500X0.150000X-0.587500X-0.150000X0.587500X-0.150000X0*%
%ADD75RoundRect,0.150000X-0.825000X-0.150000X0.825000X-0.150000X0.825000X0.150000X-0.825000X0.150000X0*%
G04 APERTURE END LIST*
D10*
%TO.C,C3*%
X184700000Y-193215000D03*
X181750000Y-193215000D03*
%TD*%
D11*
%TO.C,C9*%
X246675000Y-125705000D03*
X246675000Y-127255000D03*
%TD*%
%TO.C,C10*%
X222230000Y-270475000D03*
X222230000Y-272025000D03*
%TD*%
D12*
%TO.C,C11*%
X172360000Y-273620000D03*
X172360000Y-272070000D03*
%TD*%
D11*
%TO.C,C16*%
X241090000Y-270475000D03*
X241090000Y-272025000D03*
%TD*%
%TO.C,C35*%
X419900000Y-125755000D03*
X419900000Y-127305000D03*
%TD*%
D12*
%TO.C,C36*%
X369850000Y-128935000D03*
X369850000Y-127385000D03*
%TD*%
D13*
%TO.C,D1*%
X237950000Y-290200000D03*
X237950000Y-288100000D03*
%TD*%
%TO.C,D3*%
X232980000Y-290200000D03*
X232980000Y-288100000D03*
%TD*%
%TO.C,D5*%
X203000000Y-104775000D03*
X203000000Y-106875000D03*
%TD*%
%TO.C,D7*%
X228060000Y-290200000D03*
X228060000Y-288100000D03*
%TD*%
%TO.C,D9*%
X211000000Y-104775000D03*
X211000000Y-106875000D03*
%TD*%
%TO.C,D11*%
X219000000Y-104775000D03*
X219000000Y-106875000D03*
%TD*%
%TO.C,D13*%
X222785000Y-290200000D03*
X222785000Y-288100000D03*
%TD*%
D14*
%TO.C,D15*%
X218210000Y-276705000D03*
X218210000Y-283505000D03*
%TD*%
D15*
%TO.C,D25*%
X266115000Y-109235000D03*
X266115000Y-111335000D03*
%TD*%
%TO.C,D29*%
X271030000Y-109235000D03*
X271030000Y-111335000D03*
%TD*%
%TO.C,D31*%
X302000000Y-104775000D03*
X302000000Y-106875000D03*
%TD*%
D16*
%TO.C,D32*%
X291000000Y-294050000D03*
X291000000Y-291950000D03*
%TD*%
D13*
%TO.C,D49*%
X389000000Y-104775000D03*
X389000000Y-106875000D03*
%TD*%
%TO.C,D51*%
X363945000Y-109165000D03*
X363945000Y-111265000D03*
%TD*%
%TO.C,D54*%
X382665000Y-294050000D03*
X382665000Y-291950000D03*
%TD*%
%TO.C,D55*%
X405000000Y-104775000D03*
X405000000Y-106875000D03*
%TD*%
D14*
%TO.C,D59*%
X373870000Y-122705000D03*
X373870000Y-115905000D03*
%TD*%
D17*
%TO.C,F1*%
X176300000Y-202235000D03*
X176300000Y-197135000D03*
%TD*%
D18*
%TO.C,J5*%
X204940000Y-235305000D03*
D19*
X202400000Y-235305000D03*
X199860000Y-235305000D03*
%TD*%
D18*
%TO.C,J19*%
X387060000Y-164095000D03*
D19*
X389600000Y-164095000D03*
X392140000Y-164095000D03*
%TD*%
D18*
%TO.C,J20*%
X391865000Y-235315000D03*
D19*
X389325000Y-235315000D03*
X386785000Y-235315000D03*
%TD*%
D20*
%TO.C,L1*%
X181725000Y-199700000D03*
X184725000Y-199700000D03*
%TD*%
D21*
%TO.C,Q11*%
X174010000Y-280770000D03*
D22*
X171470000Y-289920000D03*
D21*
X168930000Y-280770000D03*
%TD*%
D23*
%TO.C,Q33*%
X345745000Y-122855000D03*
D24*
X348025000Y-116555000D03*
D23*
X350305000Y-122855000D03*
%TD*%
D25*
%TO.C,Q36*%
X418225000Y-118640000D03*
D26*
X420765000Y-109490000D03*
D25*
X423305000Y-118640000D03*
%TD*%
D27*
%TO.C,R1*%
X240360000Y-293335000D03*
X240360000Y-291685000D03*
%TD*%
%TO.C,R2*%
X240360000Y-290095000D03*
X240360000Y-288445000D03*
%TD*%
D28*
%TO.C,R4*%
X164675000Y-109320000D03*
X164675000Y-110970000D03*
%TD*%
%TO.C,R5*%
X422385000Y-201400000D03*
X422385000Y-203050000D03*
%TD*%
D27*
%TO.C,R6*%
X422385000Y-198005000D03*
X422385000Y-196355000D03*
%TD*%
D28*
%TO.C,R9*%
X169550000Y-106075000D03*
X169550000Y-107725000D03*
%TD*%
D27*
%TO.C,R11*%
X186220000Y-249300000D03*
X186220000Y-247650000D03*
%TD*%
D28*
%TO.C,R13*%
X207000000Y-292175000D03*
X207000000Y-293825000D03*
%TD*%
D27*
%TO.C,R14*%
X230470000Y-293335000D03*
X230470000Y-291685000D03*
%TD*%
D28*
%TO.C,R22*%
X217045000Y-150115000D03*
X217045000Y-151765000D03*
%TD*%
%TO.C,R23*%
X199000000Y-292175000D03*
X199000000Y-293825000D03*
%TD*%
D27*
%TO.C,R24*%
X189980000Y-274075000D03*
X189980000Y-272425000D03*
%TD*%
%TO.C,R25*%
X218985000Y-151765000D03*
X218985000Y-150115000D03*
%TD*%
D28*
%TO.C,R26*%
X215165000Y-125325000D03*
X215165000Y-126975000D03*
%TD*%
D27*
%TO.C,R27*%
X217000000Y-106650000D03*
X217000000Y-105000000D03*
%TD*%
D28*
%TO.C,R28*%
X191000000Y-292175000D03*
X191000000Y-293825000D03*
%TD*%
D27*
%TO.C,R29*%
X225595000Y-293335000D03*
X225595000Y-291685000D03*
%TD*%
%TO.C,R30*%
X225595000Y-290095000D03*
X225595000Y-288445000D03*
%TD*%
D29*
%TO.C,R47*%
X228435000Y-274000000D03*
X226785000Y-274000000D03*
%TD*%
D28*
%TO.C,R52*%
X174385000Y-272020000D03*
X174385000Y-273670000D03*
%TD*%
D27*
%TO.C,R53*%
X231170000Y-127305000D03*
X231170000Y-125655000D03*
%TD*%
D29*
%TO.C,R58*%
X228910000Y-131570000D03*
X227260000Y-131570000D03*
%TD*%
D27*
%TO.C,R61*%
X242680000Y-127305000D03*
X242680000Y-125655000D03*
%TD*%
D29*
%TO.C,R62*%
X161115000Y-142085000D03*
X159465000Y-142085000D03*
%TD*%
D30*
%TO.C,R65*%
X245270000Y-267735000D03*
X246920000Y-267735000D03*
%TD*%
D28*
%TO.C,R87*%
X301000000Y-292175000D03*
X301000000Y-293825000D03*
%TD*%
%TO.C,R89*%
X268625000Y-106095000D03*
X268625000Y-107745000D03*
%TD*%
%TO.C,R90*%
X268625000Y-109340000D03*
X268625000Y-110990000D03*
%TD*%
D27*
%TO.C,R93*%
X323130000Y-290090000D03*
X323130000Y-288440000D03*
%TD*%
D28*
%TO.C,R95*%
X283445000Y-247645000D03*
X283445000Y-249295000D03*
%TD*%
D27*
%TO.C,R96*%
X300000000Y-106650000D03*
X300000000Y-105000000D03*
%TD*%
D28*
%TO.C,R97*%
X293000000Y-292175000D03*
X293000000Y-293825000D03*
%TD*%
%TO.C,R99*%
X308347500Y-125325000D03*
X308347500Y-126975000D03*
%TD*%
D27*
%TO.C,R101*%
X308000000Y-106650000D03*
X308000000Y-105000000D03*
%TD*%
D28*
%TO.C,R104*%
X273495000Y-109340000D03*
X273495000Y-110990000D03*
%TD*%
D27*
%TO.C,R105*%
X318260000Y-293395000D03*
X318260000Y-291745000D03*
%TD*%
%TO.C,R106*%
X318260000Y-290090000D03*
X318260000Y-288440000D03*
%TD*%
%TO.C,R107*%
X298555000Y-160470000D03*
X298555000Y-158820000D03*
%TD*%
D28*
%TO.C,R108*%
X293485000Y-158820000D03*
X293485000Y-160470000D03*
%TD*%
%TO.C,R109*%
X293305000Y-238965000D03*
X293305000Y-240615000D03*
%TD*%
D30*
%TO.C,R111*%
X319795000Y-257855000D03*
X321445000Y-257855000D03*
%TD*%
%TO.C,R112*%
X266740000Y-269715000D03*
X268390000Y-269715000D03*
%TD*%
%TO.C,R115*%
X320060000Y-264110000D03*
X321710000Y-264110000D03*
%TD*%
D29*
%TO.C,R116*%
X321710000Y-265925000D03*
X320060000Y-265925000D03*
%TD*%
D27*
%TO.C,R132*%
X335190000Y-127380000D03*
X335190000Y-125730000D03*
%TD*%
D30*
%TO.C,R133*%
X338235000Y-257855000D03*
X339885000Y-257855000D03*
%TD*%
D29*
%TO.C,R134*%
X254045000Y-141460000D03*
X252395000Y-141460000D03*
%TD*%
%TO.C,R135*%
X338185000Y-264110000D03*
X336535000Y-264110000D03*
%TD*%
%TO.C,R136*%
X340185000Y-265925000D03*
X338535000Y-265925000D03*
%TD*%
D30*
%TO.C,R137*%
X338535000Y-267735000D03*
X340185000Y-267735000D03*
%TD*%
%TO.C,R138*%
X253590000Y-135210000D03*
X255240000Y-135210000D03*
%TD*%
%TO.C,R139*%
X251580000Y-133400000D03*
X253230000Y-133400000D03*
%TD*%
%TO.C,R140*%
X257800000Y-275510000D03*
X259450000Y-275510000D03*
%TD*%
D29*
%TO.C,R141*%
X334720000Y-123880000D03*
X333070000Y-123880000D03*
%TD*%
%TO.C,R142*%
X253240000Y-131570000D03*
X251590000Y-131570000D03*
%TD*%
%TO.C,R143*%
X340185000Y-274000000D03*
X338535000Y-274000000D03*
%TD*%
D30*
%TO.C,R144*%
X251590000Y-125435000D03*
X253240000Y-125435000D03*
%TD*%
D28*
%TO.C,R145*%
X272890000Y-292565000D03*
X272890000Y-294215000D03*
%TD*%
D27*
%TO.C,R146*%
X319635000Y-106650000D03*
X319635000Y-105000000D03*
%TD*%
%TO.C,R147*%
X332060000Y-272075000D03*
X332060000Y-270425000D03*
%TD*%
D28*
%TO.C,R148*%
X259720000Y-127270000D03*
X259720000Y-128920000D03*
%TD*%
%TO.C,R153*%
X356615000Y-106045000D03*
X356615000Y-107695000D03*
%TD*%
%TO.C,R154*%
X356620000Y-109270000D03*
X356620000Y-110920000D03*
%TD*%
%TO.C,R157*%
X402130000Y-150115000D03*
X402130000Y-151765000D03*
%TD*%
D27*
%TO.C,R158*%
X373055000Y-248990000D03*
X373055000Y-247340000D03*
%TD*%
%TO.C,R159*%
X387000000Y-106650000D03*
X387000000Y-105000000D03*
%TD*%
D28*
%TO.C,R169*%
X374955000Y-247330000D03*
X374955000Y-248980000D03*
%TD*%
%TO.C,R170*%
X384710000Y-292175000D03*
X384710000Y-293825000D03*
%TD*%
%TO.C,R171*%
X402140000Y-125335000D03*
X402140000Y-126985000D03*
%TD*%
D27*
%TO.C,R172*%
X376867500Y-274070000D03*
X376867500Y-272420000D03*
%TD*%
D28*
%TO.C,R175*%
X366405000Y-106045000D03*
X366405000Y-107695000D03*
%TD*%
%TO.C,R176*%
X366405000Y-109270000D03*
X366405000Y-110920000D03*
%TD*%
D27*
%TO.C,R179*%
X392145000Y-160470000D03*
X392145000Y-158820000D03*
%TD*%
D28*
%TO.C,R180*%
X387075000Y-158820000D03*
X387075000Y-160470000D03*
%TD*%
%TO.C,R181*%
X386790000Y-238965000D03*
X386790000Y-240615000D03*
%TD*%
D27*
%TO.C,R182*%
X389865000Y-240615000D03*
X389865000Y-238965000D03*
%TD*%
D29*
%TO.C,R183*%
X366060000Y-141555000D03*
X364410000Y-141555000D03*
%TD*%
%TO.C,R185*%
X419970000Y-129740000D03*
X418320000Y-129740000D03*
%TD*%
%TO.C,R187*%
X365295000Y-135300000D03*
X363645000Y-135300000D03*
%TD*%
D30*
%TO.C,R188*%
X363645000Y-133485000D03*
X365295000Y-133485000D03*
%TD*%
D29*
%TO.C,R189*%
X365295000Y-131675000D03*
X363645000Y-131675000D03*
%TD*%
D30*
%TO.C,R193*%
X363645000Y-125410000D03*
X365295000Y-125410000D03*
%TD*%
D28*
%TO.C,R195*%
X371735000Y-127335000D03*
X371735000Y-128985000D03*
%TD*%
D27*
%TO.C,R198*%
X417870000Y-127355000D03*
X417870000Y-125705000D03*
%TD*%
D31*
%TO.C,U5*%
X170085000Y-273325000D03*
X170085000Y-272825000D03*
X170085000Y-272325000D03*
X170085000Y-271825000D03*
X167185000Y-271825000D03*
X167185000Y-272325000D03*
X167185000Y-272825000D03*
X167185000Y-273325000D03*
D32*
X168635000Y-272575000D03*
%TD*%
D31*
%TO.C,U13*%
X264540000Y-273360000D03*
X264540000Y-272860000D03*
X264540000Y-272360000D03*
X264540000Y-271860000D03*
X261640000Y-271860000D03*
X261640000Y-272360000D03*
X261640000Y-272860000D03*
X261640000Y-273360000D03*
D32*
X263090000Y-272610000D03*
%TD*%
D33*
%TO.C,U14*%
X327980000Y-126075000D03*
X327980000Y-126575000D03*
X327980000Y-127075000D03*
X327980000Y-127575000D03*
X330880000Y-127575000D03*
X330880000Y-127075000D03*
X330880000Y-126575000D03*
X330880000Y-126075000D03*
D32*
X329430000Y-126825000D03*
%TD*%
D18*
%TO.C,U17*%
X380585000Y-116205000D03*
D19*
X380585000Y-118745000D03*
X380585000Y-121285000D03*
X380585000Y-123825000D03*
X380585000Y-126365000D03*
X380585000Y-128905000D03*
X380585000Y-131445000D03*
X380585000Y-133985000D03*
X380585000Y-136525000D03*
X380585000Y-139065000D03*
X380585000Y-141605000D03*
X380585000Y-144145000D03*
X380585000Y-146685000D03*
X380585000Y-149225000D03*
X380585000Y-151765000D03*
X380585000Y-154305000D03*
X380585000Y-156845000D03*
X380585000Y-159385000D03*
X380585000Y-161925000D03*
X380585000Y-164465000D03*
X398365000Y-164465000D03*
X398365000Y-161925000D03*
X398365000Y-159385000D03*
X398365000Y-156845000D03*
X398365000Y-154305000D03*
X398365000Y-151765000D03*
X398365000Y-149225000D03*
X398365000Y-146685000D03*
X398365000Y-144145000D03*
X398365000Y-141605000D03*
X398365000Y-139065000D03*
X398365000Y-136525000D03*
X398365000Y-133985000D03*
X398365000Y-131445000D03*
X398365000Y-128905000D03*
X398365000Y-126365000D03*
X398365000Y-123825000D03*
X398365000Y-121285000D03*
X398365000Y-118745000D03*
D34*
X398365000Y-116205000D03*
%TD*%
D33*
%TO.C,U22*%
X422180000Y-126050000D03*
X422180000Y-126550000D03*
X422180000Y-127050000D03*
X422180000Y-127550000D03*
X425080000Y-127550000D03*
X425080000Y-127050000D03*
X425080000Y-126550000D03*
X425080000Y-126050000D03*
D32*
X423630000Y-126800000D03*
%TD*%
D16*
%TO.C,D30*%
X320725000Y-290195000D03*
X320725000Y-288095000D03*
%TD*%
D35*
%TO.C,J1*%
X161185000Y-191455000D03*
D36*
X161185000Y-194955000D03*
%TD*%
D37*
%TO.C,H1*%
X142500000Y-309700000D03*
%TD*%
%TO.C,H11*%
X449400000Y-309700000D03*
%TD*%
%TO.C,H5*%
X142500000Y-89700000D03*
%TD*%
D38*
%TO.C,H2*%
X173120000Y-250255000D03*
%TD*%
%TO.C,H6*%
X336260000Y-199720000D03*
%TD*%
%TO.C,H7*%
X420850000Y-144035000D03*
%TD*%
D37*
%TO.C,H8*%
X323650000Y-143835000D03*
%TD*%
D38*
%TO.C,H9*%
X171939260Y-144302740D03*
%TD*%
%TO.C,H10*%
X256260000Y-199720000D03*
%TD*%
D37*
%TO.C,H4*%
X406910000Y-251155000D03*
%TD*%
D38*
%TO.C,H12*%
X264530000Y-250555000D03*
%TD*%
D10*
%TO.C,C1*%
X184700000Y-209295000D03*
X181750000Y-209295000D03*
%TD*%
D18*
%TO.C,J6*%
X200055000Y-164095000D03*
D19*
X202595000Y-164095000D03*
X205135000Y-164095000D03*
%TD*%
D18*
%TO.C,J14*%
X298390000Y-235310000D03*
D19*
X295850000Y-235310000D03*
X293310000Y-235310000D03*
%TD*%
D13*
%TO.C,D6*%
X205000000Y-294050000D03*
X205000000Y-291950000D03*
%TD*%
%TO.C,D4*%
X171890000Y-109205000D03*
X171890000Y-111305000D03*
%TD*%
%TO.C,D2*%
X166915000Y-109215000D03*
X166915000Y-111315000D03*
%TD*%
%TO.C,D8*%
X176840000Y-109215000D03*
X176840000Y-111315000D03*
%TD*%
%TO.C,D14*%
X181870000Y-109215000D03*
X181870000Y-111315000D03*
%TD*%
%TO.C,D12*%
X189000000Y-294050000D03*
X189000000Y-291950000D03*
%TD*%
D39*
%TO.C,D17*%
X159080000Y-293520000D03*
D40*
X159080000Y-285900000D03*
%TD*%
D14*
%TO.C,D16*%
X187360000Y-122740000D03*
X187360000Y-115940000D03*
%TD*%
D13*
%TO.C,D10*%
X197000000Y-294050000D03*
X197000000Y-291950000D03*
%TD*%
D29*
%TO.C,R64*%
X246920000Y-265925000D03*
X245270000Y-265925000D03*
%TD*%
D30*
%TO.C,R66*%
X160665000Y-135335000D03*
X162315000Y-135335000D03*
%TD*%
%TO.C,R67*%
X158665000Y-133540000D03*
X160315000Y-133540000D03*
%TD*%
D29*
%TO.C,R63*%
X244920000Y-264110000D03*
X243270000Y-264110000D03*
%TD*%
D27*
%TO.C,R57*%
X244705000Y-127305000D03*
X244705000Y-125655000D03*
%TD*%
D29*
%TO.C,R43*%
X178795000Y-135250000D03*
X177145000Y-135250000D03*
%TD*%
%TO.C,R40*%
X233270000Y-129630000D03*
X231620000Y-129630000D03*
%TD*%
D28*
%TO.C,R33*%
X199865000Y-238955000D03*
X199865000Y-240605000D03*
%TD*%
D30*
%TO.C,R56*%
X176655000Y-267730000D03*
X178305000Y-267730000D03*
%TD*%
D28*
%TO.C,R49*%
X344810000Y-196660000D03*
X344810000Y-198310000D03*
%TD*%
%TO.C,R36*%
X200055000Y-158820000D03*
X200055000Y-160470000D03*
%TD*%
D30*
%TO.C,R41*%
X226785000Y-264110000D03*
X228435000Y-264110000D03*
%TD*%
D28*
%TO.C,R32*%
X179450000Y-109320000D03*
X179450000Y-110970000D03*
%TD*%
D30*
%TO.C,R39*%
X172285000Y-269675000D03*
X173935000Y-269675000D03*
%TD*%
%TO.C,R37*%
X226020000Y-257355000D03*
X227670000Y-257355000D03*
%TD*%
%TO.C,R60*%
X244470000Y-257355000D03*
X246120000Y-257355000D03*
%TD*%
D29*
%TO.C,R38*%
X179545000Y-141995000D03*
X177895000Y-141995000D03*
%TD*%
D28*
%TO.C,R59*%
X162875000Y-272020000D03*
X162875000Y-273670000D03*
%TD*%
D27*
%TO.C,R54*%
X344815000Y-194855000D03*
X344815000Y-193205000D03*
%TD*%
D28*
%TO.C,R55*%
X160850000Y-272020000D03*
X160850000Y-273670000D03*
%TD*%
D30*
%TO.C,R48*%
X177135000Y-125495000D03*
X178785000Y-125495000D03*
%TD*%
D29*
%TO.C,R42*%
X228435000Y-265925000D03*
X226785000Y-265925000D03*
%TD*%
D27*
%TO.C,R34*%
X204940000Y-240615000D03*
X204940000Y-238965000D03*
%TD*%
%TO.C,R35*%
X205135000Y-160470000D03*
X205135000Y-158820000D03*
%TD*%
D41*
%TO.C,C19*%
X328015000Y-129700000D03*
X329565000Y-129700000D03*
%TD*%
D42*
%TO.C,C18*%
X264505000Y-269715000D03*
X262955000Y-269715000D03*
%TD*%
D33*
%TO.C,U6*%
X235470000Y-126000000D03*
X235470000Y-126500000D03*
X235470000Y-127000000D03*
X235470000Y-127500000D03*
X238370000Y-127500000D03*
X238370000Y-127000000D03*
X238370000Y-126500000D03*
X238370000Y-126000000D03*
D32*
X236920000Y-126750000D03*
%TD*%
D43*
%TO.C,Q13*%
X321615000Y-269875000D03*
X319715000Y-269875000D03*
X320665000Y-271750000D03*
%TD*%
D25*
%TO.C,Q12*%
X231545000Y-118640000D03*
D26*
X234085000Y-109490000D03*
D25*
X236625000Y-118640000D03*
%TD*%
D44*
%TO.C,Q6*%
X228815000Y-127170000D03*
X227865000Y-127170000D03*
X226915000Y-127170000D03*
X226915000Y-129445000D03*
X227865000Y-129445000D03*
X228815000Y-129445000D03*
%TD*%
D45*
%TO.C,Q5*%
X176750000Y-272130000D03*
X177700000Y-272130000D03*
X178650000Y-272130000D03*
X178650000Y-269855000D03*
X177700000Y-269855000D03*
X176750000Y-269855000D03*
%TD*%
D18*
%TO.C,J8*%
X271470000Y-200985000D03*
D19*
X271470000Y-198445000D03*
X274010000Y-200985000D03*
X274010000Y-198445000D03*
X276550000Y-200985000D03*
X276550000Y-198445000D03*
X279090000Y-200985000D03*
X279090000Y-198445000D03*
X281630000Y-200985000D03*
X281630000Y-198445000D03*
X284170000Y-200985000D03*
X284170000Y-198445000D03*
X286710000Y-200985000D03*
X286710000Y-198445000D03*
X289250000Y-200985000D03*
X289250000Y-198445000D03*
X291790000Y-200985000D03*
X291790000Y-198445000D03*
X294330000Y-200985000D03*
X294330000Y-198445000D03*
X296870000Y-200985000D03*
X296870000Y-198445000D03*
X299410000Y-200985000D03*
X299410000Y-198445000D03*
X301950000Y-200985000D03*
X301950000Y-198445000D03*
X304490000Y-200985000D03*
X304490000Y-198445000D03*
X307030000Y-200985000D03*
X307030000Y-198445000D03*
X309570000Y-200985000D03*
X309570000Y-198445000D03*
X312110000Y-200985000D03*
X312110000Y-198445000D03*
X314650000Y-200985000D03*
X314650000Y-198445000D03*
X317190000Y-200985000D03*
X317190000Y-198445000D03*
X319730000Y-200985000D03*
X319730000Y-198445000D03*
%TD*%
D28*
%TO.C,R10*%
X169550000Y-109320000D03*
X169550000Y-110970000D03*
%TD*%
D27*
%TO.C,R12*%
X201000000Y-106650000D03*
X201000000Y-105000000D03*
%TD*%
%TO.C,R21*%
X209000000Y-106650000D03*
X209000000Y-105000000D03*
%TD*%
D18*
%TO.C,U1*%
X211410000Y-283205000D03*
D19*
X211410000Y-280665000D03*
X211410000Y-278125000D03*
X211410000Y-275585000D03*
X211410000Y-273045000D03*
X211410000Y-270505000D03*
X211410000Y-267965000D03*
X211410000Y-265425000D03*
X211410000Y-262885000D03*
X211410000Y-260345000D03*
X211410000Y-257805000D03*
X211410000Y-255265000D03*
X211410000Y-252725000D03*
X211410000Y-250185000D03*
X211410000Y-247645000D03*
X211410000Y-245105000D03*
X211410000Y-242565000D03*
X211410000Y-240025000D03*
X211410000Y-237485000D03*
X211410000Y-234945000D03*
X193630000Y-234945000D03*
X193630000Y-237485000D03*
X193630000Y-240025000D03*
X193630000Y-242565000D03*
X193630000Y-245105000D03*
X193630000Y-247645000D03*
X193630000Y-250185000D03*
X193630000Y-252725000D03*
X193630000Y-255265000D03*
X193630000Y-257805000D03*
X193630000Y-260345000D03*
X193630000Y-262885000D03*
X193630000Y-265425000D03*
X193630000Y-267965000D03*
X193630000Y-270505000D03*
X193630000Y-273045000D03*
X193630000Y-275585000D03*
X193630000Y-278125000D03*
X193630000Y-280665000D03*
D34*
X193630000Y-283205000D03*
%TD*%
D28*
%TO.C,R19*%
X215145000Y-150115000D03*
X215145000Y-151765000D03*
%TD*%
D27*
%TO.C,R18*%
X188120000Y-249300000D03*
X188120000Y-247650000D03*
%TD*%
D28*
%TO.C,R17*%
X174465000Y-109320000D03*
X174465000Y-110970000D03*
%TD*%
D13*
%TO.C,D47*%
X359030000Y-109165000D03*
X359030000Y-111265000D03*
%TD*%
%TO.C,D53*%
X397000000Y-104775000D03*
X397000000Y-106875000D03*
%TD*%
%TO.C,D45*%
X354055000Y-109170000D03*
X354055000Y-111270000D03*
%TD*%
%TO.C,D57*%
X369215000Y-109165000D03*
X369215000Y-111265000D03*
%TD*%
D27*
%TO.C,R94*%
X310235000Y-151745000D03*
X310235000Y-150095000D03*
%TD*%
D28*
%TO.C,R102*%
X285000000Y-292175000D03*
X285000000Y-293825000D03*
%TD*%
%TO.C,R88*%
X308385000Y-150095000D03*
X308385000Y-151745000D03*
%TD*%
D29*
%TO.C,R114*%
X325780000Y-129700000D03*
X324130000Y-129700000D03*
%TD*%
%TO.C,R113*%
X272460000Y-141460000D03*
X270810000Y-141460000D03*
%TD*%
D28*
%TO.C,R103*%
X273495000Y-106095000D03*
X273495000Y-107745000D03*
%TD*%
D46*
%TO.C,J2*%
X169390000Y-207045000D03*
D20*
X163390000Y-207045000D03*
X166390000Y-211745000D03*
%TD*%
D18*
%TO.C,U2*%
X193630000Y-116205000D03*
D19*
X193630000Y-118745000D03*
X193630000Y-121285000D03*
X193630000Y-123825000D03*
X193630000Y-126365000D03*
X193630000Y-128905000D03*
X193630000Y-131445000D03*
X193630000Y-133985000D03*
X193630000Y-136525000D03*
X193630000Y-139065000D03*
X193630000Y-141605000D03*
X193630000Y-144145000D03*
X193630000Y-146685000D03*
X193630000Y-149225000D03*
X193630000Y-151765000D03*
X193630000Y-154305000D03*
X193630000Y-156845000D03*
X193630000Y-159385000D03*
X193630000Y-161925000D03*
X193630000Y-164465000D03*
X211410000Y-164465000D03*
X211410000Y-161925000D03*
X211410000Y-159385000D03*
X211410000Y-156845000D03*
X211410000Y-154305000D03*
X211410000Y-151765000D03*
X211410000Y-149225000D03*
X211410000Y-146685000D03*
X211410000Y-144145000D03*
X211410000Y-141605000D03*
X211410000Y-139065000D03*
X211410000Y-136525000D03*
X211410000Y-133985000D03*
X211410000Y-131445000D03*
X211410000Y-128905000D03*
X211410000Y-126365000D03*
X211410000Y-123825000D03*
X211410000Y-121285000D03*
X211410000Y-118745000D03*
D34*
X211410000Y-116205000D03*
%TD*%
D38*
%TO.C,H13*%
X385830000Y-200075000D03*
%TD*%
D10*
%TO.C,C2*%
X184700000Y-205460000D03*
X181750000Y-205460000D03*
%TD*%
%TO.C,C4*%
X184700000Y-189295000D03*
X181750000Y-189295000D03*
%TD*%
D42*
%TO.C,C5*%
X212775000Y-193675000D03*
X211225000Y-193675000D03*
%TD*%
%TO.C,C6*%
X170050000Y-269675000D03*
X168500000Y-269675000D03*
%TD*%
D41*
%TO.C,C7*%
X235505000Y-129640000D03*
X237055000Y-129640000D03*
%TD*%
D12*
%TO.C,C8*%
X158880000Y-273620000D03*
X158880000Y-272070000D03*
%TD*%
D11*
%TO.C,C12*%
X233195000Y-125705000D03*
X233195000Y-127255000D03*
%TD*%
D12*
%TO.C,C13*%
X183340000Y-129005000D03*
X183340000Y-127455000D03*
%TD*%
D11*
%TO.C,C14*%
X164920000Y-272070000D03*
X164920000Y-273620000D03*
%TD*%
D12*
%TO.C,C15*%
X240635000Y-127255000D03*
X240635000Y-125705000D03*
%TD*%
%TO.C,C20*%
X253335000Y-273655000D03*
X253335000Y-272105000D03*
%TD*%
D11*
%TO.C,C21*%
X339605000Y-125695000D03*
X339605000Y-127245000D03*
%TD*%
D12*
%TO.C,C22*%
X266815000Y-273655000D03*
X266815000Y-272105000D03*
%TD*%
D11*
%TO.C,C23*%
X325705000Y-125815000D03*
X325705000Y-127365000D03*
%TD*%
%TO.C,C24*%
X315505000Y-270475000D03*
X315505000Y-272025000D03*
%TD*%
D12*
%TO.C,C25*%
X276270000Y-128870000D03*
X276270000Y-127320000D03*
%TD*%
D11*
%TO.C,C26*%
X259375000Y-272105000D03*
X259375000Y-273655000D03*
%TD*%
D12*
%TO.C,C27*%
X333145000Y-127330000D03*
X333145000Y-125780000D03*
%TD*%
D11*
%TO.C,C28*%
X334440000Y-270475000D03*
X334440000Y-272025000D03*
%TD*%
D12*
%TO.C,C29*%
X257810000Y-128870000D03*
X257810000Y-127320000D03*
%TD*%
D41*
%TO.C,C31*%
X422215000Y-129740000D03*
X423765000Y-129740000D03*
%TD*%
D11*
%TO.C,C33*%
X433385000Y-125755000D03*
X433385000Y-127305000D03*
%TD*%
D39*
%TO.C,D18*%
X162985000Y-285900000D03*
D40*
X162985000Y-293520000D03*
%TD*%
D39*
%TO.C,D19*%
X246460000Y-105915000D03*
D40*
X246460000Y-113535000D03*
%TD*%
D39*
%TO.C,D20*%
X242555000Y-113530000D03*
D40*
X242555000Y-105910000D03*
%TD*%
D47*
%TO.C,D21*%
X236685000Y-276705000D03*
X236685000Y-283505000D03*
%TD*%
D48*
%TO.C,D22*%
X168900000Y-122740000D03*
X168900000Y-115940000D03*
%TD*%
D15*
%TO.C,D23*%
X261145000Y-109235000D03*
X261145000Y-111335000D03*
%TD*%
D16*
%TO.C,D24*%
X330610000Y-290195000D03*
X330610000Y-288095000D03*
%TD*%
%TO.C,D26*%
X325640000Y-290195000D03*
X325640000Y-288095000D03*
%TD*%
D15*
%TO.C,D27*%
X294000000Y-104775000D03*
X294000000Y-106875000D03*
%TD*%
D16*
%TO.C,D28*%
X299000000Y-294050000D03*
X299000000Y-291950000D03*
%TD*%
D15*
%TO.C,D33*%
X310000000Y-104775000D03*
X310000000Y-106875000D03*
%TD*%
D16*
%TO.C,D34*%
X283000000Y-294050000D03*
X283000000Y-291950000D03*
%TD*%
D49*
%TO.C,Q3*%
X227870000Y-276555000D03*
D50*
X225590000Y-282855000D03*
D49*
X223310000Y-276555000D03*
%TD*%
D23*
%TO.C,Q4*%
X177700000Y-122890000D03*
D24*
X179980000Y-116590000D03*
D23*
X182260000Y-122890000D03*
%TD*%
D43*
%TO.C,Q7*%
X246825000Y-269875000D03*
X244925000Y-269875000D03*
X245875000Y-271750000D03*
%TD*%
D51*
%TO.C,Q8*%
X158755000Y-129615000D03*
X160655000Y-129615000D03*
X159705000Y-127740000D03*
%TD*%
D49*
%TO.C,Q9*%
X246355000Y-276555000D03*
D50*
X244075000Y-282855000D03*
D49*
X241795000Y-276555000D03*
%TD*%
D23*
%TO.C,Q10*%
X159225000Y-122890000D03*
D24*
X161505000Y-116590000D03*
D23*
X163785000Y-122890000D03*
%TD*%
D51*
%TO.C,Q14*%
X270160000Y-129465000D03*
X272060000Y-129465000D03*
X271110000Y-127590000D03*
%TD*%
D49*
%TO.C,Q15*%
X321145000Y-276555000D03*
D50*
X318865000Y-282855000D03*
D49*
X316585000Y-276555000D03*
%TD*%
D23*
%TO.C,Q16*%
X270630000Y-122855000D03*
D24*
X272910000Y-116555000D03*
D23*
X275190000Y-122855000D03*
%TD*%
D44*
%TO.C,Q18*%
X321325000Y-127240000D03*
X320375000Y-127240000D03*
X319425000Y-127240000D03*
X319425000Y-129515000D03*
X320375000Y-129515000D03*
X321325000Y-129515000D03*
%TD*%
D43*
%TO.C,Q19*%
X340090000Y-269875000D03*
X338190000Y-269875000D03*
X339140000Y-271750000D03*
%TD*%
D28*
%TO.C,R3*%
X164675000Y-106075000D03*
X164675000Y-107725000D03*
%TD*%
D27*
%TO.C,R7*%
X235395000Y-293335000D03*
X235395000Y-291685000D03*
%TD*%
%TO.C,R8*%
X235395000Y-290095000D03*
X235395000Y-288445000D03*
%TD*%
%TO.C,R15*%
X230470000Y-290095000D03*
X230470000Y-288445000D03*
%TD*%
D28*
%TO.C,R20*%
X190060000Y-247650000D03*
X190060000Y-249300000D03*
%TD*%
%TO.C,R31*%
X179450000Y-106075000D03*
X179450000Y-107725000D03*
%TD*%
D30*
%TO.C,R44*%
X177145000Y-133445000D03*
X178795000Y-133445000D03*
%TD*%
%TO.C,R45*%
X226785000Y-267735000D03*
X228435000Y-267735000D03*
%TD*%
D29*
%TO.C,R46*%
X178795000Y-131595000D03*
X177145000Y-131595000D03*
%TD*%
D27*
%TO.C,R50*%
X220345000Y-272075000D03*
X220345000Y-270425000D03*
%TD*%
D28*
%TO.C,R51*%
X185225000Y-127405000D03*
X185225000Y-129055000D03*
%TD*%
D29*
%TO.C,R68*%
X160310000Y-131735000D03*
X158660000Y-131735000D03*
%TD*%
%TO.C,R69*%
X246920000Y-274000000D03*
X245270000Y-274000000D03*
%TD*%
D30*
%TO.C,R70*%
X163345000Y-275540000D03*
X164995000Y-275540000D03*
%TD*%
D29*
%TO.C,R71*%
X242210000Y-123805000D03*
X240560000Y-123805000D03*
%TD*%
D30*
%TO.C,R72*%
X158660000Y-125495000D03*
X160310000Y-125495000D03*
%TD*%
D27*
%TO.C,R73*%
X238795000Y-272075000D03*
X238795000Y-270425000D03*
%TD*%
D28*
%TO.C,R74*%
X178400000Y-292565000D03*
X178400000Y-294215000D03*
%TD*%
D27*
%TO.C,R75*%
X227130000Y-106845000D03*
X227130000Y-105195000D03*
%TD*%
D28*
%TO.C,R76*%
X166790000Y-127410000D03*
X166790000Y-129060000D03*
%TD*%
%TO.C,R77*%
X258730000Y-106095000D03*
X258730000Y-107745000D03*
%TD*%
%TO.C,R78*%
X258730000Y-109340000D03*
X258730000Y-110990000D03*
%TD*%
D27*
%TO.C,R79*%
X333025000Y-293395000D03*
X333025000Y-291745000D03*
%TD*%
%TO.C,R80*%
X333025000Y-290090000D03*
X333025000Y-288440000D03*
%TD*%
D28*
%TO.C,R81*%
X263695000Y-106095000D03*
X263695000Y-107745000D03*
%TD*%
%TO.C,R82*%
X263695000Y-109340000D03*
X263695000Y-110990000D03*
%TD*%
D27*
%TO.C,R83*%
X328060000Y-293395000D03*
X328060000Y-291745000D03*
%TD*%
%TO.C,R84*%
X328060000Y-290090000D03*
X328060000Y-288440000D03*
%TD*%
D28*
%TO.C,R85*%
X312125000Y-150095000D03*
X312125000Y-151745000D03*
%TD*%
D27*
%TO.C,R86*%
X292000000Y-106650000D03*
X292000000Y-105000000D03*
%TD*%
%TO.C,R91*%
X281510000Y-249295000D03*
X281510000Y-247645000D03*
%TD*%
%TO.C,R92*%
X323130000Y-293395000D03*
X323130000Y-291745000D03*
%TD*%
D30*
%TO.C,R117*%
X320060000Y-267735000D03*
X321710000Y-267735000D03*
%TD*%
D29*
%TO.C,R118*%
X271725000Y-135210000D03*
X270075000Y-135210000D03*
%TD*%
D30*
%TO.C,R119*%
X270075000Y-133400000D03*
X271725000Y-133400000D03*
%TD*%
D29*
%TO.C,R120*%
X271725000Y-131570000D03*
X270075000Y-131570000D03*
%TD*%
%TO.C,R121*%
X321710000Y-274000000D03*
X320060000Y-274000000D03*
%TD*%
D30*
%TO.C,R122*%
X270065000Y-125435000D03*
X271715000Y-125435000D03*
%TD*%
D27*
%TO.C,R123*%
X313620000Y-272075000D03*
X313620000Y-270425000D03*
%TD*%
D28*
%TO.C,R124*%
X278155000Y-127270000D03*
X278155000Y-128920000D03*
%TD*%
%TO.C,R125*%
X268840000Y-272055000D03*
X268840000Y-273705000D03*
%TD*%
D18*
%TO.C,U9*%
X287035000Y-116205000D03*
D19*
X287035000Y-118745000D03*
X287035000Y-121285000D03*
X287035000Y-123825000D03*
X287035000Y-126365000D03*
X287035000Y-128905000D03*
X287035000Y-131445000D03*
X287035000Y-133985000D03*
X287035000Y-136525000D03*
X287035000Y-139065000D03*
X287035000Y-141605000D03*
X287035000Y-144145000D03*
X287035000Y-146685000D03*
X287035000Y-149225000D03*
X287035000Y-151765000D03*
X287035000Y-154305000D03*
X287035000Y-156845000D03*
X287035000Y-159385000D03*
X287035000Y-161925000D03*
X287035000Y-164465000D03*
X304815000Y-164465000D03*
X304815000Y-161925000D03*
X304815000Y-159385000D03*
X304815000Y-156845000D03*
X304815000Y-154305000D03*
X304815000Y-151765000D03*
X304815000Y-149225000D03*
X304815000Y-146685000D03*
X304815000Y-144145000D03*
X304815000Y-141605000D03*
X304815000Y-139065000D03*
X304815000Y-136525000D03*
X304815000Y-133985000D03*
X304815000Y-131445000D03*
X304815000Y-128905000D03*
X304815000Y-126365000D03*
X304815000Y-123825000D03*
X304815000Y-121285000D03*
X304815000Y-118745000D03*
D34*
X304815000Y-116205000D03*
%TD*%
D18*
%TO.C,U10*%
X304885000Y-283205000D03*
D19*
X304885000Y-280665000D03*
X304885000Y-278125000D03*
X304885000Y-275585000D03*
X304885000Y-273045000D03*
X304885000Y-270505000D03*
X304885000Y-267965000D03*
X304885000Y-265425000D03*
X304885000Y-262885000D03*
X304885000Y-260345000D03*
X304885000Y-257805000D03*
X304885000Y-255265000D03*
X304885000Y-252725000D03*
X304885000Y-250185000D03*
X304885000Y-247645000D03*
X304885000Y-245105000D03*
X304885000Y-242565000D03*
X304885000Y-240025000D03*
X304885000Y-237485000D03*
X304885000Y-234945000D03*
X287105000Y-234945000D03*
X287105000Y-237485000D03*
X287105000Y-240025000D03*
X287105000Y-242565000D03*
X287105000Y-245105000D03*
X287105000Y-247645000D03*
X287105000Y-250185000D03*
X287105000Y-252725000D03*
X287105000Y-255265000D03*
X287105000Y-257805000D03*
X287105000Y-260345000D03*
X287105000Y-262885000D03*
X287105000Y-265425000D03*
X287105000Y-267965000D03*
X287105000Y-270505000D03*
X287105000Y-273045000D03*
X287105000Y-275585000D03*
X287105000Y-278125000D03*
X287105000Y-280665000D03*
D34*
X287105000Y-283205000D03*
%TD*%
D18*
%TO.C,U18*%
X398370000Y-283205000D03*
D19*
X398370000Y-280665000D03*
X398370000Y-278125000D03*
X398370000Y-275585000D03*
X398370000Y-273045000D03*
X398370000Y-270505000D03*
X398370000Y-267965000D03*
X398370000Y-265425000D03*
X398370000Y-262885000D03*
X398370000Y-260345000D03*
X398370000Y-257805000D03*
X398370000Y-255265000D03*
X398370000Y-252725000D03*
X398370000Y-250185000D03*
X398370000Y-247645000D03*
X398370000Y-245105000D03*
X398370000Y-242565000D03*
X398370000Y-240025000D03*
X398370000Y-237485000D03*
X398370000Y-234945000D03*
X380590000Y-234945000D03*
X380590000Y-237485000D03*
X380590000Y-240025000D03*
X380590000Y-242565000D03*
X380590000Y-245105000D03*
X380590000Y-247645000D03*
X380590000Y-250185000D03*
X380590000Y-252725000D03*
X380590000Y-255265000D03*
X380590000Y-257805000D03*
X380590000Y-260345000D03*
X380590000Y-262885000D03*
X380590000Y-265425000D03*
X380590000Y-267965000D03*
X380590000Y-270505000D03*
X380590000Y-273045000D03*
X380590000Y-275585000D03*
X380590000Y-278125000D03*
X380590000Y-280665000D03*
D34*
X380590000Y-283205000D03*
%TD*%
D35*
%TO.C,J7*%
X427420000Y-201510000D03*
D36*
X427420000Y-198010000D03*
%TD*%
D28*
%TO.C,R16*%
X174465000Y-106075000D03*
X174465000Y-107725000D03*
%TD*%
D27*
%TO.C,R110*%
X298395000Y-240615000D03*
X298395000Y-238965000D03*
%TD*%
D13*
%TO.C,D56*%
X374485000Y-294050000D03*
X374485000Y-291950000D03*
%TD*%
%TO.C,D50*%
X390345000Y-294050000D03*
X390345000Y-291950000D03*
%TD*%
D27*
%TO.C,R100*%
X283455000Y-274085000D03*
X283455000Y-272435000D03*
%TD*%
D28*
%TO.C,R98*%
X279610000Y-247645000D03*
X279610000Y-249295000D03*
%TD*%
D11*
%TO.C,C50*%
X407000000Y-106050000D03*
X407000000Y-107600000D03*
%TD*%
D52*
%TO.C,X1*%
X421845000Y-260485000D03*
X421845000Y-262335000D03*
X423295000Y-262335000D03*
X423295000Y-260485000D03*
%TD*%
D27*
%TO.C,R201*%
X431415000Y-127355000D03*
X431415000Y-125705000D03*
%TD*%
D30*
%TO.C,R221*%
X268175000Y-204000000D03*
X269825000Y-204000000D03*
%TD*%
D15*
%TO.C,D35*%
X276305000Y-109235000D03*
X276305000Y-111335000D03*
%TD*%
D27*
%TO.C,R247*%
X279000000Y-293825000D03*
X279000000Y-292175000D03*
%TD*%
D53*
%TO.C,J9_1*%
X228760000Y-305000000D03*
D54*
X233840000Y-305000000D03*
X238920000Y-305000000D03*
X244000000Y-305000000D03*
%TD*%
D55*
%TO.C,U8*%
X416257500Y-268160000D03*
X416257500Y-267660000D03*
X416257500Y-267160000D03*
X416257500Y-266660000D03*
X416257500Y-266160000D03*
X416257500Y-265660000D03*
D56*
X415570000Y-264972500D03*
X415070000Y-264972500D03*
X414570000Y-264972500D03*
X414070000Y-264972500D03*
X413570000Y-264972500D03*
X413070000Y-264972500D03*
D55*
X412382500Y-265660000D03*
X412382500Y-266160000D03*
X412382500Y-266660000D03*
X412382500Y-267160000D03*
X412382500Y-267660000D03*
X412382500Y-268160000D03*
D56*
X413070000Y-268847500D03*
X413570000Y-268847500D03*
X414070000Y-268847500D03*
X414570000Y-268847500D03*
X415070000Y-268847500D03*
X415570000Y-268847500D03*
D57*
X414320000Y-266910000D03*
%TD*%
D11*
%TO.C,C45*%
X296000000Y-106050000D03*
X296000000Y-107600000D03*
%TD*%
D28*
%TO.C,R149*%
X351645000Y-106050000D03*
X351645000Y-107700000D03*
%TD*%
D39*
%TO.C,D41*%
X339030000Y-105875000D03*
D40*
X339030000Y-113495000D03*
%TD*%
D39*
%TO.C,D39*%
X253460000Y-293520000D03*
D40*
X253460000Y-285900000D03*
%TD*%
D43*
%TO.C,Q37*%
X227817500Y-259375000D03*
X225917500Y-259375000D03*
X226867500Y-261250000D03*
%TD*%
D35*
%TO.C,PS1*%
X190890000Y-197170000D03*
D36*
X193430000Y-197170000D03*
X195970000Y-197170000D03*
X198510000Y-197170000D03*
X201050000Y-197170000D03*
X203590000Y-197170000D03*
X206130000Y-197170000D03*
X208670000Y-197170000D03*
X211210000Y-197170000D03*
X213750000Y-197170000D03*
X216290000Y-197170000D03*
X218830000Y-197170000D03*
%TD*%
D28*
%TO.C,R240*%
X401000000Y-105000000D03*
X401000000Y-106650000D03*
%TD*%
D27*
%TO.C,R260*%
X425185000Y-309170000D03*
X425185000Y-307520000D03*
%TD*%
D58*
%TO.C,U26*%
X312022500Y-116350000D03*
X312022500Y-117000000D03*
X312022500Y-117650000D03*
X312022500Y-118300000D03*
X312022500Y-118950000D03*
X312022500Y-119600000D03*
X312022500Y-120250000D03*
X317747500Y-120250000D03*
X317747500Y-119600000D03*
X317747500Y-118950000D03*
X317747500Y-118300000D03*
X317747500Y-117650000D03*
X317747500Y-117000000D03*
X317747500Y-116350000D03*
%TD*%
D59*
%TO.C,JP9*%
X289700000Y-214000000D03*
D60*
X291000000Y-214000000D03*
D61*
X292300000Y-214000000D03*
%TD*%
D30*
%TO.C,R225*%
X297175000Y-194000000D03*
X298825000Y-194000000D03*
%TD*%
D58*
%TO.C,U25*%
X219637500Y-117050000D03*
X219637500Y-117700000D03*
X219637500Y-118350000D03*
X219637500Y-119000000D03*
X219637500Y-119650000D03*
X219637500Y-120300000D03*
X219637500Y-120950000D03*
X225362500Y-120950000D03*
X225362500Y-120300000D03*
X225362500Y-119650000D03*
X225362500Y-119000000D03*
X225362500Y-118350000D03*
X225362500Y-117700000D03*
X225362500Y-117050000D03*
%TD*%
D10*
%TO.C,C67*%
X367050000Y-275075000D03*
X364100000Y-275075000D03*
%TD*%
D62*
%TO.C,C34*%
X223850000Y-124425000D03*
X226800000Y-124425000D03*
%TD*%
D29*
%TO.C,R202*%
X415620000Y-131435000D03*
X413970000Y-131435000D03*
%TD*%
D53*
%TO.C,J3_2*%
X156760000Y-305000000D03*
D54*
X161840000Y-305000000D03*
X166920000Y-305000000D03*
X172000000Y-305000000D03*
%TD*%
D28*
%TO.C,R241*%
X409000000Y-105000000D03*
X409000000Y-106650000D03*
%TD*%
D11*
%TO.C,C44*%
X221000000Y-106050000D03*
X221000000Y-107600000D03*
%TD*%
D62*
%TO.C,C65*%
X411850000Y-123475000D03*
X414800000Y-123475000D03*
%TD*%
D63*
%TO.C,J10_1*%
X172000000Y-94777500D03*
D54*
X166920000Y-94777500D03*
X161840000Y-94777500D03*
X156760000Y-94777500D03*
%TD*%
D53*
%TO.C,J17_2*%
X348680000Y-305000000D03*
D54*
X353760000Y-305000000D03*
X358840000Y-305000000D03*
X363920000Y-305000000D03*
%TD*%
D63*
%TO.C,J4_1*%
X220000000Y-94777500D03*
D54*
X214920000Y-94777500D03*
X209840000Y-94777500D03*
X204760000Y-94777500D03*
%TD*%
D12*
%TO.C,C37*%
X183155000Y-276790000D03*
X183155000Y-275240000D03*
%TD*%
D27*
%TO.C,R246*%
X287000000Y-293825000D03*
X287000000Y-292175000D03*
%TD*%
%TO.C,R165*%
X403985000Y-151765000D03*
X403985000Y-150115000D03*
%TD*%
D12*
%TO.C,C53*%
X187000000Y-292775000D03*
X187000000Y-291225000D03*
%TD*%
D29*
%TO.C,R227*%
X265825000Y-204000000D03*
X264175000Y-204000000D03*
%TD*%
D28*
%TO.C,R174*%
X376530000Y-292175000D03*
X376530000Y-293825000D03*
%TD*%
D27*
%TO.C,R253*%
X412485000Y-262090000D03*
X412485000Y-260440000D03*
%TD*%
D12*
%TO.C,C58*%
X380515000Y-292775000D03*
X380515000Y-291225000D03*
%TD*%
D25*
%TO.C,Q24*%
X324030000Y-118640000D03*
D26*
X326570000Y-109490000D03*
D25*
X329110000Y-118640000D03*
%TD*%
D49*
%TO.C,Q21*%
X339620000Y-276555000D03*
D50*
X337340000Y-282855000D03*
D49*
X335060000Y-276555000D03*
%TD*%
D53*
%TO.C,J15_2*%
X300760000Y-305000000D03*
D54*
X305840000Y-305000000D03*
X310920000Y-305000000D03*
X316000000Y-305000000D03*
%TD*%
D43*
%TO.C,Q1*%
X228340000Y-269870000D03*
X226440000Y-269870000D03*
X227390000Y-271745000D03*
%TD*%
D30*
%TO.C,R226*%
X313175000Y-183000000D03*
X314825000Y-183000000D03*
%TD*%
D28*
%TO.C,R127*%
X255305000Y-272055000D03*
X255305000Y-273705000D03*
%TD*%
D12*
%TO.C,C66*%
X369655000Y-276570000D03*
X369655000Y-275020000D03*
%TD*%
D63*
%TO.C,J21_1*%
X364000000Y-94777500D03*
D54*
X358920000Y-94777500D03*
X353840000Y-94777500D03*
X348760000Y-94777500D03*
%TD*%
D41*
%TO.C,C61*%
X421730000Y-264265000D03*
X423280000Y-264265000D03*
%TD*%
D62*
%TO.C,C63*%
X317100000Y-123625000D03*
X320050000Y-123625000D03*
%TD*%
D64*
%TO.C,JP6*%
X393300000Y-285785000D03*
D60*
X392000000Y-285785000D03*
D65*
X390700000Y-285785000D03*
%TD*%
D51*
%TO.C,Q20*%
X251685000Y-129467500D03*
X253585000Y-129467500D03*
X252635000Y-127592500D03*
%TD*%
D10*
%TO.C,C38*%
X180550000Y-275525000D03*
X177600000Y-275525000D03*
%TD*%
D63*
%TO.C,J16_2*%
X292000000Y-94777500D03*
D54*
X286920000Y-94777500D03*
X281840000Y-94777500D03*
X276760000Y-94777500D03*
%TD*%
D30*
%TO.C,R230*%
X304175000Y-206000000D03*
X305825000Y-206000000D03*
%TD*%
D28*
%TO.C,R237*%
X306000000Y-105000000D03*
X306000000Y-106650000D03*
%TD*%
D66*
%TO.C,IC5*%
X402390000Y-128910000D03*
X402390000Y-130810000D03*
X404265000Y-129860000D03*
%TD*%
D53*
%TO.C,J15_1*%
X324760000Y-305000000D03*
D54*
X329840000Y-305000000D03*
X334920000Y-305000000D03*
X340000000Y-305000000D03*
%TD*%
D39*
%TO.C,D64*%
X429240000Y-113510000D03*
D40*
X429240000Y-105890000D03*
%TD*%
D51*
%TO.C,Q40*%
X159482500Y-139875000D03*
X161382500Y-139875000D03*
X160432500Y-138000000D03*
%TD*%
D30*
%TO.C,R128*%
X271110000Y-267790000D03*
X272760000Y-267790000D03*
%TD*%
D51*
%TO.C,Q2*%
X177230000Y-129615000D03*
X179130000Y-129615000D03*
X178180000Y-127740000D03*
%TD*%
D28*
%TO.C,R236*%
X298000000Y-105000000D03*
X298000000Y-106650000D03*
%TD*%
%TO.C,R238*%
X314000000Y-105000000D03*
X314000000Y-106650000D03*
%TD*%
D29*
%TO.C,R229*%
X292825000Y-205000000D03*
X291175000Y-205000000D03*
%TD*%
D51*
%TO.C,Q44*%
X345762500Y-139375000D03*
X347662500Y-139375000D03*
X346712500Y-137500000D03*
%TD*%
D27*
%TO.C,R257*%
X406670000Y-262375000D03*
X406670000Y-260725000D03*
%TD*%
D23*
%TO.C,Q22*%
X252155000Y-122855000D03*
D24*
X254435000Y-116555000D03*
D23*
X256715000Y-122855000D03*
%TD*%
D16*
%TO.C,D36*%
X315450000Y-290195000D03*
X315450000Y-288095000D03*
%TD*%
D64*
%TO.C,JP12*%
X314300000Y-179285000D03*
D60*
X313000000Y-179285000D03*
D65*
X311700000Y-179285000D03*
%TD*%
D28*
%TO.C,R162*%
X392375000Y-292175000D03*
X392375000Y-293825000D03*
%TD*%
D27*
%TO.C,R255*%
X408485000Y-262110000D03*
X408485000Y-260460000D03*
%TD*%
D10*
%TO.C,C69*%
X274050000Y-275175000D03*
X271100000Y-275175000D03*
%TD*%
D18*
%TO.C,J13*%
X293480000Y-164095000D03*
D19*
X296020000Y-164095000D03*
X298560000Y-164095000D03*
%TD*%
D43*
%TO.C,Q38*%
X246317500Y-259500000D03*
X244417500Y-259500000D03*
X245367500Y-261375000D03*
%TD*%
D27*
%TO.C,R256*%
X404680000Y-262375000D03*
X404680000Y-260725000D03*
%TD*%
D11*
%TO.C,C49*%
X399000000Y-106050000D03*
X399000000Y-107600000D03*
%TD*%
D48*
%TO.C,D65*%
X355415000Y-122705000D03*
X355415000Y-115905000D03*
%TD*%
D63*
%TO.C,J18_1*%
X412000000Y-94777500D03*
D54*
X406920000Y-94777500D03*
X401840000Y-94777500D03*
X396760000Y-94777500D03*
%TD*%
D29*
%TO.C,R213*%
X428915000Y-123885000D03*
X427265000Y-123885000D03*
%TD*%
D64*
%TO.C,JP7*%
X274300000Y-189000000D03*
D60*
X273000000Y-189000000D03*
D65*
X271700000Y-189000000D03*
%TD*%
D47*
%TO.C,D43*%
X329950000Y-276705000D03*
X329950000Y-283505000D03*
%TD*%
D51*
%TO.C,Q39*%
X177982500Y-139750000D03*
X179882500Y-139750000D03*
X178932500Y-137875000D03*
%TD*%
D12*
%TO.C,C59*%
X372515000Y-292775000D03*
X372515000Y-291225000D03*
%TD*%
D67*
%TO.C,FB1*%
X407447832Y-277495000D03*
X407447832Y-272415000D03*
%TD*%
D28*
%TO.C,R150*%
X351640000Y-109275000D03*
X351640000Y-110925000D03*
%TD*%
D29*
%TO.C,R232*%
X312825000Y-190000000D03*
X311175000Y-190000000D03*
%TD*%
%TO.C,R224*%
X305825000Y-217000000D03*
X304175000Y-217000000D03*
%TD*%
D23*
%TO.C,Q27*%
X364210000Y-122855000D03*
D24*
X366490000Y-116555000D03*
D23*
X368770000Y-122855000D03*
%TD*%
D28*
%TO.C,R239*%
X393000000Y-105000000D03*
X393000000Y-106650000D03*
%TD*%
D68*
%TO.C,U4*%
X279747500Y-282975000D03*
X279747500Y-282325000D03*
X279747500Y-281675000D03*
X279747500Y-281025000D03*
X279747500Y-280375000D03*
X279747500Y-279725000D03*
X279747500Y-279075000D03*
X274022500Y-279075000D03*
X274022500Y-279725000D03*
X274022500Y-280375000D03*
X274022500Y-281025000D03*
X274022500Y-281675000D03*
X274022500Y-282325000D03*
X274022500Y-282975000D03*
%TD*%
D37*
%TO.C,H3*%
X449400000Y-89700000D03*
%TD*%
D51*
%TO.C,Q31*%
X345275000Y-129535000D03*
X347175000Y-129535000D03*
X346225000Y-127660000D03*
%TD*%
D63*
%TO.C,J4_2*%
X244000000Y-94777500D03*
D54*
X238920000Y-94777500D03*
X233840000Y-94777500D03*
X228760000Y-94777500D03*
%TD*%
D64*
%TO.C,JP5*%
X299300000Y-286000000D03*
D60*
X298000000Y-286000000D03*
D65*
X296700000Y-286000000D03*
%TD*%
D29*
%TO.C,R231*%
X291825000Y-194000000D03*
X290175000Y-194000000D03*
%TD*%
D12*
%TO.C,C60*%
X414505000Y-262030000D03*
X414505000Y-260480000D03*
%TD*%
D53*
%TO.C,J11_2*%
X252760000Y-305000000D03*
D54*
X257840000Y-305000000D03*
X262920000Y-305000000D03*
X268000000Y-305000000D03*
%TD*%
D27*
%TO.C,R129*%
X337215000Y-127355000D03*
X337215000Y-125705000D03*
%TD*%
D28*
%TO.C,R219*%
X353305000Y-127335000D03*
X353305000Y-128985000D03*
%TD*%
D12*
%TO.C,C52*%
X195000000Y-292775000D03*
X195000000Y-291225000D03*
%TD*%
D30*
%TO.C,R215*%
X345180000Y-125410000D03*
X346830000Y-125410000D03*
%TD*%
D28*
%TO.C,R131*%
X257330000Y-272055000D03*
X257330000Y-273705000D03*
%TD*%
D27*
%TO.C,R242*%
X201000000Y-293825000D03*
X201000000Y-292175000D03*
%TD*%
D51*
%TO.C,Q42*%
X252372500Y-139375000D03*
X254272500Y-139375000D03*
X253322500Y-137500000D03*
%TD*%
D28*
%TO.C,R161*%
X361535000Y-109270000D03*
X361535000Y-110920000D03*
%TD*%
D66*
%TO.C,IC3*%
X308602500Y-128900000D03*
X308602500Y-130800000D03*
X310477500Y-129850000D03*
%TD*%
D27*
%TO.C,R218*%
X413835000Y-106845000D03*
X413835000Y-105195000D03*
%TD*%
D53*
%TO.C,J11_1*%
X276760000Y-305000000D03*
D54*
X281840000Y-305000000D03*
X286920000Y-305000000D03*
X292000000Y-305000000D03*
%TD*%
D59*
%TO.C,JP3*%
X387400000Y-113500000D03*
D60*
X388700000Y-113500000D03*
D61*
X390000000Y-113500000D03*
%TD*%
D27*
%TO.C,R259*%
X401185000Y-309160000D03*
X401185000Y-307510000D03*
%TD*%
D30*
%TO.C,R207*%
X347180000Y-135300000D03*
X348830000Y-135300000D03*
%TD*%
D43*
%TO.C,Q45*%
X321317500Y-259875000D03*
X319417500Y-259875000D03*
X320367500Y-261750000D03*
%TD*%
D28*
%TO.C,R235*%
X223000000Y-105000000D03*
X223000000Y-106650000D03*
%TD*%
D69*
%TO.C,J4*%
X408098500Y-304625000D03*
X419528500Y-304625000D03*
D70*
X409368500Y-298275000D03*
D71*
X410638500Y-295735000D03*
X411908500Y-298275000D03*
X413178500Y-295735000D03*
X414448500Y-298275000D03*
X415718500Y-295735000D03*
X416988500Y-298275000D03*
X418258500Y-295735000D03*
D72*
X407173500Y-308685000D03*
X409713500Y-308685000D03*
X417913500Y-308685000D03*
X420453500Y-308685000D03*
D73*
X405963500Y-301575000D03*
X421663500Y-301575000D03*
%TD*%
D30*
%TO.C,R208*%
X345180000Y-133485000D03*
X346830000Y-133485000D03*
%TD*%
D21*
%TO.C,Q23*%
X268485000Y-280770000D03*
D22*
X265945000Y-289920000D03*
D21*
X263405000Y-280770000D03*
%TD*%
D59*
%TO.C,JP2*%
X293400000Y-112500000D03*
D60*
X294700000Y-112500000D03*
D61*
X296000000Y-112500000D03*
%TD*%
D30*
%TO.C,R258*%
X421835000Y-266050000D03*
X423485000Y-266050000D03*
%TD*%
D12*
%TO.C,C54*%
X297000000Y-292775000D03*
X297000000Y-291225000D03*
%TD*%
D63*
%TO.C,J16_1*%
X268000000Y-94777500D03*
D54*
X262920000Y-94777500D03*
X257840000Y-94777500D03*
X252760000Y-94777500D03*
%TD*%
D43*
%TO.C,Q46*%
X339817500Y-260000000D03*
X337917500Y-260000000D03*
X338867500Y-261875000D03*
%TD*%
D30*
%TO.C,R222*%
X280175000Y-208000000D03*
X281825000Y-208000000D03*
%TD*%
D27*
%TO.C,R244*%
X185000000Y-293825000D03*
X185000000Y-292175000D03*
%TD*%
D12*
%TO.C,C56*%
X281000000Y-292775000D03*
X281000000Y-291225000D03*
%TD*%
D27*
%TO.C,R249*%
X378515000Y-293825000D03*
X378515000Y-292175000D03*
%TD*%
D74*
%TO.C,IC4*%
X283205000Y-270510000D03*
X283205000Y-268610000D03*
X281330000Y-269560000D03*
%TD*%
D63*
%TO.C,J21_2*%
X388000000Y-94777500D03*
D54*
X382920000Y-94777500D03*
X377840000Y-94777500D03*
X372760000Y-94777500D03*
%TD*%
D63*
%TO.C,J18_2*%
X436000000Y-94777500D03*
D54*
X430920000Y-94777500D03*
X425840000Y-94777500D03*
X420760000Y-94777500D03*
%TD*%
D11*
%TO.C,C41*%
X314405000Y-122750000D03*
X314405000Y-124300000D03*
%TD*%
%TO.C,C47*%
X312000000Y-106050000D03*
X312000000Y-107600000D03*
%TD*%
D74*
%TO.C,IC1*%
X189730000Y-270500000D03*
X189730000Y-268600000D03*
X187855000Y-269550000D03*
%TD*%
D51*
%TO.C,Q43*%
X364262500Y-139250000D03*
X366162500Y-139250000D03*
X365212500Y-137375000D03*
%TD*%
D39*
%TO.C,D63*%
X433270000Y-105890000D03*
D40*
X433270000Y-113510000D03*
%TD*%
D11*
%TO.C,C48*%
X391000000Y-106050000D03*
X391000000Y-107600000D03*
%TD*%
D51*
%TO.C,Q41*%
X270872500Y-139250000D03*
X272772500Y-139250000D03*
X271822500Y-137375000D03*
%TD*%
D27*
%TO.C,R126*%
X323680000Y-127410000D03*
X323680000Y-125760000D03*
%TD*%
D39*
%TO.C,D42*%
X335045000Y-113495000D03*
D40*
X335045000Y-105875000D03*
%TD*%
D29*
%TO.C,R228*%
X279825000Y-211000000D03*
X278175000Y-211000000D03*
%TD*%
D63*
%TO.C,J10_2*%
X196000000Y-94777500D03*
D54*
X190920000Y-94777500D03*
X185840000Y-94777500D03*
X180760000Y-94777500D03*
%TD*%
D51*
%TO.C,Q25*%
X363740000Y-129535000D03*
X365640000Y-129535000D03*
X364690000Y-127660000D03*
%TD*%
D27*
%TO.C,R261*%
X418505000Y-272630000D03*
X418505000Y-270980000D03*
%TD*%
D11*
%TO.C,C64*%
X409155000Y-122510000D03*
X409155000Y-124060000D03*
%TD*%
D75*
%TO.C,U11*%
X414750000Y-228450000D03*
X414750000Y-229720000D03*
X414750000Y-230990000D03*
X414750000Y-232260000D03*
X419700000Y-232260000D03*
X419700000Y-230990000D03*
X419700000Y-229720000D03*
X419700000Y-228450000D03*
%TD*%
D27*
%TO.C,R167*%
X405875000Y-151765000D03*
X405875000Y-150115000D03*
%TD*%
D12*
%TO.C,C17*%
X164885000Y-129010000D03*
X164885000Y-127460000D03*
%TD*%
%TO.C,C68*%
X276905000Y-277080000D03*
X276905000Y-275530000D03*
%TD*%
D27*
%TO.C,R254*%
X410485000Y-262100000D03*
X410485000Y-260450000D03*
%TD*%
D64*
%TO.C,JP11*%
X298300000Y-187000000D03*
D60*
X297000000Y-187000000D03*
D65*
X295700000Y-187000000D03*
%TD*%
D27*
%TO.C,R243*%
X193000000Y-293825000D03*
X193000000Y-292175000D03*
%TD*%
D45*
%TO.C,Q17*%
X271205000Y-272172500D03*
X272155000Y-272172500D03*
X273105000Y-272172500D03*
X273105000Y-269897500D03*
X272155000Y-269897500D03*
X271205000Y-269897500D03*
%TD*%
D53*
%TO.C,J3_1*%
X180760000Y-305000000D03*
D54*
X185840000Y-305000000D03*
X190920000Y-305000000D03*
X196000000Y-305000000D03*
%TD*%
D63*
%TO.C,J12_1*%
X316000000Y-94777500D03*
D54*
X310920000Y-94777500D03*
X305840000Y-94777500D03*
X300760000Y-94777500D03*
%TD*%
D27*
%TO.C,R251*%
X416485000Y-262070000D03*
X416485000Y-260420000D03*
%TD*%
D68*
%TO.C,U7*%
X372757500Y-283135000D03*
X372757500Y-282485000D03*
X372757500Y-281835000D03*
X372757500Y-281185000D03*
X372757500Y-280535000D03*
X372757500Y-279885000D03*
X372757500Y-279235000D03*
X367032500Y-279235000D03*
X367032500Y-279885000D03*
X367032500Y-280535000D03*
X367032500Y-281185000D03*
X367032500Y-281835000D03*
X367032500Y-282485000D03*
X367032500Y-283135000D03*
%TD*%
D12*
%TO.C,C57*%
X388515000Y-292775000D03*
X388515000Y-291225000D03*
%TD*%
D11*
%TO.C,C42*%
X205000000Y-106050000D03*
X205000000Y-107600000D03*
%TD*%
D53*
%TO.C,J9_2*%
X204760000Y-305000000D03*
D54*
X209840000Y-305000000D03*
X214920000Y-305000000D03*
X220000000Y-305000000D03*
%TD*%
D64*
%TO.C,JP8*%
X257300000Y-187285000D03*
D60*
X256000000Y-187285000D03*
D65*
X254700000Y-187285000D03*
%TD*%
D59*
%TO.C,JP10*%
X318700000Y-218000000D03*
D60*
X320000000Y-218000000D03*
D61*
X321300000Y-218000000D03*
%TD*%
D74*
%TO.C,IC6*%
X376612500Y-270490000D03*
X376612500Y-268590000D03*
X374737500Y-269540000D03*
%TD*%
D28*
%TO.C,R233*%
X207000000Y-105000000D03*
X207000000Y-106650000D03*
%TD*%
D44*
%TO.C,Q30*%
X415525000Y-127067500D03*
X414575000Y-127067500D03*
X413625000Y-127067500D03*
X413625000Y-129342500D03*
X414575000Y-129342500D03*
X415525000Y-129342500D03*
%TD*%
D29*
%TO.C,R211*%
X346830000Y-131675000D03*
X345180000Y-131675000D03*
%TD*%
D28*
%TO.C,R234*%
X215000000Y-105000000D03*
X215000000Y-106650000D03*
%TD*%
D66*
%TO.C,IC2*%
X215420000Y-128900000D03*
X215420000Y-130800000D03*
X217295000Y-129850000D03*
%TD*%
D12*
%TO.C,C39*%
X427340000Y-127305000D03*
X427340000Y-125755000D03*
%TD*%
D30*
%TO.C,R223*%
X291175000Y-210000000D03*
X292825000Y-210000000D03*
%TD*%
D64*
%TO.C,JP4*%
X205600000Y-286285000D03*
D60*
X204300000Y-286285000D03*
D65*
X203000000Y-286285000D03*
%TD*%
D27*
%TO.C,R250*%
X370515000Y-293825000D03*
X370515000Y-292175000D03*
%TD*%
D28*
%TO.C,R160*%
X361540000Y-106045000D03*
X361540000Y-107695000D03*
%TD*%
%TO.C,R166*%
X376890000Y-247330000D03*
X376890000Y-248980000D03*
%TD*%
D27*
%TO.C,R168*%
X395000000Y-106650000D03*
X395000000Y-105000000D03*
%TD*%
D11*
%TO.C,C32*%
X221405000Y-123480000D03*
X221405000Y-125030000D03*
%TD*%
D59*
%TO.C,JP1*%
X200200000Y-111000000D03*
D60*
X201500000Y-111000000D03*
D61*
X202800000Y-111000000D03*
%TD*%
D53*
%TO.C,J17_1*%
X372760000Y-305000000D03*
D54*
X377840000Y-305000000D03*
X382920000Y-305000000D03*
X388000000Y-305000000D03*
%TD*%
D39*
%TO.C,D40*%
X257465000Y-285900000D03*
D40*
X257465000Y-293520000D03*
%TD*%
D29*
%TO.C,R130*%
X321420000Y-131590000D03*
X319770000Y-131590000D03*
%TD*%
D12*
%TO.C,C40*%
X351400000Y-128935000D03*
X351400000Y-127385000D03*
%TD*%
D27*
%TO.C,R245*%
X295000000Y-293825000D03*
X295000000Y-292175000D03*
%TD*%
%TO.C,R248*%
X386515000Y-293825000D03*
X386515000Y-292175000D03*
%TD*%
D12*
%TO.C,C51*%
X203000000Y-292775000D03*
X203000000Y-291225000D03*
%TD*%
D48*
%TO.C,D44*%
X261830000Y-122705000D03*
X261830000Y-115905000D03*
%TD*%
D27*
%TO.C,R204*%
X429390000Y-127355000D03*
X429390000Y-125705000D03*
%TD*%
%TO.C,R252*%
X418485000Y-262080000D03*
X418485000Y-260430000D03*
%TD*%
D58*
%TO.C,U27*%
X406022500Y-116350000D03*
X406022500Y-117000000D03*
X406022500Y-117650000D03*
X406022500Y-118300000D03*
X406022500Y-118950000D03*
X406022500Y-119600000D03*
X406022500Y-120250000D03*
X411747500Y-120250000D03*
X411747500Y-119600000D03*
X411747500Y-118950000D03*
X411747500Y-118300000D03*
X411747500Y-117650000D03*
X411747500Y-117000000D03*
X411747500Y-116350000D03*
%TD*%
D41*
%TO.C,C62*%
X418230000Y-264275000D03*
X419780000Y-264275000D03*
%TD*%
D63*
%TO.C,J12_2*%
X340000000Y-94777500D03*
D54*
X334920000Y-94777500D03*
X329840000Y-94777500D03*
X324760000Y-94777500D03*
%TD*%
D12*
%TO.C,C55*%
X289000000Y-292775000D03*
X289000000Y-291225000D03*
%TD*%
D29*
%TO.C,R205*%
X347630000Y-141555000D03*
X345980000Y-141555000D03*
%TD*%
D11*
%TO.C,C43*%
X213000000Y-106050000D03*
X213000000Y-107600000D03*
%TD*%
D27*
%TO.C,R173*%
X403000000Y-106650000D03*
X403000000Y-105000000D03*
%TD*%
D12*
%TO.C,C30*%
X412470000Y-272585000D03*
X412470000Y-271035000D03*
%TD*%
D11*
%TO.C,C46*%
X304000000Y-106050000D03*
X304000000Y-107600000D03*
%TD*%
D48*
%TO.C,D38*%
X280290000Y-122705000D03*
X280290000Y-115905000D03*
%TD*%
D68*
%TO.C,U3*%
X186247500Y-282975000D03*
X186247500Y-282325000D03*
X186247500Y-281675000D03*
X186247500Y-281025000D03*
X186247500Y-280375000D03*
X186247500Y-279725000D03*
X186247500Y-279075000D03*
X180522500Y-279075000D03*
X180522500Y-279725000D03*
X180522500Y-280375000D03*
X180522500Y-281025000D03*
X180522500Y-281675000D03*
X180522500Y-282325000D03*
X180522500Y-282975000D03*
%TD*%
D47*
%TO.C,D37*%
X311485000Y-276705000D03*
X311485000Y-283505000D03*
%TD*%
M02*
